<?xml version="1.0" encoding="UTF-8" standalone="no"?>
<!-- Created with Inkscape (http://www.inkscape.org/) -->

<svg
   width="1260.2996"
   height="1136.204"
   viewBox="0 0 333.45426 300.62062"
   version="1.1"
   id="svg5"
   inkscape:version="1.1.1 (3bf5ae0d25, 2021-09-20)"
   sodipodi:docname="Icon.svg"
   xmlns:inkscape="http://www.inkscape.org/namespaces/inkscape"
   xmlns:sodipodi="http://sodipodi.sourceforge.net/DTD/sodipodi-0.dtd"
   xmlns="http://www.w3.org/2000/svg"
   xmlns:svg="http://www.w3.org/2000/svg">
  <sodipodi:namedview
     id="namedview7"
     pagecolor="#ffffff"
     bordercolor="#666666"
     borderopacity="1.0"
     inkscape:pageshadow="2"
     inkscape:pageopacity="0.0"
     inkscape:pagecheckerboard="0"
     inkscape:document-units="mm"
     showgrid="false"
     showborder="true"
     inkscape:zoom="0.7071068"
     inkscape:cx="847.1139"
     inkscape:cy="424.26406"
     inkscape:window-width="2560"
     inkscape:window-height="1371"
     inkscape:window-x="0"
     inkscape:window-y="0"
     inkscape:window-maximized="1"
     inkscape:current-layer="g20949"
     inkscape:snap-page="true"
     inkscape:snap-object-midpoints="true"
     inkscape:snap-center="true"
     inkscape:object-paths="true"
     inkscape:snap-intersection-paths="true"
     inkscape:snap-bbox="true"
     inkscape:snap-bbox-edge-midpoints="true"
     inkscape:bbox-nodes="true"
     inkscape:bbox-paths="true"
     inkscape:snap-nodes="true"
     fit-margin-top="0"
     fit-margin-left="0"
     fit-margin-right="0"
     fit-margin-bottom="0"
     units="px"
     inkscape:snap-bbox-midpoints="true"
     inkscape:snap-midpoints="true"
     inkscape:snap-smooth-nodes="true"
     inkscape:snap-text-baseline="true"
     inkscape:snap-others="true"
     inkscape:snap-global="false" />
  <defs
     id="defs2">
    <clipPath
       clipPathUnits="userSpaceOnUse"
       id="clipPath19042">
      <path
         id="path19044"
         style="fill:#ff0000;fill-opacity:1;fill-rule:nonzero;stroke:none"
         d="m 168.5,362.1582 v 62.37891 h 79.85352 V 362.1582 h -54.81641 c 0.009,0.0536 -0.0118,0.0854 -0.041,0.0977 0.10337,0.39395 0.20691,0.78791 0.31055,1.18164 0.51696,1.96423 0.28691,1.04909 0.71289,2.78711 0.0311,0.14646 0.0628,0.293 0.0937,0.43945 0.0906,0.42636 -0.26374,0.5641 -0.43555,0.28516 -0.1397,0.10545 -0.35995,0.0151 -0.40039,-0.30664 -0.0196,-0.15629 -0.0386,-0.31251 -0.0586,-0.46875 -0.0102,-0.0794 -0.0164,-0.14994 -0.0234,-0.21485 -0.0493,0.0206 -0.10279,0.0286 -0.1582,0.008 0.0398,0.16992 0.0945,0.40202 0.10547,0.45117 0.0424,0.19031 0.0811,0.38144 0.12109,0.57226 0.0125,0.072 0.0231,0.1448 0.0352,0.2168 0.077,0.45613 -0.33443,0.57037 -0.47461,0.21289 v -0.002 c -0.0397,-0.0139 -0.0813,-0.0243 -0.11719,-0.0625 -0.1233,0.21919 -0.43128,0.15696 -0.46484,-0.23242 -0.0378,-0.43778 -0.0968,-1.10988 -0.15235,-1.75196 -0.008,2.3e-4 -0.009,0.003 -0.0195,0.002 -0.0808,-0.004 -0.16134,-0.01 -0.24219,-0.0137 -0.0289,-0.0405 -0.0633,-0.0778 -0.0879,-0.1211 -0.0253,-0.0447 -0.0657,-0.1317 -0.10742,-0.22266 -0.0351,0.005 -0.0457,-0.0201 -0.0332,-0.0723 -0.0324,-0.0721 -0.0602,-0.13419 -0.0801,-0.18164 -10e-4,0.0324 3.5e-4,0.0641 -0.004,0.0957 0.0387,0.17296 0.0726,0.34269 -0.0352,0.41992 -0.0845,0.0604 -0.23857,0.0555 -0.3125,-0.0176 -0.0273,-0.0269 -0.0294,-0.0636 -0.0234,-0.10352 -2.6e-4,-0.002 2e-4,-0.004 0,-0.006 v -0.002 c -0.0831,0.11413 -0.25808,0.0663 -0.26758,-0.16211 -0.002,-0.0491 -0.01,-0.0994 -0.008,-0.14844 0.0226,-0.41631 0.0658,-0.63749 0.12695,-1.07227 0.16604,-1.29016 0.0697,-0.47929 0.17383,-1.46874 0.005,-0.0462 0.0107,-0.0924 0.0156,-0.13868 z m 23.39844,0.94336 c -0.0138,0.10497 -0.0399,0.30667 -0.084,0.64844 0.0225,-0.0147 0.0476,-0.0222 0.0723,-0.0215 0.004,-0.088 0.006,-0.11153 0.0195,-0.25586 0.006,-0.0655 0.008,-0.12117 0.0273,-0.14844 -0.0102,-0.0643 -0.0274,-0.17143 -0.0352,-0.22266 z m -0.18164,1.45899 c -0.009,0.0948 -0.0284,0.18411 -0.0352,0.30468 -0.002,0.0296 0.003,0.0586 0.006,0.0879 0.0149,-0.16471 0.0211,-0.1927 0.0234,-0.17187 8.2e-4,-0.038 0.004,-0.15004 0.006,-0.2207 z m 0.26172,0.0449 c 4.5e-4,0.01 -0.007,0.015 -0.006,0.0254 0.003,-0.005 0.005,-0.009 0.008,-0.0137 -5.6e-4,-0.004 -6e-4,-0.008 -0.002,-0.0117 z m 0.51757,0.21484 c -0.0208,9.1e-4 -0.0538,0.002 -0.0566,0.002 v 0.002 c 0.0216,-0.001 0.0306,-0.003 0.0566,-0.004 z m -0.8164,0.1875 c -7.6e-4,0.0138 -0.006,0.0228 -0.008,0.0352 0.002,-0.003 0.002,-0.007 0.004,-0.01 v -0.002 c 0.002,-0.008 0.003,-0.0156 0.004,-0.0234 z m 0.88672,0.0957 c -0.007,0.003 -0.0121,0.0137 -0.0195,0.0156 0.009,0.0115 0.0141,0.0268 0.0254,0.0449 -0.002,-0.0225 -0.004,-0.038 -0.006,-0.0605 z m -0.26172,0.0234 c -0.0332,0.0125 0.18248,0.1106 0.28125,0.17969 -0.004,-0.0489 -0.007,-0.0836 -0.0117,-0.13281 -0.0679,-0.0136 -0.13514,-0.0273 -0.20313,-0.041 -0.0379,-0.008 -0.059,-0.009 -0.0664,-0.006 z" />
    </clipPath>
    <clipPath
       clipPathUnits="userSpaceOnUse"
       id="clipPath21999">
      <path
         id="path21997"
         style="fill:#ff0000;fill-opacity:1;fill-rule:nonzero;stroke:none"
         d="m 168.5,362.1582 v 62.37891 h 79.85352 V 362.1582 h -54.81641 c 0.009,0.0536 -0.0118,0.0854 -0.041,0.0977 0.10337,0.39395 0.20691,0.78791 0.31055,1.18164 0.51696,1.96423 0.28691,1.04909 0.71289,2.78711 0.0311,0.14646 0.0628,0.293 0.0937,0.43945 0.0906,0.42636 -0.26374,0.5641 -0.43555,0.28516 -0.1397,0.10545 -0.35995,0.0151 -0.40039,-0.30664 -0.0196,-0.15629 -0.0386,-0.31251 -0.0586,-0.46875 -0.0102,-0.0794 -0.0164,-0.14994 -0.0234,-0.21485 -0.0493,0.0206 -0.10279,0.0286 -0.1582,0.008 0.0398,0.16992 0.0945,0.40202 0.10547,0.45117 0.0424,0.19031 0.0811,0.38144 0.12109,0.57226 0.0125,0.072 0.0231,0.1448 0.0352,0.2168 0.077,0.45613 -0.33443,0.57037 -0.47461,0.21289 v -0.002 c -0.0397,-0.0139 -0.0813,-0.0243 -0.11719,-0.0625 -0.1233,0.21919 -0.43128,0.15696 -0.46484,-0.23242 -0.0378,-0.43778 -0.0968,-1.10988 -0.15235,-1.75196 -0.008,2.3e-4 -0.009,0.003 -0.0195,0.002 -0.0808,-0.004 -0.16134,-0.01 -0.24219,-0.0137 -0.0289,-0.0405 -0.0633,-0.0778 -0.0879,-0.1211 -0.0253,-0.0447 -0.0657,-0.1317 -0.10742,-0.22266 -0.0351,0.005 -0.0457,-0.0201 -0.0332,-0.0723 -0.0324,-0.0721 -0.0602,-0.13419 -0.0801,-0.18164 -10e-4,0.0324 3.5e-4,0.0641 -0.004,0.0957 0.0387,0.17296 0.0726,0.34269 -0.0352,0.41992 -0.0845,0.0604 -0.23857,0.0555 -0.3125,-0.0176 -0.0273,-0.0269 -0.0294,-0.0636 -0.0234,-0.10352 -2.6e-4,-0.002 2e-4,-0.004 0,-0.006 v -0.002 c -0.0831,0.11413 -0.25808,0.0663 -0.26758,-0.16211 -0.002,-0.0491 -0.01,-0.0994 -0.008,-0.14844 0.0226,-0.41631 0.0658,-0.63749 0.12695,-1.07227 0.16604,-1.29016 0.0697,-0.47929 0.17383,-1.46874 0.005,-0.0462 0.0107,-0.0924 0.0156,-0.13868 z m 23.39844,0.94336 c -0.0138,0.10497 -0.0399,0.30667 -0.084,0.64844 0.0225,-0.0147 0.0476,-0.0222 0.0723,-0.0215 0.004,-0.088 0.006,-0.11153 0.0195,-0.25586 0.006,-0.0655 0.008,-0.12117 0.0273,-0.14844 -0.0102,-0.0643 -0.0274,-0.17143 -0.0352,-0.22266 z m -0.18164,1.45899 c -0.009,0.0948 -0.0284,0.18411 -0.0352,0.30468 -0.002,0.0296 0.003,0.0586 0.006,0.0879 0.0149,-0.16471 0.0211,-0.1927 0.0234,-0.17187 8.2e-4,-0.038 0.004,-0.15004 0.006,-0.2207 z m 0.26172,0.0449 c 4.5e-4,0.01 -0.007,0.015 -0.006,0.0254 0.003,-0.005 0.005,-0.009 0.008,-0.0137 -5.6e-4,-0.004 -6e-4,-0.008 -0.002,-0.0117 z m 0.51757,0.21484 c -0.0208,9.1e-4 -0.0538,0.002 -0.0566,0.002 v 0.002 c 0.0216,-0.001 0.0306,-0.003 0.0566,-0.004 z m -0.8164,0.1875 c -7.6e-4,0.0138 -0.006,0.0228 -0.008,0.0352 0.002,-0.003 0.002,-0.007 0.004,-0.01 v -0.002 c 0.002,-0.008 0.003,-0.0156 0.004,-0.0234 z m 0.88672,0.0957 c -0.007,0.003 -0.0121,0.0137 -0.0195,0.0156 0.009,0.0115 0.0141,0.0268 0.0254,0.0449 -0.002,-0.0225 -0.004,-0.038 -0.006,-0.0605 z m -0.26172,0.0234 c -0.0332,0.0125 0.18248,0.1106 0.28125,0.17969 -0.004,-0.0489 -0.007,-0.0836 -0.0117,-0.13281 -0.0679,-0.0136 -0.13514,-0.0273 -0.20313,-0.041 -0.0379,-0.008 -0.059,-0.009 -0.0664,-0.006 z" />
    </clipPath>
    <inkscape:path-effect
       effect="spiro"
       id="path-effect20999"
       is_visible="true"
       lpeversion="1" />
    <inkscape:path-effect
       effect="skeletal"
       id="path-effect21003"
       is_visible="true"
       lpeversion="1"
       pattern="m 103.57469,-1.2464189 c 0,-2.822975 2.71196,-5.1140842 6.05348,-5.1140842 3.34152,0 6.05347,2.2911092 6.05347,5.1140842 0,2.8229758 -2.71195,5.114085 -6.05347,5.114085 -3.34152,0 -6.05348,-2.2911092 -6.05348,-5.114085 z"
       copytype="single_stretched"
       prop_scale="1.2828529"
       scale_y_rel="false"
       spacing="0"
       normal_offset="0"
       tang_offset="0"
       prop_units="false"
       vertical_pattern="false"
       hide_knot="false"
       fuse_tolerance="0" />
    <inkscape:path-effect
       effect="spiro"
       id="path-effect21007"
       is_visible="true"
       lpeversion="1" />
    <inkscape:path-effect
       effect="skeletal"
       id="path-effect21011"
       is_visible="true"
       lpeversion="1"
       pattern="m 76.380118,445.74266 c 2.123271,-0.9504 4.753405,0.33401 5.870843,2.86703 1.11743,2.53301 0.301099,5.36013 -1.822181,6.31054 -2.123278,0.95041 -4.75341,-0.33402 -5.870849,-2.86702 -1.11743,-2.533 -0.301091,-5.36013 1.822187,-6.31055 z"
       copytype="single_stretched"
       prop_scale="1.074885"
       scale_y_rel="false"
       spacing="0"
       normal_offset="0"
       tang_offset="0"
       prop_units="false"
       vertical_pattern="false"
       hide_knot="false"
       fuse_tolerance="0" />
    <clipPath
       clipPathUnits="userSpaceOnUse"
       id="clipPath19042-3-0-0">
      <path
         id="path19044-6-48-9"
         style="fill:#ff0000;fill-opacity:1;fill-rule:nonzero;stroke:none"
         d="m 168.5,362.1582 v 62.37891 h 79.85352 V 362.1582 h -54.81641 c 0.009,0.0536 -0.0118,0.0854 -0.041,0.0977 0.10337,0.39395 0.20691,0.78791 0.31055,1.18164 0.51696,1.96423 0.28691,1.04909 0.71289,2.78711 0.0311,0.14646 0.0628,0.293 0.0937,0.43945 0.0906,0.42636 -0.26374,0.5641 -0.43555,0.28516 -0.1397,0.10545 -0.35995,0.0151 -0.40039,-0.30664 -0.0196,-0.15629 -0.0386,-0.31251 -0.0586,-0.46875 -0.0102,-0.0794 -0.0164,-0.14994 -0.0234,-0.21485 -0.0493,0.0206 -0.10279,0.0286 -0.1582,0.008 0.0398,0.16992 0.0945,0.40202 0.10547,0.45117 0.0424,0.19031 0.0811,0.38144 0.12109,0.57226 0.0125,0.072 0.0231,0.1448 0.0352,0.2168 0.077,0.45613 -0.33443,0.57037 -0.47461,0.21289 v -0.002 c -0.0397,-0.0139 -0.0813,-0.0243 -0.11719,-0.0625 -0.1233,0.21919 -0.43128,0.15696 -0.46484,-0.23242 -0.0378,-0.43778 -0.0968,-1.10988 -0.15235,-1.75196 -0.008,2.3e-4 -0.009,0.003 -0.0195,0.002 -0.0808,-0.004 -0.16134,-0.01 -0.24219,-0.0137 -0.0289,-0.0405 -0.0633,-0.0778 -0.0879,-0.1211 -0.0253,-0.0447 -0.0657,-0.1317 -0.10742,-0.22266 -0.0351,0.005 -0.0457,-0.0201 -0.0332,-0.0723 -0.0324,-0.0721 -0.0602,-0.13419 -0.0801,-0.18164 -10e-4,0.0324 3.5e-4,0.0641 -0.004,0.0957 0.0387,0.17296 0.0726,0.34269 -0.0352,0.41992 -0.0845,0.0604 -0.23857,0.0555 -0.3125,-0.0176 -0.0273,-0.0269 -0.0294,-0.0636 -0.0234,-0.10352 -2.6e-4,-0.002 2e-4,-0.004 0,-0.006 v -0.002 c -0.0831,0.11413 -0.25808,0.0663 -0.26758,-0.16211 -0.002,-0.0491 -0.01,-0.0994 -0.008,-0.14844 0.0226,-0.41631 0.0658,-0.63749 0.12695,-1.07227 0.16604,-1.29016 0.0697,-0.47929 0.17383,-1.46874 0.005,-0.0462 0.0107,-0.0924 0.0156,-0.13868 z m 23.39844,0.94336 c -0.0138,0.10497 -0.0399,0.30667 -0.084,0.64844 0.0225,-0.0147 0.0476,-0.0222 0.0723,-0.0215 0.004,-0.088 0.006,-0.11153 0.0195,-0.25586 0.006,-0.0655 0.008,-0.12117 0.0273,-0.14844 -0.0102,-0.0643 -0.0274,-0.17143 -0.0352,-0.22266 z m -0.18164,1.45899 c -0.009,0.0948 -0.0284,0.18411 -0.0352,0.30468 -0.002,0.0296 0.003,0.0586 0.006,0.0879 0.0149,-0.16471 0.0211,-0.1927 0.0234,-0.17187 8.2e-4,-0.038 0.004,-0.15004 0.006,-0.2207 z m 0.26172,0.0449 c 4.5e-4,0.01 -0.007,0.015 -0.006,0.0254 0.003,-0.005 0.005,-0.009 0.008,-0.0137 -5.6e-4,-0.004 -6e-4,-0.008 -0.002,-0.0117 z m 0.51757,0.21484 c -0.0208,9.1e-4 -0.0538,0.002 -0.0566,0.002 v 0.002 c 0.0216,-0.001 0.0306,-0.003 0.0566,-0.004 z m -0.8164,0.1875 c -7.6e-4,0.0138 -0.006,0.0228 -0.008,0.0352 0.002,-0.003 0.002,-0.007 0.004,-0.01 v -0.002 c 0.002,-0.008 0.003,-0.0156 0.004,-0.0234 z m 0.88672,0.0957 c -0.007,0.003 -0.0121,0.0137 -0.0195,0.0156 0.009,0.0115 0.0141,0.0268 0.0254,0.0449 -0.002,-0.0225 -0.004,-0.038 -0.006,-0.0605 z m -0.26172,0.0234 c -0.0332,0.0125 0.18248,0.1106 0.28125,0.17969 -0.004,-0.0489 -0.007,-0.0836 -0.0117,-0.13281 -0.0679,-0.0136 -0.13514,-0.0273 -0.20313,-0.041 -0.0379,-0.008 -0.059,-0.009 -0.0664,-0.006 z" />
    </clipPath>
    <clipPath
       clipPathUnits="userSpaceOnUse"
       id="clipPath19042-3-0-0-2">
      <path
         id="path19044-6-48-9-5"
         style="fill:#ff0000;fill-opacity:1;fill-rule:nonzero;stroke:none"
         d="m 168.5,362.1582 v 62.37891 h 79.85352 V 362.1582 h -54.81641 c 0.009,0.0536 -0.0118,0.0854 -0.041,0.0977 0.10337,0.39395 0.20691,0.78791 0.31055,1.18164 0.51696,1.96423 0.28691,1.04909 0.71289,2.78711 0.0311,0.14646 0.0628,0.293 0.0937,0.43945 0.0906,0.42636 -0.26374,0.5641 -0.43555,0.28516 -0.1397,0.10545 -0.35995,0.0151 -0.40039,-0.30664 -0.0196,-0.15629 -0.0386,-0.31251 -0.0586,-0.46875 -0.0102,-0.0794 -0.0164,-0.14994 -0.0234,-0.21485 -0.0493,0.0206 -0.10279,0.0286 -0.1582,0.008 0.0398,0.16992 0.0945,0.40202 0.10547,0.45117 0.0424,0.19031 0.0811,0.38144 0.12109,0.57226 0.0125,0.072 0.0231,0.1448 0.0352,0.2168 0.077,0.45613 -0.33443,0.57037 -0.47461,0.21289 v -0.002 c -0.0397,-0.0139 -0.0813,-0.0243 -0.11719,-0.0625 -0.1233,0.21919 -0.43128,0.15696 -0.46484,-0.23242 -0.0378,-0.43778 -0.0968,-1.10988 -0.15235,-1.75196 -0.008,2.3e-4 -0.009,0.003 -0.0195,0.002 -0.0808,-0.004 -0.16134,-0.01 -0.24219,-0.0137 -0.0289,-0.0405 -0.0633,-0.0778 -0.0879,-0.1211 -0.0253,-0.0447 -0.0657,-0.1317 -0.10742,-0.22266 -0.0351,0.005 -0.0457,-0.0201 -0.0332,-0.0723 -0.0324,-0.0721 -0.0602,-0.13419 -0.0801,-0.18164 -10e-4,0.0324 3.5e-4,0.0641 -0.004,0.0957 0.0387,0.17296 0.0726,0.34269 -0.0352,0.41992 -0.0845,0.0604 -0.23857,0.0555 -0.3125,-0.0176 -0.0273,-0.0269 -0.0294,-0.0636 -0.0234,-0.10352 -2.6e-4,-0.002 2e-4,-0.004 0,-0.006 v -0.002 c -0.0831,0.11413 -0.25808,0.0663 -0.26758,-0.16211 -0.002,-0.0491 -0.01,-0.0994 -0.008,-0.14844 0.0226,-0.41631 0.0658,-0.63749 0.12695,-1.07227 0.16604,-1.29016 0.0697,-0.47929 0.17383,-1.46874 0.005,-0.0462 0.0107,-0.0924 0.0156,-0.13868 z m 23.39844,0.94336 c -0.0138,0.10497 -0.0399,0.30667 -0.084,0.64844 0.0225,-0.0147 0.0476,-0.0222 0.0723,-0.0215 0.004,-0.088 0.006,-0.11153 0.0195,-0.25586 0.006,-0.0655 0.008,-0.12117 0.0273,-0.14844 -0.0102,-0.0643 -0.0274,-0.17143 -0.0352,-0.22266 z m -0.18164,1.45899 c -0.009,0.0948 -0.0284,0.18411 -0.0352,0.30468 -0.002,0.0296 0.003,0.0586 0.006,0.0879 0.0149,-0.16471 0.0211,-0.1927 0.0234,-0.17187 8.2e-4,-0.038 0.004,-0.15004 0.006,-0.2207 z m 0.26172,0.0449 c 4.5e-4,0.01 -0.007,0.015 -0.006,0.0254 0.003,-0.005 0.005,-0.009 0.008,-0.0137 -5.6e-4,-0.004 -6e-4,-0.008 -0.002,-0.0117 z m 0.51757,0.21484 c -0.0208,9.1e-4 -0.0538,0.002 -0.0566,0.002 v 0.002 c 0.0216,-0.001 0.0306,-0.003 0.0566,-0.004 z m -0.8164,0.1875 c -7.6e-4,0.0138 -0.006,0.0228 -0.008,0.0352 0.002,-0.003 0.002,-0.007 0.004,-0.01 v -0.002 c 0.002,-0.008 0.003,-0.0156 0.004,-0.0234 z m 0.88672,0.0957 c -0.007,0.003 -0.0121,0.0137 -0.0195,0.0156 0.009,0.0115 0.0141,0.0268 0.0254,0.0449 -0.002,-0.0225 -0.004,-0.038 -0.006,-0.0605 z m -0.26172,0.0234 c -0.0332,0.0125 0.18248,0.1106 0.28125,0.17969 -0.004,-0.0489 -0.007,-0.0836 -0.0117,-0.13281 -0.0679,-0.0136 -0.13514,-0.0273 -0.20313,-0.041 -0.0379,-0.008 -0.059,-0.009 -0.0664,-0.006 z" />
    </clipPath>
    <clipPath
       clipPathUnits="userSpaceOnUse"
       id="clipPath76519">
      <path
         id="path76521"
         style="fill:#ff0000;fill-opacity:1;fill-rule:nonzero;stroke:none;stroke-width:0.0563096"
         d="m 44.168527,63.268761 c 0.04108,0.189927 0.07514,0.36875 0.08973,0.510828 0.07404,0.721169 0.08784,2.684918 0.01696,3.269709 -0.148254,1.223256 -0.406376,2.428821 -0.627897,3.63951 -0.183577,1.003308 -0.391578,2.00135 -0.587353,3.002052 l -0.216163,1.082874 c 0.259932,0.708591 0.203993,1.765824 0.213282,2.341693 -0.02095,1.0404 -0.01416,1.0634 -0.05409,1.97416 -0.0025,0.05693 0.0198,0.141583 0.02849,0.211655 0.565862,0.03812 0.780196,0.06173 0.0029,0.03628 0.0019,0.04931 -0.0086,0.08544 -0.05036,0.08695 -0.08253,0.003 -0.164961,0.0037 -0.247424,0.0035 0.0028,0.12806 0.0074,0.261997 0.0095,0.386352 0.01505,0.905167 0.01563,1.169318 -0.01302,1.532031 0.08952,0.08199 0.140294,0.147783 0.277406,0.303482 0.08309,0.102305 0.155813,0.214082 0.24561,0.310056 1.105067,1.181116 0.388639,2.37307 -0.621388,2.061226 -5.88e-4,0.234905 -0.0022,0.469877 -0.0084,0.704684 -8.54e-4,0.03213 -0.0022,0.06307 -0.0048,0.09319 -6.11e-4,0.0252 1.92e-4,0.05043 -7.46e-4,0.07561 -0.02816,0.754854 -0.07902,1.510214 -0.176046,2.258595 -0.09695,0.747798 -0.209868,1.446239 -0.336194,2.128338 0.04907,0.0632 0.0899,0.145103 0.116403,0.249972 0.104388,-0.223005 0.274068,-0.329397 0.438835,-0.321166 0.0033,1.74e-4 0.0063,0.001 0.0096,0.0011 0.111429,-0.140814 0.248164,-0.209098 0.378339,-0.204853 0.268331,0.0088 0.504428,0.313875 0.410987,0.866231 -0.06401,0.378369 -0.120124,0.761377 -0.243264,1.125387 -0.05312,0.157018 -0.110663,0.312409 -0.170391,0.466842 -0.280783,1.635047 -0.752739,3.212395 -1.315009,4.756168 0.05332,0.330794 0.149679,0.65742 0.155667,0.992861 0.0065,0.36418 0.0051,0.728394 -0.0016,1.092624 0.06214,0.05959 0.108466,0.164602 0.11427,0.317539 0.0034,0.09078 0.0086,0.181472 0.01035,0.272306 0.009,0.473634 0.01086,1.096839 -0.03372,1.537363 -0.04011,0.3962 -0.08873,0.76117 -0.145424,1.11405 0.0089,0.0343 0.01615,0.0712 0.01985,0.11382 0.01514,0.17418 0.02463,0.3485 0.02987,0.52296 0.0937,0.0448 0.170925,0.16942 0.170925,0.37626 0,0.15271 0.004,0.30546 0,0.45811 -0.009,0.34275 -0.0222,0.68537 -0.03894,1.02778 -0.03509,0.71784 -0.07122,1.34333 -0.195145,2.05635 -0.03115,0.17921 -0.06529,0.36034 -0.100506,0.54223 0.08066,0.0499 0.144849,0.16466 0.150333,0.34827 0.02142,0.71701 0.01951,0.52808 0.02294,1.43317 0.0014,0.35814 0.0065,0.71641 0,1.07449 -0.0052,0.28745 -0.01863,0.57473 -0.03521,0.86169 -0.0052,0.0902 -0.008,0.15256 -0.01046,0.19907 0.07536,0.0206 0.09543,0.0392 -0.003,0.0441 -0.0042,0.0597 -0.01044,0.0904 -0.02678,0.14024 0.01233,-0.009 0.02479,-0.0128 0.03628,-0.0127 0.04236,6e-4 0.07143,0.0566 0.03169,0.12992 -0.02847,0.0525 -0.06371,0.1169 -0.09368,0.17424 -0.0077,0.035 -0.01601,0.0698 -0.02475,0.10453 0.004,-10e-4 0.008,-0.002 0.01206,-0.002 0.03357,-9.5e-4 0.06494,0.0354 0.05666,0.10498 -0.0027,0.0225 -0.0019,0.0458 -0.008,0.0676 -0.02376,0.084 -0.05107,0.16166 -0.08045,0.23818 0.004,0.003 0.0071,0.007 0.0096,0.0128 0.01122,0.0102 0.01755,0.0304 0.01184,0.0596 -0.0078,0.04 -0.01602,0.0798 -0.02475,0.1196 0.0082,0.0324 0.01445,0.0649 0.01366,0.10645 -0.002,0.10232 -0.02398,0.22903 -0.05794,0.32559 -0.03352,0.0953 -0.08474,0.18403 -0.131874,0.27208 -0.0026,-0.0374 -0.0114,-0.008 -0.02209,0.0229 0.01487,0.014 0.01947,0.0226 -0.0033,0.0102 -0.0081,0.0229 -0.017,0.0435 -0.02497,0.0356 -0.0025,-0.003 -0.0046,-0.005 -0.0068,-0.008 v 16.63503 h 68.71416 V 63.268761 Z m -2.436262,16.098006 v 0.258815 c 0.0017,-0.01424 0.0034,-0.02848 0.0051,-0.04274 -0.0015,-0.07199 -0.003,-0.143973 -0.0046,-0.216076 -1.76e-4,-1.7e-5 -3.57e-4,1.8e-5 -5.33e-4,0 z m -0.03243,31.934813 v 4.7e-4 0.004 c 3.74e-4,-0.001 6.42e-4,-0.003 0.0012,-0.004 -3.85e-4,-1.8e-4 -6.26e-4,-2.9e-4 -0.0012,-4.7e-4 z m -0.130914,0.96656 v 8e-4 c -9.89e-4,0.003 -0.002,0.007 -0.003,0.0102 0.0015,-0.003 0.0027,-0.006 0.0042,-0.009 -4.85e-4,-6.4e-4 -6.92e-4,-0.001 -0.0012,-0.002 z m -0.09891,0.0235 c -4.79e-4,0.002 -0.0011,0.004 -0.0018,0.007 4.62e-4,-0.002 0.0011,-0.004 0.0018,-0.007 z m 0.04012,0.0101 v 7.9e-4 c 1.4e-4,-5e-5 2.87e-4,-1.1e-4 4.27e-4,-2.3e-4 -1.62e-4,-1.7e-4 -2.65e-4,-4e-4 -4.27e-4,-5.8e-4 z m 0,0.0391 v 0.0424 c 0.0061,-0.0112 0.01247,-0.0237 0.01878,-0.0354 -0.0045,0.002 -0.0097,-7.5e-4 -0.01878,-0.007 z" />
    </clipPath>
    <clipPath
       clipPathUnits="userSpaceOnUse"
       id="clipPath76529">
      <path
         id="path76531"
         style="fill:#ff0000;fill-opacity:1;fill-rule:nonzero;stroke:none;stroke-width:0.0563096"
         d="m 74.922569,79.76661 -32.177667,3.48e-4 c 2.62e-4,0.01531 2.3e-4,0.03214 0.0012,0.04739 0.01505,0.905069 0.01572,1.169266 -0.01291,1.531918 0.08949,0.08197 0.140219,0.147815 0.277299,0.303482 0.08309,0.102304 0.155814,0.214081 0.24561,0.310056 1.105052,1.181099 0.388616,2.37303 -0.621388,2.061225 -5.85e-4,0.234952 -0.0021,0.469953 -0.0083,0.704798 -8.53e-4,0.03213 -0.0022,0.06307 -0.0048,0.09319 -6.12e-4,0.02521 1.91e-4,0.05049 -7.47e-4,0.07561 -0.02816,0.754857 -0.07902,1.510215 -0.176046,2.258595 -0.09691,0.74751 -0.209173,1.44677 -0.335554,2.129019 0.0488,0.06311 0.08937,0.144843 0.115764,0.249292 0.104388,-0.223005 0.274066,-0.329397 0.438834,-0.321167 0.0033,1.75e-4 0.0062,0.001 0.0095,0.0011 0.111429,-0.140813 0.248164,-0.209096 0.378339,-0.204853 0.268331,0.0088 0.504428,0.313876 0.410987,0.866232 -0.06401,0.378368 -0.120018,0.761376 -0.243157,1.125386 -0.05293,0.156476 -0.110251,0.311345 -0.169751,0.465256 -0.280762,1.635824 -0.753026,3.213962 -1.315543,4.758434 0.05335,0.330555 0.14947,0.656976 0.155454,0.992182 0.0065,0.36418 0.0051,0.728394 -0.0016,1.092624 0.06214,0.05959 0.108464,0.164601 0.114269,0.317538 0.0034,0.09078 0.0086,0.181473 0.01035,0.272306 0.009,0.473635 0.01086,1.096944 -0.03372,1.537359 -0.04011,0.39624 -0.08873,0.76124 -0.145424,1.11417 0.0088,0.0342 0.01626,0.0712 0.01995,0.1137 0.01514,0.17418 0.02452,0.3485 0.02977,0.52296 0.0937,0.0448 0.170925,0.16942 0.170925,0.37626 0,0.15271 0.004,0.30547 0,0.45812 -0.009,0.34274 -0.0222,0.68535 -0.03894,1.02777 -0.03509,0.71784 -0.07122,1.34332 -0.195145,2.05635 -0.03118,0.17942 -0.06484,0.36052 -0.100079,0.54257 0.08045,0.05 0.144432,0.16467 0.149906,0.34793 0.02142,0.71703 0.01972,0.52809 0.02315,1.43317 0.0014,0.35815 0.0065,0.71641 0,1.07449 -0.0052,0.28745 -0.01884,0.57472 -0.03542,0.86169 -0.0052,0.0902 -0.008,0.15255 -0.01046,0.19907 0.07536,0.0206 0.09543,0.0394 -0.003,0.0443 -0.0042,0.0596 -0.0105,0.0903 -0.02678,0.14001 0.01233,-0.009 0.02479,-0.0128 0.03628,-0.0127 0.04236,6e-4 0.07143,0.0565 0.03169,0.12981 -0.02847,0.0525 -0.06371,0.1169 -0.09368,0.17424 -0.0077,0.035 -0.016,0.0699 -0.02475,0.10464 0.004,-0.001 0.008,-0.002 0.01206,-0.002 0.03357,-9.5e-4 0.06494,0.0354 0.05666,0.10498 -0.0027,0.0225 -0.0018,0.0458 -0.0079,0.0676 -0.02376,0.084 -0.05094,0.16197 -0.08034,0.23852 0.0038,0.003 0.0069,0.007 0.0093,0.0124 0.01129,0.0102 0.01768,0.0304 0.01195,0.0597 -0.0077,0.0394 -0.01583,0.0788 -0.02443,0.11801 0.0084,0.033 0.01415,0.0657 0.01334,0.10804 -0.002,0.10232 -0.02398,0.22892 -0.05794,0.32548 -0.03352,0.0953 -0.08474,0.18414 -0.131874,0.27219 -0.0026,-0.0374 -0.0114,-0.008 -0.02209,0.0229 0.01487,0.014 0.01937,0.0224 -0.0034,0.01 -0.0081,0.0229 -0.0171,0.0433 -0.02507,0.0354 -0.01952,-0.0193 -0.02867,-0.0476 -0.04204,-0.0722 h -1.06e-4 c -1.69e-4,0 -3.76e-4,-3e-5 -5.34e-4,0 -0.0017,0.003 -0.0031,0.005 -0.0048,0.008 0.0016,-0.003 0.0026,-0.007 0.0048,-0.008 1.16e-4,-1.7e-4 2.04e-4,-5.2e-4 3.2e-4,-6.8e-4 -7.74e-4,-10e-4 -0.0011,-0.003 -0.0019,-0.004 -0.01333,-0.023 -0.0036,-0.0228 0.01344,-0.0133 0.0042,-0.007 0.0084,-0.0131 0.01259,-0.0196 0.0096,-0.0179 0.02027,-0.0383 0.03062,-0.0572 -0.008,0.003 -0.01816,-0.006 -0.04897,-0.0311 h -1.06e-4 -1.07e-4 v -1.1e-4 c 0.0083,-0.002 0.01937,-0.009 0.0303,-0.0152 -0.0015,-0.002 -0.0027,-0.003 -0.0044,-0.005 -0.0017,-0.002 -0.002,-0.006 -0.0017,-0.01 -0.0034,-0.002 -0.0088,-0.005 -0.0112,-0.007 -0.0058,0.0116 -0.0128,0.0252 -0.01931,0.0321 0.0021,0.002 0.0043,0.003 0.0062,0.005 -0.005,0.002 -0.0089,9e-4 -0.0111,-10e-4 -1.22e-4,10e-6 -3.09e-4,1.2e-4 -4.27e-4,1.2e-4 -0.03402,-0.003 -0.04669,-0.0118 -0.04961,-0.0245 -3.67e-4,7.6e-4 -7.74e-4,0.002 -0.0013,0.002 v 13.19821 h 33.505053 z m -33.505693,30.90443 v 0.34293 c 0.0053,-0.0174 0.01031,-0.0336 0.01568,-0.0513 0.02433,-0.0809 0.04768,-0.1623 0.06946,-0.24408 -0.02839,-0.0158 -0.05675,-0.0317 -0.08514,-0.0475 z m 0.07682,0.52421 c -0.02497,0.0797 -0.05043,0.15893 -0.07661,0.23772 0.0078,-0.0182 0.03648,-0.0853 0.05698,-0.13331 0.0069,-0.0347 0.01358,-0.0695 0.01963,-0.10441 z m 0.20624,0.10633 v 4.7e-4 0.004 c 3.99e-4,-0.001 7.75e-4,-0.003 0.0013,-0.004 -4.2e-4,-1.8e-4 -7.47e-4,-2.3e-4 -0.0013,-4.7e-4 z m -0.282527,0.6895 v 0.008 c 9.52e-4,-0.002 0.0023,-0.005 0.0033,-0.007 -0.0012,-2.3e-4 -0.002,-2.9e-4 -0.0033,-5.8e-4 z m 0.151507,0.27786 c -0.0012,0.004 -0.0023,0.009 -0.0035,0.0122 0.0018,-0.003 0.0033,-0.007 0.005,-0.0103 -5.55e-4,-7.2e-4 -9.82e-4,-0.001 -0.0015,-0.002 z m -0.09891,0.0235 c -4.79e-4,0.002 -0.0011,0.004 -0.0018,0.007 4.62e-4,-0.002 0.0011,-0.004 0.0018,-0.007 z" />
    </clipPath>
  </defs>
  <g
     inkscape:label="Ebene 1"
     inkscape:groupmode="layer"
     id="layer1"
     transform="translate(198.92367,122.78187)">
    <g
       id="g21651"
       inkscape:export-filename="/home/friends/Bilder/minimalistisches logo.png"
       inkscape:export-xdpi="96"
       inkscape:export-ydpi="96"
       transform="matrix(0.26458333,0,0,0.26458333,-301.14615,-138.08143)">
      <g
         id="g20995"
         style="display:inline"
         transform="matrix(16.096667,0,0,16.096667,4498.5869,-4146.8158)">
        <g
           id="g20989"
           transform="translate(145.58852,59.189826)">
          <g
             id="g20955"
             transform="matrix(1.1613336,0,0,1.1613336,-50.305003,-9.5093995)"
             style="fill:#000000;fill-opacity:1">
            <g
               id="g8006"
               style="fill:#000000;fill-opacity:1"
               transform="matrix(1.0334505,0,0,1.0025842,10.188268,0.62336145)">
              <g
                 id="g12692"
                 transform="translate(1.3485474,-0.52053739)">
                <g
                   id="g2637"
                   transform="matrix(1.0307966,0,0,1,14.753586,0.80034525)"
                   style="fill:#000000;fill-opacity:1;stroke:#000000;stroke-opacity:1">
                  <g
                     id="g20949"
                     transform="matrix(0.91924758,0,0,0.91924758,-346.77746,122.68349)"
                     style="fill:#000000;fill-opacity:1;stroke:#000000;stroke-width:1.71953;stroke-miterlimit:4;stroke-dasharray:none;stroke-opacity:1">
                    <path
                       id="rect63579"
                       style="opacity:1;fill:#000000;fill-opacity:1;stroke:none;stroke-width:2.33456;stroke-linecap:round;stroke-miterlimit:4;stroke-dasharray:none;stroke-dashoffset:25.8444;stroke-opacity:1;paint-order:markers stroke fill"
                       d="m 41.508692,63.268791 v 65.874399 l 0.0058,-6.47446 c 0.0032,-3.56099 0.01308,-6.41906 0.02194,-6.35134 0.0666,0.50968 0.331121,1.30127 0.648093,1.93958 0.445238,0.8966 0.943629,1.58003 1.864413,2.55641 0.76642,0.81269 1.584053,1.58315 2.202409,2.07539 2.217324,1.76508 5.335956,2.69956 9.001636,2.69721 1.419617,-9.2e-4 2.57878,-0.16599 3.662481,-0.52159 1.654405,-0.5429 2.741712,-1.26552 3.866835,-2.57002 1.050202,-1.21763 1.784225,-2.44301 2.126801,-3.55029 0.123142,-0.39802 0.527319,-2.09512 0.752666,-3.16031 0.179363,-0.84783 0.158285,-0.78868 0.321704,-0.89808 0.535191,-0.35832 1.400141,-0.85194 2.820898,-1.6097 2.164477,-1.15441 3.482263,-1.91684 5.048012,-2.92054 l 0.633717,-0.40619 0.231508,-0.38669 c 0.212159,-0.35442 0.231347,-0.4055 0.22991,-0.6124 -0.0021,-0.30498 -0.132232,-0.6117 -0.35003,-0.82542 l -0.17379,-0.17073 0.130023,0.0247 c 0.07153,0.0136 0.563994,0.0453 1.094389,0.0703 1.519229,0.0719 3.654634,-0.0544 4.572112,-0.27049 1.084953,-0.25551 2.686919,-0.93968 3.581338,-1.52943 l 0.250675,-0.16528 0.214789,0.47886 c 0.633748,1.41286 1.521513,2.62015 2.599506,3.53487 1.024933,0.8697 2.319247,1.48977 3.681864,1.76387 0.243849,0.049 0.497805,0.10205 0.564286,0.11778 l 0.120865,0.0286 -0.525737,0.5191 c -0.623317,0.61555 -0.884148,0.85019 -1.449317,1.30326 -1.349941,1.08219 -3.093482,2.07162 -5.071334,2.8778 -2.427849,0.98959 -3.552103,1.24066 -7.80704,1.74369 -20.467167,14.74357 23.466117,11.25484 33.844016,10.69157 V 90.925845 c 0,15.211745 -0.009,27.657735 -0.0193,27.657735 -0.0106,0 -0.21331,-0.24162 -0.45045,-0.5369 v 6.8e-4 c -0.71165,-0.88617 -0.86043,-1.08911 -1.28681,-1.75582 -1.68555,-2.63555 -2.95284,-6.24281 -3.25761,-9.27245 l -0.0569,-0.56582 0.34737,-0.65309 c 1.61868,-3.04243 2.34315,-5.07241 2.82419,-7.91388 0.11224,-0.66292 0.12661,-0.926078 0.12524,-2.287274 -0.001,-1.444523 -0.0104,-1.582318 -0.14739,-2.263697 -0.3017,-1.500958 -0.89918,-3.04935 -1.7001,-4.405415 -0.0679,-0.114996 -0.4333,-0.862045 -0.81197,-1.660131 -2.08243,-4.388949 -3.61067,-6.96835 -5.66193,-9.556661 -0.741001,-0.935012 -2.141519,-2.46566 -2.962529,-3.237743 -5.16386,-4.856105 -11.705468,-7.6768 -19.791651,-8.53398 -2.093124,-0.221889 -2.786177,-0.253917 -5.752119,-0.266298 l -2.971463,-0.01247 -1.499369,-0.329559 c -0.824651,-0.181276 -1.977801,-0.443615 -2.562554,-0.582925 -0.584754,-0.139305 -1.45575,-0.335631 -1.935548,-0.436348 -0.759524,-0.159434 -2.278183,-0.525544 -2.544451,-0.613427 -0.07045,-0.0232 -0.08561,-1.34e-4 -0.06751,0.10294 0.01284,0.0731 0.0088,0.100363 -0.0091,0.06042 -0.05699,-0.12758 -0.141745,-0.07921 -0.100952,0.05759 0.03449,0.115686 0.02891,0.121351 -0.05079,0.0509 -0.0493,-0.0436 -0.08967,-0.127324 -0.08967,-0.186145 0,-0.130412 -0.130576,-0.209178 -0.627009,-0.378078 l -0.381657,-0.129803 25.720968,-0.005 22.291484,-0.0044 z m 0.193385,0.02902 h 7.087918 7.08792 v 0.809208 0.809207 l 0.277617,0.337152 c 0.650988,0.790558 1.17137,1.61224 1.960465,3.09535 1.318862,2.478818 1.381809,2.637828 1.230909,3.109298 -0.04707,0.147071 -0.224038,0.488906 -0.393265,0.759668 -0.242287,0.387649 -0.396139,0.560909 -0.723913,0.815099 -0.924569,0.717 -1.238575,0.987964 -1.69584,1.463445 -0.860274,0.894543 -1.525849,2.016745 -1.750469,2.951716 -0.217609,0.905804 -0.09968,1.973334 0.309563,2.802416 0.212732,0.430979 0.77183,1.088908 1.15413,1.358241 l 0.224692,0.158372 -0.185823,0.546538 c -0.391276,1.15073 -1.249366,3.205139 -2.494508,5.972021 -1.105702,2.457028 -1.300367,2.844933 -2.365657,4.71524 -3.84182,6.74501 -5.132447,9.152438 -6.718722,12.531968 -0.82982,1.7679 -1.373616,3.03536 -1.90147,4.43205 -0.70268,1.85926 -0.89185,2.47089 -0.995994,3.22141 -0.09342,0.67324 -0.09682,-0.14908 -0.102122,-24.59594 z"
                       clip-path="url(#clipPath76519)"
                       sodipodi:nodetypes="ccccsssscssscscccccccccscsscsccsscccsccccccscccsscsccccscscccscccccccccccssccssscccssssscc" />
                    <path
                       style="opacity:1;fill:#8ac49d;fill-opacity:1;stroke:#8ac49d;stroke-width:2.33681;stroke-linecap:butt;stroke-linejoin:miter;stroke-miterlimit:4;stroke-dasharray:none;stroke-opacity:1"
                       d="m 58.180194,81.705716 c 2.107369,-1.152223 1.382237,0.182334 -0.0063,0.735326 -0.483195,1.382722 -2.121539,4.932509 -3.961767,9.3314 -2.127133,4.188109 -7.678877,13.251098 -9.881724,20.452218 -0.136106,1.01831 -0.573287,2.78786 -0.424161,3.73143 0.03556,0.25188 0.09956,0.49862 0.188394,0.74109 0.499875,1.36369 1.785431,2.58208 2.98241,3.73254 1.761117,1.59648 4.418138,2.30648 6.856908,2.76404 2.591922,0.23569 5.145413,-0.14719 6.541872,-1.62933 v -1e-5 c 1.139045,-1.16503 2.040126,-2.31705 2.387476,-3.60141 0.335219,-1.26082 0.69355,-2.43347 0.948872,-3.54417 0.02196,-0.36492 0.21114,-0.7499 0.614595,-1.02414 v 0 c 1.985647,-1.17021 4.081229,-2.16428 5.549768,-2.84169 3.072377,-1.41951 4.339668,-1.98309 3.571451,-1.51879 -0.23664,0.14302 -2.366717,1.56002 -5.360145,3.12125 -1.238721,0.63541 -1.389703,0.68965 -3.268206,1.8737 v 1e-5 c 1.05073,-1.00629 -0.211453,0.16866 -0.236761,0.40426 -0.246486,1.25809 -0.511848,2.36615 -0.835303,3.72767 -0.394461,1.49404 -1.346732,2.80931 -2.531215,4.03839 v 0 c -1.795156,1.78614 -4.717278,2.34655 -7.56834,2.04382 -2.578171,-0.17156 -5.46526,-0.96793 -7.574354,-3.03968 -1.25664,-1.13528 -2.63506,-2.49232 -3.265445,-4.17267 -0.111845,-0.29801 -0.199898,-0.60532 -0.260186,-0.9227 -0.153675,-1.16448 0.0063,-2.29793 0.160891,-3.34172 2.374194,-7.62413 8.229418,-17.011814 10.585051,-21.300767 2.111394,-4.607601 4.068643,-8.917117 4.216357,-10.464583 0.680948,-0.345647 1.461087,0.700438 0.570098,0.704516 z"
                       id="path20937"
                       sodipodi:nodetypes="ccccccccccccsscscscccssccsccccc"
                       clip-path="url(#clipPath76529)" />
                    <path
                       style="opacity:0.939584;fill:#000000;fill-opacity:1;stroke:#8ac49d;stroke-width:2.33681;stroke-linecap:butt;stroke-linejoin:miter;stroke-miterlimit:4;stroke-dasharray:none;stroke-opacity:1"
                       d="m 70.485148,105.71499 c 0.05443,-0.30515 3.248149,0.0789 7.018567,-0.0537 0.672541,-0.0236 1.305352,-0.0681 1.914723,-0.13358 1.093821,-0.12057 1.936251,-0.35186 2.660488,-0.6254 1.127186,-0.4279 1.746105,-0.88219 1.746105,-0.88219 0.01778,0.10338 0.376835,0.57012 -0.97246,1.32189 -0.764819,0.42944 -2.095227,1.07671 -3.256562,1.24833 -0.648106,0.0975 -1.328704,0.16038 -2.041349,0.18586 -4.005501,0.14319 -7.123939,-0.75608 -7.069512,-1.06123 z"
                       id="path20939"
                       sodipodi:nodetypes="ccccsccccc" />
                    <path
                       style="opacity:1;fill:#77b08a;fill-opacity:1;stroke:#8ac49d;stroke-width:2.33681;stroke-linecap:butt;stroke-linejoin:miter;stroke-miterlimit:4;stroke-dasharray:none;stroke-opacity:1"
                       d="m 61.068015,71.449003 c 0.181178,0.02663 0.155243,0.694698 -0.454907,1.700314 -0.259924,0.445094 -0.658307,1.032693 -1.248431,1.564195 -0.739249,0.680543 -1.684514,1.617674 -2.089643,2.680549 -0.207479,0.583545 -0.304055,1.274768 0.02458,1.726347 0.232211,0.435353 0.822231,0.73883 1.503074,0.940595 0.04392,0.01293 0.08763,0.02541 0.131557,0.0374 1.120639,0.280935 2.382875,0.185704 3.526364,0.02276 2.276729,-0.357454 3.880092,-0.612141 5.66044,-0.369371 0,0 0,0 0,0 0.751004,0.09292 1.375309,0.344962 1.818926,0.706698 0.958985,0.83448 0.731244,1.558559 0.595018,1.583321 -0.136226,0.02475 -0.298178,-0.661676 -1.074395,-1.059395 -0.356323,-0.205168 -0.812045,-0.288167 -1.444407,-0.318344 0,0 0,0 0,0 -1.674549,-0.06043 -2.883345,0.281748 -5.282168,0.714334 -1.243725,0.240123 -2.717518,0.358956 -4.199102,0.01928 -0.06207,-0.01331 -0.124237,-0.0279 -0.186355,-0.04381 -0.965919,-0.247163 -1.85147,-0.791017 -2.37545,-1.615652 -0.527482,-0.975639 -0.40037,-1.99704 -0.0115,-2.786383 0.641732,-1.34923 1.77377,-2.315085 2.665335,-2.948717 0.530202,-0.372602 0.98903,-0.866115 1.319543,-1.231497 0.727589,-0.837436 0.978572,-1.343755 1.121685,-1.3227 z"
                       id="path20941"
                       sodipodi:nodetypes="cssc" />
                    <path
                       style="opacity:1;fill:#000000;fill-opacity:1;stroke:#8ac49d;stroke-width:2.33681;stroke-linecap:butt;stroke-linejoin:miter;stroke-miterlimit:4;stroke-dasharray:none;stroke-opacity:1"
                       d="m 62.43901,73.725729 c 0.952376,-1.245331 -0.198225,1.355275 0.355768,2.393764 0.144211,0.282449 0.436135,0.56723 0.800897,0.662377 0.396135,0.132335 0.877656,0.115938 1.467676,0.07675 0.45475,-0.03878 0.917499,-0.112093 1.416229,-0.203169 0.191976,-0.03508 0.386487,-0.07221 0.577789,-0.108755 0.750423,-0.144899 1.394942,-0.279267 2.109637,-0.383393 0.647876,-0.100093 1.264181,-0.156826 1.896825,-0.08325 0.269702,0.02851 0.544309,0.10159 0.799313,0.228742 0.261582,0.134485 0.450279,0.331372 0.561935,0.546535 0.517538,1.223441 -0.239626,1.711363 -0.395674,1.673662 -0.156044,-0.03768 0.147824,-0.858579 -0.354807,-1.321264 -0.05733,-0.06419 -0.148592,-0.117893 -0.249137,-0.146899 -0.11472,-0.03966 -0.262324,-0.04735 -0.449808,-0.05249 -0.472282,-0.0073 -0.93487,0.09364 -1.566725,0.219412 -0.63242,0.1325 -1.316903,0.300592 -2.059588,0.453657 -0.195484,0.04072 -0.396375,0.0807 -0.601078,0.117954 -0.528664,0.09621 -1.051598,0.168373 -1.582061,0.198649 -0.674726,0.04939 -1.36885,-0.0022 -2.019838,-0.24619 -0.721053,-0.295289 -1.351177,-0.588887 -1.508669,-1.107377 -0.398906,-0.815658 0.418671,-2.294688 0.453913,-2.370913 l 0.03085,-0.06614 z"
                       id="path20943"
                       sodipodi:nodetypes="ccccccccccccccccscccccc" />
                    <path
                       id="path20945"
                       style="opacity:1;fill:#000000;fill-opacity:1;stroke:#8ac49d;stroke-width:15.0046;stroke-linecap:butt;stroke-linejoin:miter;stroke-miterlimit:4;stroke-dasharray:none;stroke-opacity:1"
                       transform="matrix(0.1659267,0,0,0.14617666,27.713629,10.254762)"
                       d="m 168.5,362.1582 c 10.57167,10.04857 17.42331,24.8881 21.9707,35.12696 3.28497,6.44768 5.38439,11.43336 7.03711,15.90039 l 1.75977,5.67968 c -0.0427,0.68463 0.0108,1.48614 -0.3418,2.08985 -0.56015,0.95905 -0.64,2.09086 -0.86719,2.55469 -1.36487,2.78649 2.35203,-0.98519 2.47071,-0.95118 0,0.10126 0.52644,-1.83541 0.66462,-4.49695 0.0213,-0.40932 0.42678,2.28096 0.42678,1.77828 -0.002,-0.5929 0.16891,-2.1187 0.12523,-3.6769 -0.0853,-3.04382 -0.45568,-6.85304 -0.79447,-8.56902 -0.93455,-4.75265 -1.76693,-5.77613 -4.61307,-12.58423 -4.17613,-8.68114 -7.7645,-21.25007 -22.55713,-28.82618 0.31061,0.22087 0.64795,0.39722 0.93359,0.66016 13.02936,11.9936 11.59715,11.76845 19.19824,13.6633 8.45582,1.86695 36.35078,6.95483 41.99708,7.47928 7.72887,0.72049 12.40333,0.37741 12.44336,-0.32422 0.04,-0.70163 -4.27122,-1.64787 -11.82422,-3.44141 -5.44231,-1.30042 -12.46856,-2.99089 -20.60938,-5.33008 -11.67054,-2.72339 -27.79353,-6.45807 -41.24414,-13.27343 -2.1403,-1.08448 -4.19917,-2.23428 -6.17578,-3.45899 z"
                       clip-path="url(#clipPath19042)"
                       sodipodi:nodetypes="scccsscccscccsccsccsss" />
                    <path
                       style="opacity:0.939584;fill:#000000;fill-opacity:1;stroke:#8ac49d;stroke-width:2.33681;stroke-linecap:butt;stroke-linejoin:miter;stroke-miterlimit:4;stroke-dasharray:none;stroke-opacity:1"
                       d="m 59.996422,69.437251 c 0.139453,-0.09135 0.944951,0.588097 1.1323,1.520261 l 0.04026,0.164451 -0.08711,0.944071 c -0.03399,0.369094 -0.280316,0.283206 -0.425677,0.673548 -0.04078,0.108889 0.267767,-0.412811 0.215113,-0.312968 v 0 c -0.327062,0.61839 -0.922572,1.198188 -1.174548,1.455538 -0.310016,0.316615 -0.507352,0.527414 -0.6033,0.493386 -0.09998,-0.03547 -0.07859,-0.323587 0.133543,-0.750879 0.208578,-0.420099 0.629393,-0.929457 0.892611,-1.490886 v 0 c 0.03817,-0.08079 0.07341,-0.163849 0.105047,-0.248461 0.113517,-0.303642 0.164603,-0.58971 0.150799,-0.85658 v 0 c -0.01987,-0.857237 -0.518489,-1.500134 -0.379037,-1.591481 z"
                       id="path20947"
                       sodipodi:nodetypes="cccsssssssssssscc" />
                    <path
                       style="fill:#000000;fill-opacity:1;stroke:none;stroke-width:0.0563096px;stroke-linecap:butt;stroke-linejoin:miter;stroke-opacity:1"
                       d="m 86.139463,96.461656 c -0.02012,-2.978949 0.06776,-5.882847 1.831784,-7.622122"
                       id="path65896"
                       sodipodi:nodetypes="cc" />
                    <g
                       id="g80970"
                       transform="translate(-0.34131041)">
                      <path
                         style="opacity:1;fill:#000000;fill-opacity:1;stroke:#8ac49d;stroke-width:2.34106;stroke-linecap:butt;stroke-linejoin:miter;stroke-miterlimit:4;stroke-dasharray:none;stroke-opacity:1"
                         d="m 91.268713,120.16521 c 0.102977,-0.15428 0.971701,0.0918 2.46335,0.19296 0.948069,0.0548 2.010471,0.0609 3.261431,-0.0368 0,0 0,0 0,0 0.188485,-0.0166 0.380042,-0.0351 0.573329,-0.0556 1.845258,-0.19603 3.143967,-0.50945 4.241387,-0.93992 1.00742,-0.39519 1.58625,-0.77917 1.71112,-0.67141 0.11216,0.0968 -0.24702,0.70645 -1.26783,1.3466 -1.06044,0.665 -2.588913,1.19827 -4.540464,1.3826 -0.208699,0.0197 -0.414619,0.0347 -0.616909,0.0456 0,0 0,0 0,0 -1.334737,0.0847 -2.519351,-0.008 -3.505426,-0.19915 -1.607682,-0.29892 -2.443977,-0.87904 -2.319988,-1.0648 z"
                         id="path20933"
                         sodipodi:nodetypes="cc" />
                      <g
                         id="g80881">
                        <path
                           style="opacity:1;fill:#8ac49d;fill-opacity:1;stroke:#8ac49d;stroke-width:2.34106;stroke-linecap:butt;stroke-linejoin:miter;stroke-miterlimit:4;stroke-dasharray:none;stroke-opacity:1"
                           d="m 87.408015,87.745251 c -0.271491,-0.267402 1.636857,-3.262032 7.007232,-4.123443 2.075192,-0.304084 4.527516,0.03834 6.685373,1.312273 1.24516,0.745703 2.33489,1.704055 3.25191,2.828611 0.74096,0.908642 1.32748,1.874636 1.78214,2.832955 v 0 c 1.84629,3.791205 1.10264,6.947537 0.4856,9.413963 -0.60869,2.43304 -2.33954,5.41442 -2.76679,6.25007 -0.11882,0.23236 1.05449,10.64602 -0.44475,0.84604 -0.35224,-2.30242 2.30684,-12.333222 0.59569,-15.686902 v 0 c -0.43731,-0.833197 -0.96005,-1.669522 -1.58162,-2.443014 -0.77057,-0.95891 -1.64392,-1.760425 -2.630207,-2.368929 -1.614471,-1.01539 -3.501521,-1.397966 -5.122064,-1.273922 -4.394753,0.269258 -6.991024,2.679699 -7.262514,2.412298 z"
                           id="path20927"
                           sodipodi:nodetypes="csscssssssssccc" />
                        <path
                           style="opacity:1;fill:#000000;fill-opacity:1;fill-rule:nonzero;stroke:#8ac49d;stroke-width:2.34106;stroke-linecap:butt;stroke-linejoin:miter;stroke-miterlimit:4;stroke-dasharray:none;stroke-opacity:1"
                           d="m 105.59963,101.30631 c -0.37903,0.27971 -0.81877,0.6984 -1.20536,1.37566 -0.29464,0.51618 -0.54314,1.15626 -0.71505,1.94381 -0.30305,1.38829 -0.33435,3.08742 -0.0927,4.96346 0.24002,1.8636 0.72426,3.70684 1.31109,5.2971 0.33445,0.90633 0.69097,1.7013 1.0426,2.37532 0.46232,0.88619 0.89965,1.53236 1.26133,1.97962 0,0 0.66129,-0.41501 0.66129,-0.41501 0,0 0.66128,-0.41503 0.66128,-0.41503 -0.31329,-0.38742 -0.73996,-0.94544 -1.23279,-1.74403 -0.37517,-0.60796 -0.77453,-1.3329 -1.17046,-2.17696 -0.69557,-1.48286 -1.32575,-3.22068 -1.73209,-5.0111 -0.40747,-1.79545 -0.54494,-3.44797 -0.39229,-4.81264 0.0867,-0.7751 0.26212,-1.41804 0.50136,-1.94336 0.31472,-0.69101 0.72054,-1.13547 1.1018,-1.41684 z"
                           id="path20931"
                           sodipodi:nodetypes="cc" />
                        <path
                           id="path20935"
                           style="opacity:1;fill:#000000;fill-opacity:1;stroke:#8ac49d;stroke-width:41.5748;stroke-linecap:butt;stroke-linejoin:miter;stroke-miterlimit:4;stroke-dasharray:none;stroke-opacity:1"
                           d="M 922.3457 853.69727 C 920.16248 853.83509 908.30541 868.6023 881.61719 888.35938 C 852.26229 910.09083 811.00151 932.34922 747.57422 952.58008 C 696.461 966.32511 651.94224 968.20457 586.13281 976.53711 C 561.50723 983.34562 535.85943 993.77248 515.32422 1010.6426 C 511.8316 1013.642 508.58494 1016.8202 505.58398 1020.1504 L 535.88477 1020.1504 C 551.31608 1008.2023 571.40475 1000.1788 591.44336 994.15625 C 654.81019 985.63816 701.66918 982.42613 753.99805 967.00391 C 818.47734 944.95769 861.13234 918.93469 888.87695 894.63086 C 915.27412 871.50717 924.14261 854.58161 922.52734 853.73242 C 922.47975 853.69796 922.41343 853.69727 922.3457 853.69727 z "
                           transform="matrix(0.05462757,0,0,0.05804351,41.758186,63.193826)" />
                        <path
                           style="opacity:1;fill:#000000;fill-opacity:1;stroke:#8ac49d;stroke-width:2.34106;stroke-linecap:butt;stroke-linejoin:miter;stroke-miterlimit:4;stroke-dasharray:none;stroke-opacity:1"
                           d="m 84.903933,96.616708 c 0.293756,0.0232 -0.236136,3.371201 1.187964,7.580542 0,0 0,1e-5 0,1e-5 0.443847,1.28309 1.126581,2.70903 2.243923,3.76392 0.222759,0.21044 0.459432,0.40299 0.711031,0.57637 1.344761,0.9684 3.148249,1.22567 4.635102,1.06465 1.984435,-0.20712 3.766037,-1.03508 4.826729,-1.5535 1.137302,-0.55604 1.791788,-0.91285 1.876178,-0.82101 0.0847,0.0913 -0.405179,0.62347 -1.466882,1.36104 -1.003737,0.69715 -2.770479,1.71733 -5.046956,2.09123 -1.764689,0.28191 -3.934054,0.0251 -5.6929,-1.17973 -0.30522,-0.21661 -0.59123,-0.45238 -0.858378,-0.70568 -1.348584,-1.2786 -2.08872,-2.87764 -2.482739,-4.29501 0,0 0,0 0,0 -1.306631,-4.590386 -0.226829,-7.905985 0.06697,-7.882832 z"
                           id="path20929"
                           sodipodi:nodetypes="cc" />
                        <path
                           style="opacity:1;fill:#ffffff;fill-opacity:1;stroke:none;stroke-width:41.4992;stroke-linecap:round;stroke-miterlimit:4;stroke-dasharray:none;stroke-dashoffset:25.8444;stroke-opacity:1;paint-order:markers stroke fill"
                           d="m 529.53555,1132.25 c 0.44708,-28.2875 2.11486,-58.06 3.51509,-62.75 7.04529,-23.5981 24.7069,-38.9849 59.21994,-51.5925 8.14624,-2.9758 13.17944,-3.8759 41.49999,-7.4214 94.56921,-11.83927 122.12422,-17.92518 169.8313,-37.5096 57.17287,-23.47027 105.30209,-56.19119 133.08197,-90.47652 13.03162,-16.08334 16.74275,-27.83674 11.83126,-37.47034 -1.09168,-2.14128 -1.82849,-4.04962 -1.63735,-4.24076 0.19114,-0.19114 4.34684,-0.80038 9.23488,-1.35385 43.33555,-4.90693 89.78567,-24.2563 125.95947,-52.46995 12.7751,-9.96393 17.5485,-16.41825 18.9235,-25.58714 0.5882,-3.92249 0.2443,-5.45017 -2.4107,-10.70966 -2.5327,-5.01727 -4.0284,-6.66666 -8.2121,-9.05607 -10.8277,-6.18401 -16.2073,-5.20523 -45.8728,8.34633 -30.8266,14.08195 -44.72289,19.3733 -63.31788,24.10988 -41.93377,10.68149 -77.40164,5.53347 -103.37472,-15.00443 -17.97276,-14.21173 -31.20777,-35.70865 -41.83658,-67.95288 -9.35517,-28.38044 -13.78173,-54.86349 -15.5208,-92.85733 -2.35904,-51.53846 -0.0752,-87.0178 7.22598,-112.25379 4.40355,-15.22058 11.81533,-28.95642 20.91098,-38.75314 3.7443,-4.03289 7.89826,-6.45738 27.41333,-16 12.65018,-6.18577 27.72271,-12.9756 33.49451,-15.0885 13.53181,-4.95364 33.53288,-10.06297 48.04081,-12.27217 15.49568,-2.35962 40.36493,-2.38005 52.46437,-0.0431 45.173,8.72494 81.3211,35.57178 110.0011,81.69679 7.4482,11.97866 10.0238,18.31615 11.9952,29.51465 5.0057,28.43447 2.5599,65.25307 -9.9941,150.44547 -9.8326,66.72491 -10.0314,68.97455 -8.6619,98 1.6354,34.65934 4.9287,57.10662 12.719,86.69156 10.4649,39.74256 28.0271,81.01311 45.7984,107.62438 7.609,11.39405 26.2537,34.68405 27.7662,34.68405 0.5537,0 45.9883,-26.60697 56.6261,-33.16081 l 3.25,-2.0023 V 1045.9184 1134.5 H 894.49998 529.49999 Z M 1042.359,1022.0226 c 46.0191,-5.8661 84.2969,-21.4679 104.7084,-42.67849 8.8521,-9.1986 11.7429,-14.92823 11.6278,-23.04601 -0.073,-5.17046 -0.5781,-6.70772 -3.6836,-11.21676 -5.702,-8.27896 -15.1907,-11.88822 -25.4627,-9.68528 -2.8551,0.61232 -10.8966,3.53578 -17.87,6.49657 -26.2789,11.15762 -44.9454,15.88542 -79.6789,20.1809 -20.3811,2.52051 -66.40059,3.03055 -85.00002,0.94206 -22.21718,-2.49472 -34.75309,-2.98465 -39.85055,-1.55745 -3.06425,0.85793 -6.21931,3.03627 -10.63097,7.3399 l -6.27352,6.11988 0.56692,6.7622 c 0.31181,3.71921 1.36467,8.44332 2.3397,10.49804 7.45898,15.71864 38.7443,27.20194 86.34842,31.69434 9.39819,0.8869 50.99182,-0.3371 62.85902,-1.8499 z"
                           id="path67277"
                           transform="matrix(0.05462757,0,0,0.05804351,41.416022,63.193826)" />
                      </g>
                    </g>
                  </g>
                </g>
              </g>
            </g>
          </g>
        </g>
      </g>
    </g>
  </g>
</svg>
