<?xml version="1.0" encoding="UTF-8" standalone="no"?>
<!-- Created with Inkscape (http://www.inkscape.org/) -->

<svg
   width="403.04813mm"
   height="283.80127mm"
   viewBox="0 0 403.04813 283.80127"
   version="1.1"
   id="svg5"
   inkscape:version="1.1.1 (3bf5ae0d25, 2021-09-20)"
   sodipodi:docname="Icon1.svg"
   xmlns:inkscape="http://www.inkscape.org/namespaces/inkscape"
   xmlns:sodipodi="http://sodipodi.sourceforge.net/DTD/sodipodi-0.dtd"
   xmlns="http://www.w3.org/2000/svg"
   xmlns:svg="http://www.w3.org/2000/svg">
  <sodipodi:namedview
     id="namedview7"
     pagecolor="#ffffff"
     bordercolor="#666666"
     borderopacity="1.0"
     inkscape:pageshadow="2"
     inkscape:pageopacity="0.0"
     inkscape:pagecheckerboard="0"
     inkscape:document-units="mm"
     showgrid="false"
     inkscape:snap-global="false"
     inkscape:snap-bbox="true"
     inkscape:snap-bbox-edge-midpoints="true"
     inkscape:bbox-nodes="true"
     inkscape:bbox-paths="true"
     inkscape:snap-bbox-midpoints="true"
     inkscape:snap-page="true"
     inkscape:snap-text-baseline="true"
     inkscape:snap-center="true"
     inkscape:snap-object-midpoints="true"
     inkscape:snap-midpoints="true"
     inkscape:snap-smooth-nodes="true"
     inkscape:object-paths="true"
     inkscape:snap-intersection-paths="true"
     fit-margin-top="0"
     fit-margin-left="0"
     fit-margin-right="0"
     fit-margin-bottom="0"
     inkscape:zoom="0.38885732"
     inkscape:cx="1699.8523"
     inkscape:cy="483.46781"
     inkscape:window-width="2560"
     inkscape:window-height="1371"
     inkscape:window-x="0"
     inkscape:window-y="0"
     inkscape:window-maximized="1"
     inkscape:current-layer="g13910" />
  <defs
     id="defs2">
    <clipPath
       clipPathUnits="userSpaceOnUse"
       id="clipPath19042-3-0-0">
      <path
         id="path19044-6-48-9"
         style="fill:#ff0000;fill-opacity:1;fill-rule:nonzero;stroke:none"
         d="m 168.5,362.1582 v 62.37891 h 79.85352 V 362.1582 h -54.81641 c 0.009,0.0536 -0.0118,0.0854 -0.041,0.0977 0.10337,0.39395 0.20691,0.78791 0.31055,1.18164 0.51696,1.96423 0.28691,1.04909 0.71289,2.78711 0.0311,0.14646 0.0628,0.293 0.0937,0.43945 0.0906,0.42636 -0.26374,0.5641 -0.43555,0.28516 -0.1397,0.10545 -0.35995,0.0151 -0.40039,-0.30664 -0.0196,-0.15629 -0.0386,-0.31251 -0.0586,-0.46875 -0.0102,-0.0794 -0.0164,-0.14994 -0.0234,-0.21485 -0.0493,0.0206 -0.10279,0.0286 -0.1582,0.008 0.0398,0.16992 0.0945,0.40202 0.10547,0.45117 0.0424,0.19031 0.0811,0.38144 0.12109,0.57226 0.0125,0.072 0.0231,0.1448 0.0352,0.2168 0.077,0.45613 -0.33443,0.57037 -0.47461,0.21289 v -0.002 c -0.0397,-0.0139 -0.0813,-0.0243 -0.11719,-0.0625 -0.1233,0.21919 -0.43128,0.15696 -0.46484,-0.23242 -0.0378,-0.43778 -0.0968,-1.10988 -0.15235,-1.75196 -0.008,2.3e-4 -0.009,0.003 -0.0195,0.002 -0.0808,-0.004 -0.16134,-0.01 -0.24219,-0.0137 -0.0289,-0.0405 -0.0633,-0.0778 -0.0879,-0.1211 -0.0253,-0.0447 -0.0657,-0.1317 -0.10742,-0.22266 -0.0351,0.005 -0.0457,-0.0201 -0.0332,-0.0723 -0.0324,-0.0721 -0.0602,-0.13419 -0.0801,-0.18164 -10e-4,0.0324 3.5e-4,0.0641 -0.004,0.0957 0.0387,0.17296 0.0726,0.34269 -0.0352,0.41992 -0.0845,0.0604 -0.23857,0.0555 -0.3125,-0.0176 -0.0273,-0.0269 -0.0294,-0.0636 -0.0234,-0.10352 -2.6e-4,-0.002 2e-4,-0.004 0,-0.006 v -0.002 c -0.0831,0.11413 -0.25808,0.0663 -0.26758,-0.16211 -0.002,-0.0491 -0.01,-0.0994 -0.008,-0.14844 0.0226,-0.41631 0.0658,-0.63749 0.12695,-1.07227 0.16604,-1.29016 0.0697,-0.47929 0.17383,-1.46874 0.005,-0.0462 0.0107,-0.0924 0.0156,-0.13868 z m 23.39844,0.94336 c -0.0138,0.10497 -0.0399,0.30667 -0.084,0.64844 0.0225,-0.0147 0.0476,-0.0222 0.0723,-0.0215 0.004,-0.088 0.006,-0.11153 0.0195,-0.25586 0.006,-0.0655 0.008,-0.12117 0.0273,-0.14844 -0.0102,-0.0643 -0.0274,-0.17143 -0.0352,-0.22266 z m -0.18164,1.45899 c -0.009,0.0948 -0.0284,0.18411 -0.0352,0.30468 -0.002,0.0296 0.003,0.0586 0.006,0.0879 0.0149,-0.16471 0.0211,-0.1927 0.0234,-0.17187 8.2e-4,-0.038 0.004,-0.15004 0.006,-0.2207 z m 0.26172,0.0449 c 4.5e-4,0.01 -0.007,0.015 -0.006,0.0254 0.003,-0.005 0.005,-0.009 0.008,-0.0137 -5.6e-4,-0.004 -6e-4,-0.008 -0.002,-0.0117 z m 0.51757,0.21484 c -0.0208,9.1e-4 -0.0538,0.002 -0.0566,0.002 v 0.002 c 0.0216,-0.001 0.0306,-0.003 0.0566,-0.004 z m -0.8164,0.1875 c -7.6e-4,0.0138 -0.006,0.0228 -0.008,0.0352 0.002,-0.003 0.002,-0.007 0.004,-0.01 v -0.002 c 0.002,-0.008 0.003,-0.0156 0.004,-0.0234 z m 0.88672,0.0957 c -0.007,0.003 -0.0121,0.0137 -0.0195,0.0156 0.009,0.0115 0.0141,0.0268 0.0254,0.0449 -0.002,-0.0225 -0.004,-0.038 -0.006,-0.0605 z m -0.26172,0.0234 c -0.0332,0.0125 0.18248,0.1106 0.28125,0.17969 -0.004,-0.0489 -0.007,-0.0836 -0.0117,-0.13281 -0.0679,-0.0136 -0.13514,-0.0273 -0.20313,-0.041 -0.0379,-0.008 -0.059,-0.009 -0.0664,-0.006 z" />
    </clipPath>
    <clipPath
       clipPathUnits="userSpaceOnUse"
       id="clipPath76519">
      <path
         id="path76521"
         style="fill:#ff0000;fill-opacity:1;fill-rule:nonzero;stroke:none;stroke-width:0.0563096"
         d="m 44.168527,63.268761 c 0.04108,0.189927 0.07514,0.36875 0.08973,0.510828 0.07404,0.721169 0.08784,2.684918 0.01696,3.269709 -0.148254,1.223256 -0.406376,2.428821 -0.627897,3.63951 -0.183577,1.003308 -0.391578,2.00135 -0.587353,3.002052 l -0.216163,1.082874 c 0.259932,0.708591 0.203993,1.765824 0.213282,2.341693 -0.02095,1.0404 -0.01416,1.0634 -0.05409,1.97416 -0.0025,0.05693 0.0198,0.141583 0.02849,0.211655 0.565862,0.03812 0.780196,0.06173 0.0029,0.03628 0.0019,0.04931 -0.0086,0.08544 -0.05036,0.08695 -0.08253,0.003 -0.164961,0.0037 -0.247424,0.0035 0.0028,0.12806 0.0074,0.261997 0.0095,0.386352 0.01505,0.905167 0.01563,1.169318 -0.01302,1.532031 0.08952,0.08199 0.140294,0.147783 0.277406,0.303482 0.08309,0.102305 0.155813,0.214082 0.24561,0.310056 1.105067,1.181116 0.388639,2.37307 -0.621388,2.061226 -5.88e-4,0.234905 -0.0022,0.469877 -0.0084,0.704684 -8.54e-4,0.03213 -0.0022,0.06307 -0.0048,0.09319 -6.11e-4,0.0252 1.92e-4,0.05043 -7.46e-4,0.07561 -0.02816,0.754854 -0.07902,1.510214 -0.176046,2.258595 -0.09695,0.747798 -0.209868,1.446239 -0.336194,2.128338 0.04907,0.0632 0.0899,0.145103 0.116403,0.249972 0.104388,-0.223005 0.274068,-0.329397 0.438835,-0.321166 0.0033,1.74e-4 0.0063,0.001 0.0096,0.0011 0.111429,-0.140814 0.248164,-0.209098 0.378339,-0.204853 0.268331,0.0088 0.504428,0.313875 0.410987,0.866231 -0.06401,0.378369 -0.120124,0.761377 -0.243264,1.125387 -0.05312,0.157018 -0.110663,0.312409 -0.170391,0.466842 -0.280783,1.635047 -0.752739,3.212395 -1.315009,4.756168 0.05332,0.330794 0.149679,0.65742 0.155667,0.992861 0.0065,0.36418 0.0051,0.728394 -0.0016,1.092624 0.06214,0.05959 0.108466,0.164602 0.11427,0.317539 0.0034,0.09078 0.0086,0.181472 0.01035,0.272306 0.009,0.473634 0.01086,1.096839 -0.03372,1.537363 -0.04011,0.3962 -0.08873,0.76117 -0.145424,1.11405 0.0089,0.0343 0.01615,0.0712 0.01985,0.11382 0.01514,0.17418 0.02463,0.3485 0.02987,0.52296 0.0937,0.0448 0.170925,0.16942 0.170925,0.37626 0,0.15271 0.004,0.30546 0,0.45811 -0.009,0.34275 -0.0222,0.68537 -0.03894,1.02778 -0.03509,0.71784 -0.07122,1.34333 -0.195145,2.05635 -0.03115,0.17921 -0.06529,0.36034 -0.100506,0.54223 0.08066,0.0499 0.144849,0.16466 0.150333,0.34827 0.02142,0.71701 0.01951,0.52808 0.02294,1.43317 0.0014,0.35814 0.0065,0.71641 0,1.07449 -0.0052,0.28745 -0.01863,0.57473 -0.03521,0.86169 -0.0052,0.0902 -0.008,0.15256 -0.01046,0.19907 0.07536,0.0206 0.09543,0.0392 -0.003,0.0441 -0.0042,0.0597 -0.01044,0.0904 -0.02678,0.14024 0.01233,-0.009 0.02479,-0.0128 0.03628,-0.0127 0.04236,6e-4 0.07143,0.0566 0.03169,0.12992 -0.02847,0.0525 -0.06371,0.1169 -0.09368,0.17424 -0.0077,0.035 -0.01601,0.0698 -0.02475,0.10453 0.004,-10e-4 0.008,-0.002 0.01206,-0.002 0.03357,-9.5e-4 0.06494,0.0354 0.05666,0.10498 -0.0027,0.0225 -0.0019,0.0458 -0.008,0.0676 -0.02376,0.084 -0.05107,0.16166 -0.08045,0.23818 0.004,0.003 0.0071,0.007 0.0096,0.0128 0.01122,0.0102 0.01755,0.0304 0.01184,0.0596 -0.0078,0.04 -0.01602,0.0798 -0.02475,0.1196 0.0082,0.0324 0.01445,0.0649 0.01366,0.10645 -0.002,0.10232 -0.02398,0.22903 -0.05794,0.32559 -0.03352,0.0953 -0.08474,0.18403 -0.131874,0.27208 -0.0026,-0.0374 -0.0114,-0.008 -0.02209,0.0229 0.01487,0.014 0.01947,0.0226 -0.0033,0.0102 -0.0081,0.0229 -0.017,0.0435 -0.02497,0.0356 -0.0025,-0.003 -0.0046,-0.005 -0.0068,-0.008 v 16.63503 h 68.71416 V 63.268761 Z m -2.436262,16.098006 v 0.258815 c 0.0017,-0.01424 0.0034,-0.02848 0.0051,-0.04274 -0.0015,-0.07199 -0.003,-0.143973 -0.0046,-0.216076 -1.76e-4,-1.7e-5 -3.57e-4,1.8e-5 -5.33e-4,0 z m -0.03243,31.934813 v 4.7e-4 0.004 c 3.74e-4,-0.001 6.42e-4,-0.003 0.0012,-0.004 -3.85e-4,-1.8e-4 -6.26e-4,-2.9e-4 -0.0012,-4.7e-4 z m -0.130914,0.96656 v 8e-4 c -9.89e-4,0.003 -0.002,0.007 -0.003,0.0102 0.0015,-0.003 0.0027,-0.006 0.0042,-0.009 -4.85e-4,-6.4e-4 -6.92e-4,-0.001 -0.0012,-0.002 z m -0.09891,0.0235 c -4.79e-4,0.002 -0.0011,0.004 -0.0018,0.007 4.62e-4,-0.002 0.0011,-0.004 0.0018,-0.007 z m 0.04012,0.0101 v 7.9e-4 c 1.4e-4,-5e-5 2.87e-4,-1.1e-4 4.27e-4,-2.3e-4 -1.62e-4,-1.7e-4 -2.65e-4,-4e-4 -4.27e-4,-5.8e-4 z m 0,0.0391 v 0.0424 c 0.0061,-0.0112 0.01247,-0.0237 0.01878,-0.0354 -0.0045,0.002 -0.0097,-7.5e-4 -0.01878,-0.007 z" />
    </clipPath>
    <clipPath
       clipPathUnits="userSpaceOnUse"
       id="clipPath76529">
      <path
         id="path76531"
         style="fill:#ff0000;fill-opacity:1;fill-rule:nonzero;stroke:none;stroke-width:0.0563096"
         d="m 74.922569,79.76661 -32.177667,3.48e-4 c 2.62e-4,0.01531 2.3e-4,0.03214 0.0012,0.04739 0.01505,0.905069 0.01572,1.169266 -0.01291,1.531918 0.08949,0.08197 0.140219,0.147815 0.277299,0.303482 0.08309,0.102304 0.155814,0.214081 0.24561,0.310056 1.105052,1.181099 0.388616,2.37303 -0.621388,2.061225 -5.85e-4,0.234952 -0.0021,0.469953 -0.0083,0.704798 -8.53e-4,0.03213 -0.0022,0.06307 -0.0048,0.09319 -6.12e-4,0.02521 1.91e-4,0.05049 -7.47e-4,0.07561 -0.02816,0.754857 -0.07902,1.510215 -0.176046,2.258595 -0.09691,0.74751 -0.209173,1.44677 -0.335554,2.129019 0.0488,0.06311 0.08937,0.144843 0.115764,0.249292 0.104388,-0.223005 0.274066,-0.329397 0.438834,-0.321167 0.0033,1.75e-4 0.0062,0.001 0.0095,0.0011 0.111429,-0.140813 0.248164,-0.209096 0.378339,-0.204853 0.268331,0.0088 0.504428,0.313876 0.410987,0.866232 -0.06401,0.378368 -0.120018,0.761376 -0.243157,1.125386 -0.05293,0.156476 -0.110251,0.311345 -0.169751,0.465256 -0.280762,1.635824 -0.753026,3.213962 -1.315543,4.758434 0.05335,0.330555 0.14947,0.656976 0.155454,0.992182 0.0065,0.36418 0.0051,0.728394 -0.0016,1.092624 0.06214,0.05959 0.108464,0.164601 0.114269,0.317538 0.0034,0.09078 0.0086,0.181473 0.01035,0.272306 0.009,0.473635 0.01086,1.096944 -0.03372,1.537359 -0.04011,0.39624 -0.08873,0.76124 -0.145424,1.11417 0.0088,0.0342 0.01626,0.0712 0.01995,0.1137 0.01514,0.17418 0.02452,0.3485 0.02977,0.52296 0.0937,0.0448 0.170925,0.16942 0.170925,0.37626 0,0.15271 0.004,0.30547 0,0.45812 -0.009,0.34274 -0.0222,0.68535 -0.03894,1.02777 -0.03509,0.71784 -0.07122,1.34332 -0.195145,2.05635 -0.03118,0.17942 -0.06484,0.36052 -0.100079,0.54257 0.08045,0.05 0.144432,0.16467 0.149906,0.34793 0.02142,0.71703 0.01972,0.52809 0.02315,1.43317 0.0014,0.35815 0.0065,0.71641 0,1.07449 -0.0052,0.28745 -0.01884,0.57472 -0.03542,0.86169 -0.0052,0.0902 -0.008,0.15255 -0.01046,0.19907 0.07536,0.0206 0.09543,0.0394 -0.003,0.0443 -0.0042,0.0596 -0.0105,0.0903 -0.02678,0.14001 0.01233,-0.009 0.02479,-0.0128 0.03628,-0.0127 0.04236,6e-4 0.07143,0.0565 0.03169,0.12981 -0.02847,0.0525 -0.06371,0.1169 -0.09368,0.17424 -0.0077,0.035 -0.016,0.0699 -0.02475,0.10464 0.004,-0.001 0.008,-0.002 0.01206,-0.002 0.03357,-9.5e-4 0.06494,0.0354 0.05666,0.10498 -0.0027,0.0225 -0.0018,0.0458 -0.0079,0.0676 -0.02376,0.084 -0.05094,0.16197 -0.08034,0.23852 0.0038,0.003 0.0069,0.007 0.0093,0.0124 0.01129,0.0102 0.01768,0.0304 0.01195,0.0597 -0.0077,0.0394 -0.01583,0.0788 -0.02443,0.11801 0.0084,0.033 0.01415,0.0657 0.01334,0.10804 -0.002,0.10232 -0.02398,0.22892 -0.05794,0.32548 -0.03352,0.0953 -0.08474,0.18414 -0.131874,0.27219 -0.0026,-0.0374 -0.0114,-0.008 -0.02209,0.0229 0.01487,0.014 0.01937,0.0224 -0.0034,0.01 -0.0081,0.0229 -0.0171,0.0433 -0.02507,0.0354 -0.01952,-0.0193 -0.02867,-0.0476 -0.04204,-0.0722 h -1.06e-4 c -1.69e-4,0 -3.76e-4,-3e-5 -5.34e-4,0 -0.0017,0.003 -0.0031,0.005 -0.0048,0.008 0.0016,-0.003 0.0026,-0.007 0.0048,-0.008 1.16e-4,-1.7e-4 2.04e-4,-5.2e-4 3.2e-4,-6.8e-4 -7.74e-4,-10e-4 -0.0011,-0.003 -0.0019,-0.004 -0.01333,-0.023 -0.0036,-0.0228 0.01344,-0.0133 0.0042,-0.007 0.0084,-0.0131 0.01259,-0.0196 0.0096,-0.0179 0.02027,-0.0383 0.03062,-0.0572 -0.008,0.003 -0.01816,-0.006 -0.04897,-0.0311 h -1.06e-4 -1.07e-4 v -1.1e-4 c 0.0083,-0.002 0.01937,-0.009 0.0303,-0.0152 -0.0015,-0.002 -0.0027,-0.003 -0.0044,-0.005 -0.0017,-0.002 -0.002,-0.006 -0.0017,-0.01 -0.0034,-0.002 -0.0088,-0.005 -0.0112,-0.007 -0.0058,0.0116 -0.0128,0.0252 -0.01931,0.0321 0.0021,0.002 0.0043,0.003 0.0062,0.005 -0.005,0.002 -0.0089,9e-4 -0.0111,-10e-4 -1.22e-4,10e-6 -3.09e-4,1.2e-4 -4.27e-4,1.2e-4 -0.03402,-0.003 -0.04669,-0.0118 -0.04961,-0.0245 -3.67e-4,7.6e-4 -7.74e-4,0.002 -0.0013,0.002 v 13.19821 h 33.505053 z m -33.505693,30.90443 v 0.34293 c 0.0053,-0.0174 0.01031,-0.0336 0.01568,-0.0513 0.02433,-0.0809 0.04768,-0.1623 0.06946,-0.24408 -0.02839,-0.0158 -0.05675,-0.0317 -0.08514,-0.0475 z m 0.07682,0.52421 c -0.02497,0.0797 -0.05043,0.15893 -0.07661,0.23772 0.0078,-0.0182 0.03648,-0.0853 0.05698,-0.13331 0.0069,-0.0347 0.01358,-0.0695 0.01963,-0.10441 z m 0.20624,0.10633 v 4.7e-4 0.004 c 3.99e-4,-0.001 7.75e-4,-0.003 0.0013,-0.004 -4.2e-4,-1.8e-4 -7.47e-4,-2.3e-4 -0.0013,-4.7e-4 z m -0.282527,0.6895 v 0.008 c 9.52e-4,-0.002 0.0023,-0.005 0.0033,-0.007 -0.0012,-2.3e-4 -0.002,-2.9e-4 -0.0033,-5.8e-4 z m 0.151507,0.27786 c -0.0012,0.004 -0.0023,0.009 -0.0035,0.0122 0.0018,-0.003 0.0033,-0.007 0.005,-0.0103 -5.55e-4,-7.2e-4 -9.82e-4,-0.001 -0.0015,-0.002 z m -0.09891,0.0235 c -4.79e-4,0.002 -0.0011,0.004 -0.0018,0.007 4.62e-4,-0.002 0.0011,-0.004 0.0018,-0.007 z" />
    </clipPath>
    <clipPath
       clipPathUnits="userSpaceOnUse"
       id="clipPath19042">
      <path
         id="path19044"
         style="fill:#ff0000;fill-opacity:1;fill-rule:nonzero;stroke:none"
         d="m 168.5,362.1582 v 62.37891 h 79.85352 V 362.1582 h -54.81641 c 0.009,0.0536 -0.0118,0.0854 -0.041,0.0977 0.10337,0.39395 0.20691,0.78791 0.31055,1.18164 0.51696,1.96423 0.28691,1.04909 0.71289,2.78711 0.0311,0.14646 0.0628,0.293 0.0937,0.43945 0.0906,0.42636 -0.26374,0.5641 -0.43555,0.28516 -0.1397,0.10545 -0.35995,0.0151 -0.40039,-0.30664 -0.0196,-0.15629 -0.0386,-0.31251 -0.0586,-0.46875 -0.0102,-0.0794 -0.0164,-0.14994 -0.0234,-0.21485 -0.0493,0.0206 -0.10279,0.0286 -0.1582,0.008 0.0398,0.16992 0.0945,0.40202 0.10547,0.45117 0.0424,0.19031 0.0811,0.38144 0.12109,0.57226 0.0125,0.072 0.0231,0.1448 0.0352,0.2168 0.077,0.45613 -0.33443,0.57037 -0.47461,0.21289 v -0.002 c -0.0397,-0.0139 -0.0813,-0.0243 -0.11719,-0.0625 -0.1233,0.21919 -0.43128,0.15696 -0.46484,-0.23242 -0.0378,-0.43778 -0.0968,-1.10988 -0.15235,-1.75196 -0.008,2.3e-4 -0.009,0.003 -0.0195,0.002 -0.0808,-0.004 -0.16134,-0.01 -0.24219,-0.0137 -0.0289,-0.0405 -0.0633,-0.0778 -0.0879,-0.1211 -0.0253,-0.0447 -0.0657,-0.1317 -0.10742,-0.22266 -0.0351,0.005 -0.0457,-0.0201 -0.0332,-0.0723 -0.0324,-0.0721 -0.0602,-0.13419 -0.0801,-0.18164 -10e-4,0.0324 3.5e-4,0.0641 -0.004,0.0957 0.0387,0.17296 0.0726,0.34269 -0.0352,0.41992 -0.0845,0.0604 -0.23857,0.0555 -0.3125,-0.0176 -0.0273,-0.0269 -0.0294,-0.0636 -0.0234,-0.10352 -2.6e-4,-0.002 2e-4,-0.004 0,-0.006 v -0.002 c -0.0831,0.11413 -0.25808,0.0663 -0.26758,-0.16211 -0.002,-0.0491 -0.01,-0.0994 -0.008,-0.14844 0.0226,-0.41631 0.0658,-0.63749 0.12695,-1.07227 0.16604,-1.29016 0.0697,-0.47929 0.17383,-1.46874 0.005,-0.0462 0.0107,-0.0924 0.0156,-0.13868 z m 23.39844,0.94336 c -0.0138,0.10497 -0.0399,0.30667 -0.084,0.64844 0.0225,-0.0147 0.0476,-0.0222 0.0723,-0.0215 0.004,-0.088 0.006,-0.11153 0.0195,-0.25586 0.006,-0.0655 0.008,-0.12117 0.0273,-0.14844 -0.0102,-0.0643 -0.0274,-0.17143 -0.0352,-0.22266 z m -0.18164,1.45899 c -0.009,0.0948 -0.0284,0.18411 -0.0352,0.30468 -0.002,0.0296 0.003,0.0586 0.006,0.0879 0.0149,-0.16471 0.0211,-0.1927 0.0234,-0.17187 8.2e-4,-0.038 0.004,-0.15004 0.006,-0.2207 z m 0.26172,0.0449 c 4.5e-4,0.01 -0.007,0.015 -0.006,0.0254 0.003,-0.005 0.005,-0.009 0.008,-0.0137 -5.6e-4,-0.004 -6e-4,-0.008 -0.002,-0.0117 z m 0.51757,0.21484 c -0.0208,9.1e-4 -0.0538,0.002 -0.0566,0.002 v 0.002 c 0.0216,-0.001 0.0306,-0.003 0.0566,-0.004 z m -0.8164,0.1875 c -7.6e-4,0.0138 -0.006,0.0228 -0.008,0.0352 0.002,-0.003 0.002,-0.007 0.004,-0.01 v -0.002 c 0.002,-0.008 0.003,-0.0156 0.004,-0.0234 z m 0.88672,0.0957 c -0.007,0.003 -0.0121,0.0137 -0.0195,0.0156 0.009,0.0115 0.0141,0.0268 0.0254,0.0449 -0.002,-0.0225 -0.004,-0.038 -0.006,-0.0605 z m -0.26172,0.0234 c -0.0332,0.0125 0.18248,0.1106 0.28125,0.17969 -0.004,-0.0489 -0.007,-0.0836 -0.0117,-0.13281 -0.0679,-0.0136 -0.13514,-0.0273 -0.20313,-0.041 -0.0379,-0.008 -0.059,-0.009 -0.0664,-0.006 z" />
    </clipPath>
  </defs>
  <g
     inkscape:label="Ebene 1"
     inkscape:groupmode="layer"
     id="layer1"
     transform="translate(1766.0121,195.98426)">
    <g
       id="g12942"
       transform="translate(-1293.6001,87.63978)">
      <g
         id="g87906"
         style="display:inline;fill:#000000;fill-opacity:1;stroke:#000000;stroke-width:1.71953;stroke-miterlimit:4;stroke-dasharray:none;stroke-opacity:1"
         transform="matrix(4.8434027,0,0,4.5583618,-264.09883,-329.16446)">
        <g
           id="g4403"
           transform="translate(25.422369,-77.5269)">
          <g
             id="g4544"
             transform="translate(26.072053,-26.86432)" />
        </g>
        <rect
           style="opacity:0;fill:#000000;fill-opacity:1;stroke:#000000;stroke-width:1.80922;stroke-linecap:round;stroke-dashoffset:25.8444;paint-order:markers stroke fill"
           id="rect2246"
           width="68.97406"
           height="25.316475"
           x="140.94061"
           y="122.71289"
           ry="2.194869" />
      </g>
      <g
         id="g12991"
         transform="matrix(0.92907187,0,0,1.0010001,13.440163,0.37500074)">
        <g
           id="g13910"
           transform="translate(-710.50469,232.78166)">
          <g
             id="g4535"
             style="display:inline;fill:#000000;fill-opacity:1;stroke:#000000;stroke-width:1.71953;stroke-miterlimit:4;stroke-dasharray:none;stroke-opacity:1"
             transform="matrix(4.8434027,0,0,4.5583618,-14.690612,-805.0174)">
            <path
               style="opacity:1;fill:#000000;fill-opacity:1;stroke:#000000;stroke-width:0.341096;stroke-linecap:round;stroke-miterlimit:4;stroke-dasharray:none;stroke-dashoffset:25.8444;stroke-opacity:1;paint-order:markers stroke fill"
               d=""
               id="path18504"
               transform="matrix(0.05879801,0,0,0.05798552,434.21673,106.24626)" />
          </g>
          <g
             id="g18709">
            <path
               id="path1918"
               style="opacity:1;fill:#000000;fill-opacity:1;stroke:#ffffff;stroke-width:2.93375;stroke-opacity:1"
               d="m 1204.6387,-1936.7969 -21.1426,0.5567 -0.6484,-0.5118 v 667.418 c 9.5123,-7.8726 18.4812,-15.5168 23.7636,-20.6172 l 21.5625,-20.8203 14.5157,7.4317 c 20.1853,10.3351 49.0508,33.5005 66.5156,53.3808 19.7057,22.4312 33.4893,48.6525 42.4043,80.668 6.8158,24.4768 7.1733,30.2788 4.7363,76.9765 -1.9355,37.1737 -4.42,56.4647 -9.3945,73.0879 -6.6739,22.30222 -14.4173,43.67021 -23.3828,64.41215 h 905 c 7.5248,-36.02998 10.6962,-72.65515 9.0644,-109.02345 -4.2497,-94.7157 -35.512,-199.4941 -89.8047,-300.9863 -45.41,-84.8875 -96.2754,-148.1493 -175.164,-217.8594 -100.4214,-88.7375 -171.5275,-133.6932 -280.7891,-177.5215 -110.4628,-44.3101 -281.2365,-86.3366 -427.4863,-105.2011 l -25.4785,-3.2852 -6.9629,-12.1992 c -3.829,-6.709 -9.0133,-14.2695 -11.5215,-16.8008 -2.5081,-2.5313 -4.509,-5.5752 -4.4473,-6.7637 0.1361,-2.6173 62.0028,3.3284 125.6524,12.0742 79.2913,10.8955 197.1254,36.3116 260.9668,56.2891 34.1509,10.6866 115.9078,40.1749 143.0273,51.5879 70.551,29.6905 158.7695,79.6045 221.4609,125.3027 58.6944,42.7846 127.3197,112.9664 178.5762,182.625 12.8945,17.5237 62.9934,111.0761 74.0859,138.3457 7.1163,17.4945 36.5942,118.5657 41.9141,143.709 2.1954,10.3755 6.8637,53.7962 10.3731,96.4903 l 6.3808,77.625 -5.5762,65.59175 h 39.3145 c 5.6801,-25.25767 10.5788,-48.24865 12.043,-57.88085 4.3153,-28.3869 4.182,-161.3587 -0.1934,-193.2461 -5.537,-40.3543 -21.0542,-112.0396 -30.3418,-140.1719 -8.5163,-25.7948 -36.0345,-85.7672 -58.2578,-126.9648 -29.7403,-55.1326 -90.0846,-129.7243 -146.4473,-181.0215 -66.3915,-60.4246 -133.6041,-104.1828 -232.9511,-151.6602 -132.903,-63.5137 -239.1518,-93.8704 -412.377,-117.8203 -55.9072,-7.7297 -77.4285,-9.4657 -141.875,-11.4433 -41.7839,-1.2822 -85.4866,-2.0797 -97.1152,-1.7735 z"
               transform="scale(0.26458333)" />
            <path
               style="display:inline;opacity:1;fill:#77b08a;fill-opacity:1;stroke:#e0f7e8;stroke-width:2.33681;stroke-linecap:butt;stroke-linejoin:miter;stroke-miterlimit:4;stroke-dasharray:none;stroke-opacity:1"
               d="m 61.068015,71.449003 c 0.181178,0.02663 0.155243,0.694698 -0.454907,1.700314 -0.259924,0.445094 -0.658307,1.032693 -1.248431,1.564195 -0.739249,0.680543 -1.684514,1.617674 -2.089643,2.680549 -0.207479,0.583545 -0.304055,1.274768 0.02458,1.726347 0.232211,0.435353 0.822231,0.73883 1.503074,0.940595 0.04392,0.01293 0.08763,0.02541 0.131557,0.0374 1.120639,0.280935 2.382875,0.185704 3.526364,0.02276 2.276729,-0.357454 3.880092,-0.612141 5.66044,-0.369371 0,0 0,0 0,0 0.751004,0.09292 1.375309,0.344962 1.818926,0.706698 0.958985,0.83448 0.731244,1.558559 0.595018,1.583321 -0.136226,0.02475 -0.298178,-0.661676 -1.074395,-1.059395 -0.356323,-0.205168 -0.812045,-0.288167 -1.444407,-0.318344 0,0 0,0 0,0 -1.674549,-0.06043 -2.883345,0.281748 -5.282168,0.714334 -1.243725,0.240123 -2.717518,0.358956 -4.199102,0.01928 -0.06207,-0.01331 -0.124237,-0.0279 -0.186355,-0.04381 -0.965919,-0.247163 -1.85147,-0.791017 -2.37545,-1.615652 -0.527482,-0.975639 -0.40037,-1.99704 -0.0115,-2.786383 0.641732,-1.34923 1.77377,-2.315085 2.665335,-2.948717 0.530202,-0.372602 0.98903,-0.866115 1.319543,-1.231497 0.727589,-0.837436 0.978572,-1.343755 1.121685,-1.3227 z"
               id="path20941"
               sodipodi:nodetypes="cssc"
               transform="matrix(4.8434027,0,0,4.5583618,-13.037495,-805.0174)" />
            <path
               style="display:inline;opacity:1;fill:#8ac49d;fill-opacity:1;stroke:#e0f7e8;stroke-width:2.33681;stroke-linecap:butt;stroke-linejoin:miter;stroke-miterlimit:4;stroke-dasharray:none;stroke-opacity:1"
               d="m 58.180194,81.705716 c 2.107369,-1.152223 1.382237,0.182334 -0.0063,0.735326 -0.483195,1.382722 -2.121539,4.932509 -3.961767,9.3314 -2.127133,4.188109 -7.678877,13.251098 -9.881724,20.452218 -0.136106,1.01831 -0.573287,2.78786 -0.424161,3.73143 0.03556,0.25188 0.09956,0.49862 0.188394,0.74109 0.499875,1.36369 1.785431,2.58208 2.98241,3.73254 1.761117,1.59648 4.418138,2.30648 6.856908,2.76404 2.591922,0.23569 5.145413,-0.14719 6.541872,-1.62933 v -1e-5 c 1.139045,-1.16503 2.040126,-2.31705 2.387476,-3.60141 0.335219,-1.26082 0.69355,-2.43347 0.948872,-3.54417 0.02196,-0.36492 0.21114,-0.7499 0.614595,-1.02414 v 0 c 1.985647,-1.17021 4.081229,-2.16428 5.549768,-2.84169 3.072377,-1.41951 4.339668,-1.98309 3.571451,-1.51879 -0.23664,0.14302 -2.366717,1.56002 -5.360145,3.12125 -1.238721,0.63541 -1.389703,0.68965 -3.268206,1.8737 v 1e-5 c 1.05073,-1.00629 -0.211453,0.16866 -0.236761,0.40426 -0.246486,1.25809 -0.511848,2.36615 -0.835303,3.72767 -0.394461,1.49404 -1.346732,2.80931 -2.531215,4.03839 v 0 c -1.795156,1.78614 -4.717278,2.34655 -7.56834,2.04382 -2.578171,-0.17156 -5.46526,-0.96793 -7.574354,-3.03968 -1.25664,-1.13528 -2.63506,-2.49232 -3.265445,-4.17267 -0.111845,-0.29801 -0.199898,-0.60532 -0.260186,-0.9227 -0.153675,-1.16448 0.0063,-2.29793 0.160891,-3.34172 2.374194,-7.62413 8.229418,-17.011814 10.585051,-21.300767 2.111394,-4.607601 4.068643,-8.917117 4.216357,-10.464583 0.680948,-0.345647 1.461087,0.700438 0.570098,0.704516 z"
               id="path20937"
               sodipodi:nodetypes="ccccccccccccsscscscccssccsccccc"
               clip-path="url(#clipPath76529)"
               transform="matrix(4.8434028,0,0,4.5583617,-13.03751,-805.01741)" />
            <path
               style="display:inline;opacity:1;fill:#000000;fill-opacity:1;stroke:#e0f7e8;stroke-width:2.33681;stroke-linecap:butt;stroke-linejoin:miter;stroke-miterlimit:4;stroke-dasharray:none;stroke-opacity:1"
               d="m 70.485148,105.71499 c 0.05443,-0.30515 3.248149,0.0789 7.018567,-0.0537 0.672541,-0.0236 1.305352,-0.0681 1.914723,-0.13358 1.093821,-0.12057 1.936251,-0.35186 2.660488,-0.6254 1.127186,-0.4279 1.746105,-0.88219 1.746105,-0.88219 0.01778,0.10338 0.376835,0.57012 -0.97246,1.32189 -0.764819,0.42944 -2.095227,1.07671 -3.256562,1.24833 -0.648106,0.0975 -1.328704,0.16038 -2.041349,0.18586 -4.005501,0.14319 -7.123939,-0.75608 -7.069512,-1.06123 z"
               id="path20939"
               sodipodi:nodetypes="ccccsccccc"
               transform="matrix(4.8434028,0,0,4.5583617,-13.03751,-805.01741)" />
            <path
               id="path20945"
               style="display:inline;opacity:1;fill:#000000;fill-opacity:1;stroke:#e0f7e8;stroke-width:9.90368;stroke-linecap:butt;stroke-linejoin:miter;stroke-miterlimit:4;stroke-dasharray:none;stroke-opacity:1"
               transform="matrix(0.80364983,0,0,0.6663261,121.19075,-758.27249)"
               d="m 190.4707,397.28516 c 3.28497,6.44768 5.38439,11.43336 7.03711,15.90039 l 1.75977,5.67968 c -0.0427,0.68463 0.0108,1.48614 -0.3418,2.08985 -0.56015,0.95905 -0.64,2.09086 -0.86719,2.55469 -1.36487,2.78649 2.35203,-0.98519 2.47071,-0.95118 0,0.10126 0.52644,-1.83541 0.66462,-4.49695 0.0213,-0.40932 0.42678,2.28096 0.42678,1.77828 -0.002,-0.5929 0.16891,-2.1187 0.12523,-3.6769 -0.0853,-3.04382 -0.45568,-6.85304 -0.79447,-8.56902 -0.93455,-4.75265 -1.76693,-5.77613 -4.61307,-12.58423 -12.84417,-32.54835 -31.58545,-22.72696 -2.4253,-14.50272 8.45582,1.86695 33.3575,5.8585 39.0038,6.38295 2.77315,0.19483 7.19772,0.35157 11.61581,0.46836 11.15309,0.29483 22.26482,0.33511 6.66371,0.0911 -10.77543,-0.70436 -7.1141,-1.43518 -14.6671,-3.22872 -5.44231,-1.30042 -12.46856,-2.99089 -20.60938,-5.33008 -7.01617,-1.63727 -15.64158,-3.64004 -24.3281,-6.45796 -30.33577,-12.12512 -12.82208,0.76093 -1.12113,24.8525 z"
               clip-path="url(#clipPath19042)"
               sodipodi:nodetypes="cccsscccsccccscsccc" />
            <path
               style="display:inline;opacity:0.939584;fill:#000000;fill-opacity:1;stroke:#e0f7e8;stroke-width:2.33681;stroke-linecap:butt;stroke-linejoin:miter;stroke-miterlimit:4;stroke-dasharray:none;stroke-opacity:1"
               d="m 59.996422,69.437251 c 0.139453,-0.09135 0.944951,0.588097 1.1323,1.520261 l 0.04026,0.164451 -0.08711,0.944071 c -0.03399,0.369094 -0.280316,0.283206 -0.425677,0.673548 -0.04078,0.108889 0.267767,-0.412811 0.215113,-0.312968 v 0 c -0.327062,0.61839 -0.922572,1.198188 -1.174548,1.455538 -0.310016,0.316615 -0.507352,0.527414 -0.6033,0.493386 -0.09998,-0.03547 -0.07859,-0.323587 0.133543,-0.750879 0.208578,-0.420099 0.629393,-0.929457 0.892611,-1.490886 v 0 c 0.03817,-0.08079 0.07341,-0.163849 0.105047,-0.248461 0.113517,-0.303642 0.164603,-0.58971 0.150799,-0.85658 v 0 c -0.01987,-0.857237 -0.518489,-1.500134 -0.379037,-1.591481 z"
               id="path20947"
               sodipodi:nodetypes="cccsssssssssssscc"
               transform="matrix(4.8434028,0,0,4.5583617,-13.03751,-805.01741)" />
            <path
               style="display:inline;opacity:1;fill:#000000;fill-opacity:1;stroke:#000000;stroke-width:3.52727;stroke-linecap:round;stroke-miterlimit:4;stroke-dasharray:none;stroke-dashoffset:25.8444;stroke-opacity:1;paint-order:markers stroke fill"
               d="m 1043.6492,-1681.3055 c -9.4016,-1.2196 -18.9463,-4.1618 -23.2259,-7.1593 -2.5721,-1.8016 -2.8596,-2.7878 -2.1345,-7.322 1.6456,-10.2912 15.0113,-28.1232 31.3031,-41.7635 l 6.0652,-5.0781 0.017,11.1015 c 0.015,9.4802 0.5337,12.1581 3.5542,18.3361 4.8211,9.8607 14.2348,18.3054 27.0353,24.2523 12.1844,5.6606 12.223,5.6282 -9.2054,7.7179 -14.9817,1.461 -21.6227,1.4441 -33.4091,-0.085 z"
               id="path5366"
               transform="matrix(0.26458332,0,0,0.26458331,7.0397618e-8,4.9418916e-6)" />
            <path
               style="display:inline;opacity:1;fill:#000000;fill-opacity:1;stroke:#000000;stroke-width:6.8233;stroke-linecap:round;stroke-miterlimit:4;stroke-dasharray:none;stroke-dashoffset:25.8444;stroke-opacity:1;paint-order:markers stroke fill"
               d="m 1120.1624,-1739.9269 c -1.3817,-1.3817 -0.9993,-8.6807 1.1918,-22.7491 2.333,-14.9789 1.4274,-21.1683 -4.0496,-27.6773 -4.0059,-4.7607 -14.3945,-8.4182 -21.2857,-7.4939 -2.751,0.369 -5.0018,0.1746 -5.0018,-0.432 0,-3.4931 4.1522,-9.4462 12.7368,-18.2611 l 9.7047,-9.9651 -5.1131,-0.014 c -2.8122,-0.01 -7.238,-0.3656 -9.8352,-0.795 -4.5688,-0.7555 -4.7511,-0.995 -5.6181,-7.3793 -1.4817,-10.9105 -5.5912,-22.6379 -12.3762,-35.318 -3.5327,-6.6021 -6.1936,-12.2333 -5.9131,-12.5138 0.2805,-0.2805 13.7803,1.4914 29.9996,3.9374 34.6876,5.2314 68.5285,9.6508 73.8995,9.6508 h 3.8083 v 61.5857 61.5857 l -11.251,2.0447 c -24.2331,4.404 -48.4797,6.2116 -50.8969,3.7944 z"
               id="path5405"
               transform="matrix(0.26458332,0,0,0.26458331,7.0397618e-8,4.9418916e-6)" />
            <path
               style="display:inline;opacity:1;fill:#000000;fill-opacity:1;stroke:none;stroke-width:32.1298;stroke-linecap:round;stroke-miterlimit:4;stroke-dasharray:none;stroke-dashoffset:25.8444;stroke-opacity:1;paint-order:markers stroke fill"
               d="m 945.07671,-940.6237 c -17.47556,-1.63706 -53.10208,-10.25235 -72.39161,-17.50591 -22.90099,-8.6116 -36.47406,-17.0248 -55.15183,-34.18557 -18.11034,-16.63942 -30.27394,-30.60662 -36.02628,-41.36822 -4.68775,-8.7698 -4.86926,-9.5788 -4.78646,-21.3308 0.12828,-18.2063 5.92208,-47.0695 13.61642,-67.8335 23.13661,-62.4365 55.89362,-127.3852 119.80809,-237.5484 48.37287,-83.3757 51.54387,-89.2842 72.11253,-134.3681 11.13132,-24.3984 27.22563,-59.6941 35.76513,-78.4349 l 15.5265,-34.0742 6.7139,-3.9732 c 6.3757,-3.773 7.6307,-4.017 24.9104,-4.8418 10.0849,-0.4815 28.0687,-2.5526 40.3429,-4.6462 50.1587,-8.5554 59.831,-10.1094 68.1102,-10.9428 l 8.6748,-0.8732 0.3259,182.1521 0.3259,182.1521 10.2865,-8.745 c 5.6576,-4.8098 15.8745,-14.1512 22.7042,-20.7587 l 12.4176,-12.0136 8.1555,4.0924 c 10.8191,5.429 27.8968,16.5399 39.0151,25.3836 10.2015,8.1143 31.7635,28.718 35.5137,33.9351 l 2.4895,3.4633 -37.646,-0.2487 c -37.0069,-0.2445 -37.7485,-0.1982 -43.6908,2.7287 -15.566,7.667 -16.6298,28.4314 -1.9443,37.9536 8.6831,5.6302 26.5378,10.6591 55.4693,15.6232 4.9322,0.8462 4.5043,1.0957 -18.6444,10.8655 -71.9197,30.3538 -141.5827,63.5228 -153.9581,73.3049 -8.9421,7.0684 -12.5687,13.9056 -17.5775,33.1391 -7.6539,29.3908 -16.3659,57.4156 -20.2778,65.2296 -5.6734,11.3325 -12.7428,20.41391 -27.2863,35.0524 -10.616,10.68533 -14.8183,13.9674 -22.611,17.65957 -12.6748,6.00527 -26.21104,9.32456 -44.60819,10.9386 -16.5374,1.45086 -20.37684,1.45291 -35.6835,0.019 z"
               id="path5444"
               transform="matrix(0.26458332,0,0,0.26458331,7.0397618e-8,4.9418916e-6)" />
            <path
               style="display:inline;opacity:1;fill:#000000;fill-opacity:1;stroke:none;stroke-width:5.16413;stroke-linecap:round;stroke-miterlimit:4;stroke-dasharray:none;stroke-dashoffset:25.8444;stroke-opacity:1;paint-order:markers stroke fill"
               d="m 968.34052,-1448.1131 0.0417,-16.7558 2.60954,-5.4195 c 1.43526,-2.9807 4.30175,-9.0924 6.37,-13.5815 3.15228,-6.8419 35.43184,-77.5962 51.62544,-113.1589 l 4.63,-10.1678 4.189,-2.4638 c 6.4059,-3.7678 6.8915,-4.0084 9.4413,-4.6781 2.8681,-0.7533 5.4842,-1.0169 15.2405,-1.5355 15.97,-0.8488 28.8689,-2.3872 49.953,-5.9576 34.9466,-5.9178 48.6472,-8.1612 55.3234,-9.0589 2.5437,-0.342 13.6239,-1.5366 14.2522,-1.5366 0.1761,0 0.2202,4.2928 0.2527,24.6314 l 0.039,24.6315 0.081,-24.752 0.081,-24.752 5.3843,-0.049 c 9.3807,-0.086 16.5244,0.5321 20.9426,1.8125 1.6844,0.4881 4.7921,2.0169 6.1789,3.0396 1.9299,1.4231 3.0843,2.7354 5.7432,6.5285 3.7005,5.279 6.0039,7.4567 10.2329,9.6743 1.723,0.9035 2.3806,1.1444 4.9578,1.8158 l 2.9714,0.7741 3.5119,-0.1056 3.5119,-0.1056 2.8841,-0.8927 c 2.5283,-0.7825 3.1318,-1.0393 4.8933,-2.082 3.1428,-1.8605 5.5383,-4.1142 7.5541,-7.1071 6.0263,-8.9476 5.851,-22.3373 -0.4441,-33.9172 -2.4694,-4.5424 -5.4571,-8.5462 -9.3615,-12.5449 -3.4938,-3.5784 -6.1502,-5.8662 -9.4917,-8.1749 -9.5614,-6.6061 -21.5494,-11.2912 -35.0386,-13.6937 -0.9724,-0.1732 -1.7101,-0.321 -1.6393,-0.3286 0.071,-0.01 3.1808,-0.6606 6.9113,-1.4512 16.2541,-3.4448 26.154,-5.2693 31.9022,-5.8793 3.2094,-0.3406 2.8818,-0.4683 2.7999,1.0912 -0.1036,1.975 0.2384,5.9154 0.6799,7.8329 0.5596,2.43 1.577,4.729 3.1295,7.072 1.247,1.8818 1.4939,2.1499 3.8978,4.2324 l 2.5665,2.2234 3.4856,1.4337 3.4856,1.4338 2.5817,0.3226 c 4.042,0.5052 7.4663,0.1592 11.3896,-1.1509 8.1795,-2.7315 15.2696,-9.1289 19.301,-17.4154 2.105,-4.3266 3.0852,-7.7996 3.6931,-13.0843 0.1563,-1.3585 0.1106,-6.3538 -0.074,-8.1317 -0.8429,-8.1021 -4.1294,-17.2063 -8.1372,-22.542 l -0.8753,-1.1653 h 47.4184 47.4184 v 150.923 150.9229 H 1284.854 1182.8725 v -30.8596 c 0,-20.4659 -0.054,-30.8597 -0.1607,-30.8597 -0.1066,0 -0.1608,10.3938 -0.1608,30.8597 v 30.8596 H 1075.4251 968.29887 Z m 214.17068,-111.6925 c -0.023,-12.2284 -0.041,-2.2712 -0.041,22.1272 0,24.3984 0.019,34.4035 0.041,22.2335 0.023,-12.1699 0.023,-32.1323 0,-44.3607 z"
               id="path5483"
               transform="matrix(0.26458332,0,0,0.26458331,7.0397618e-8,4.9418916e-6)" />
            <path
               style="display:inline;opacity:1;fill:#000000;fill-opacity:1;stroke:#000000;stroke-width:5.16413;stroke-linecap:round;stroke-miterlimit:4;stroke-dasharray:none;stroke-dashoffset:25.8444;stroke-opacity:1;paint-order:markers stroke fill"
               d="m 968.30181,-1447.9708 v -16.6136 l 1.94798,-4.0801 c 2.40496,-5.0372 5.64111,-11.9805 8.9808,-19.2688 2.59237,-5.6574 37.96541,-83.2216 48.54211,-106.4406 l 5.8384,-12.817 3.6295,-2.1469 c 5.3858,-3.1858 5.794,-3.4144 7.2067,-4.0355 3.3731,-1.4831 6.146,-1.8676 18.0407,-2.5015 8.8407,-0.4712 15.1694,-1.0285 24.6717,-2.1728 8.2274,-0.9907 14.4044,-1.9429 32.7883,-5.0546 30.9263,-5.2346 40.8728,-6.8547 47.8164,-7.7883 2.5437,-0.342 13.6239,-1.5366 14.2522,-1.5366 0.1751,0 0.2153,2.0224 0.2246,11.291 0.01,6.2101 0.073,11.4358 0.1494,11.6126 0.079,0.1835 0.143,-4.6901 0.1494,-11.3543 0.01,-10.4918 0.037,-11.6856 0.2656,-11.7732 0.416,-0.1597 11.0223,-0.1093 13.8898,0.066 5.3319,0.3259 9.3677,0.8874 12.1288,1.6875 1.9453,0.5637 5.1846,2.2449 6.7566,3.5067 1.523,1.2224 2.836,2.7545 4.9756,5.8057 2.9682,4.2326 4.7603,6.2047 7.3271,8.063 2.3451,1.6977 4.8469,2.8333 8.1388,3.6944 l 2.864,0.7492 3.5159,-0.1029 3.5159,-0.103 2.8065,-0.8769 c 3.5762,-1.1174 5.8898,-2.3712 8.3989,-4.5515 5.5162,-4.7932 8.5239,-11.9513 8.5239,-20.286 0,-8.9242 -3.5646,-18.0513 -10.3528,-26.5085 -2.9544,-3.6809 -8.1751,-8.731 -11.6669,-11.2856 -8.1169,-5.9386 -17.5384,-10.2619 -28.6898,-13.1651 -2.6057,-0.6784 -8.6515,-1.9201 -9.3488,-1.9201 -0.2358,0 -0.3945,-0.034 -0.3527,-0.076 0.074,-0.074 10.481,-2.2969 16.8539,-3.6003 10.5858,-2.1651 21.9778,-4.0385 24.5579,-4.0385 0.271,0 0.291,0.1183 0.2267,1.3424 -0.1066,2.0314 0.243,5.9385 0.7004,7.8275 0.6366,2.6292 1.5254,4.6348 3.0945,6.9832 1.2901,1.9307 1.5854,2.2563 3.8874,4.2854 l 2.4913,2.196 3.5808,1.4723 3.5809,1.4723 2.5984,0.3071 c 5.4185,0.6406 10.0814,-0.2323 15.3219,-2.868 8.812,-4.432 15.7153,-13.3622 18.0423,-23.3396 0.8112,-3.4784 0.9151,-4.5306 0.9124,-9.2419 0,-3.9558 -0.048,-4.7726 -0.3774,-6.7505 -1.2682,-7.613 -4.0737,-14.8804 -7.6784,-19.89 l -1.012,-1.4064 h 47.4092 47.4092 v 150.923 150.9229 h -101.9815 -101.9815 v -30.8596 c 0,-20.4659 -0.054,-30.8597 -0.1607,-30.8597 -0.1066,0 -0.1608,10.3938 -0.1608,30.8597 v 30.8596 H 1075.4266 968.30181 Z m 214.20929,-103.49 c -0.023,-7.5361 -0.042,-1.3702 -0.042,13.7021 0,15.0722 0.019,21.2381 0.042,13.702 0.023,-7.5361 0.023,-19.868 0,-27.4041 z m -0.1607,-51.6621 c -0.024,-2.9899 -0.045,-0.5903 -0.045,5.3325 0,5.9228 0.02,8.3691 0.044,5.4363 0.025,-2.9329 0.025,-7.7788 10e-5,-10.7688 z"
               id="path5522"
               transform="matrix(0.26458332,0,0,0.26458331,7.0397618e-8,4.9418916e-6)" />
            <path
               style="display:inline;opacity:1;fill:#000000;fill-opacity:1;stroke:#000000;stroke-width:2.64567;stroke-linecap:round;stroke-miterlimit:4;stroke-dasharray:none;stroke-dashoffset:25.8444;stroke-opacity:1;paint-order:markers stroke fill"
               d="m -3821.5471,-1353.4772 c -0.4054,-0.6728 -4.0544,-3.0496 -8.1089,-5.2818 -11.6031,-6.3878 -18.8496,-13.2305 -23.3511,-22.0499 -3.389,-6.6396 -4.0614,-10.1641 -4.1602,-21.805 l -0.088,-10.3343 2.8587,-2.9763 c 6.6884,-6.9636 14.9405,-18.4437 20.1627,-28.0498 2.2574,-4.1524 17.0906,-22.8331 18.1165,-22.8157 0.2476,0 1.8968,0.394 3.6648,0.8663 7.0398,1.8805 11.7866,5.5116 14.5251,11.111 2.142,4.3799 2.314,10.5769 0.6133,22.0893 -0.7575,5.1272 -1.545,12.2152 -1.75,15.7512 -0.3369,5.811 -0.2482,6.5818 0.9229,8.0175 1.2006,1.4718 1.7941,1.6068 8.0854,1.8397 3.7343,0.1382 9.7699,-0.093 13.4125,-0.5135 6.0085,-0.694 23.5121,-3.0336 26.5746,-4.2706 32.902,-13.2893 19.5759,3.8152 20.4849,5.8754 1.3122,2.9742 -13.079,2.6382 -10.4262,3.2209 l 1.8135,0.3983 v 21.4013 21.4014 l -17.1978,0.3538 c -17.5705,0.3615 -23.8864,0.9456 -47.0931,4.3547 -7.2488,1.0649 -14.3369,2.0944 -15.7513,2.2879 -2.0757,0.2838 -2.7137,0.1157 -3.3086,-0.8718 z"
               id="path13631"
               transform="matrix(0.28478242,0,0,0.26431899,1377.8912,-87.926827)"
               sodipodi:nodetypes="sssscsscsssssssssscccsssss" />
            <path
               style="display:inline;opacity:1;fill:#000000;fill-opacity:1;stroke:none;stroke-width:12.0085;stroke-linecap:round;stroke-miterlimit:4;stroke-dasharray:none;stroke-dashoffset:25.8444;stroke-opacity:1;paint-order:markers stroke fill"
               d="m -6325.2141,-628.21394 c -1.1581,-2.52834 -2.7536,-6.8198 -3.5455,-9.53657 -0.7919,-2.71678 -2.9424,-8.13795 -4.7788,-12.04705 -8.1615,-17.37284 -11.6521,-24.62563 -13.4555,-27.95774 -1.5834,-2.92569 -1.7782,-3.52788 -1.0719,-3.31439 1.3448,0.40647 37.7179,5.92248 55.6431,8.43833 28.4357,3.99101 41.2982,5.45178 48.8701,5.55008 2.2503,0.0292 3.7335,0.14667 3.2959,0.26101 -0.6456,0.16873 -0.7955,0.71946 -0.7955,2.9228 v 2.7149 l -1.4775,-0.23549 c -0.8126,-0.12952 -3.4209,-0.46247 -5.7962,-0.73988 -7.4146,-0.86595 -31.5992,-4.41184 -54.0981,-7.93171 -25.4406,-3.9801 -31.9766,-4.86499 -33.3632,-4.51697 -1.4727,0.36961 -2.7095,2.68089 -2.4129,4.50885 0.1332,0.82071 1.5111,4.22711 3.062,7.56978 6.8875,14.84456 7.9447,17.32109 9.7749,22.89799 1.7035,5.19097 4.1037,14.77617 3.747,14.96418 -0.071,0.0373 -0.4354,0.28852 -0.8104,0.55832 -0.5674,0.40813 -1.0357,-0.28175 -2.7875,-4.10644 z"
               id="path17904"
               transform="matrix(0.28478242,0,0,0.26431899,2088.3959,-320.70851)" />
            <path
               style="display:inline;opacity:1;fill:#000000;fill-opacity:1;stroke:none;stroke-width:4.24563;stroke-linecap:round;stroke-miterlimit:4;stroke-dasharray:none;stroke-dashoffset:25.8444;stroke-opacity:1;paint-order:markers stroke fill"
               d="m -6323.1644,-624.52402 c -1.0357,-1.23082 -3.4436,-6.98689 -5.4386,-13.00094 -2.001,-6.03209 -3.0114,-8.4375 -7.8652,-18.72474 -5.0293,-10.65917 -6.9044,-14.54873 -9.4015,-19.50094 -1.352,-2.68111 -2.4581,-4.96361 -2.4581,-5.0722 0,-0.14736 0.5403,-0.10316 2.1296,0.17418 9.0901,1.58627 50.5555,7.71915 67.6261,10.00214 17.8967,2.39347 26.0518,3.26357 33.5486,3.57939 4.4502,0.18748 4.532,0.19705 4.2593,0.49811 -0.2327,0.2569 -0.2871,0.71304 -0.333,2.79681 l -0.055,2.48986 -0.5076,-0.0943 c -0.2793,-0.0519 -3.1115,-0.42261 -6.2939,-0.82389 -10.6551,-1.34354 -26.1433,-3.61253 -54.808,-8.02925 -32.3202,-4.98 -32.7389,-5.02719 -34.1391,-3.849 -0.5878,0.49457 -1.2316,1.81385 -1.3839,2.83554 -0.2017,1.35388 0.5195,3.22808 4.9039,12.74336 4.8699,10.56898 6.2175,13.77404 7.7713,18.48364 1.4733,4.46579 3.5001,12.11836 3.8737,14.62619 0.09,0.60046 0.059,0.66645 -0.4603,0.99946 l -0.5561,0.35656 z"
               id="path17980"
               transform="matrix(0.28478242,0,0,0.26431899,2088.3959,-320.70851)" />
            <path
               style="display:inline;opacity:1;fill:#000000;fill-opacity:1;stroke:none;stroke-width:4.24563;stroke-linecap:round;stroke-miterlimit:4;stroke-dasharray:none;stroke-dashoffset:25.8444;stroke-opacity:1;paint-order:markers stroke fill"
               d="m -6323.1852,-624.5476 c -0.998,-1.18373 -3.4164,-6.93446 -5.2776,-12.54973 -2.1094,-6.36422 -2.935,-8.34886 -7.5657,-18.188 -5.1611,-10.96605 -7.3805,-15.578 -9.9241,-20.62308 -1.3063,-2.59109 -2.3752,-4.80229 -2.3752,-4.91377 0,-0.15714 0.3702,-0.13656 1.6475,0.0916 7.9522,1.42052 50.1068,7.66578 67.5456,10.00699 18.2206,2.44616 26.5334,3.33722 34.1112,3.65646 4.4502,0.18748 4.532,0.19705 4.2593,0.49811 -0.2327,0.2569 -0.2871,0.71304 -0.333,2.79681 l -0.055,2.48986 -0.5076,-0.0928 c -0.2793,-0.051 -3.1115,-0.42157 -6.2939,-0.82342 -3.1824,-0.40184 -9.5472,-1.25754 -14.144,-1.90154 -6.3482,-0.88938 -8.6599,-1.15563 -9.6142,-1.10736 -0.691,0.0349 -1.3781,0.01 -1.5269,-0.0562 -0.3726,-0.16491 -0.337,-0.15619 -1.2349,-0.30238 -0.442,-0.072 -0.8521,-0.20611 -0.9113,-0.29812 -0.133,-0.20654 0.4409,-0.10268 -5.8392,-1.05673 -2.9172,-0.44317 -12.8622,-1.97015 -22.1,-3.3933 -27.152,-4.18293 -31.0964,-4.70785 -32.512,-4.32667 -1.1502,0.30971 -2.037,1.51609 -2.4053,3.27207 -0.1652,0.78756 -0.1422,0.98582 0.2529,2.18526 0.5985,1.81654 1.7445,4.47279 4.6093,10.68364 4.9009,10.62533 6.2507,13.84778 7.8429,18.72473 1.4711,4.50613 3.1998,10.97851 3.7281,13.95837 0.1633,0.92076 0.1525,1.04201 -0.1103,1.24835 -0.7159,0.56202 -0.8091,0.56355 -1.2667,0.0208 z m 51.9682,-40.89362 c -0.1537,-0.0402 -0.443,-0.0417 -0.6429,-0.003 -0.1999,0.0385 -0.074,0.0714 0.2794,0.0732 0.3536,0.002 0.5172,-0.0297 0.3635,-0.0699 z m -1.2043,-0.15573 c -0.1088,-0.044 -0.3258,-0.0467 -0.4821,-0.006 -0.1564,0.0408 -0.067,0.0768 0.1978,0.0801 0.2652,0.003 0.3932,-0.0301 0.2843,-0.0741 z m -1.7308,-0.21602 c -0.055,-0.0884 -0.2578,-0.15352 -0.4515,-0.14471 -0.3278,0.0149 -0.3244,0.0249 0.05,0.14471 0.221,0.0708 0.4242,0.13589 0.4515,0.1447 0.027,0.009 0.01,-0.0563 -0.05,-0.1447 z"
               id="path18167"
               transform="matrix(0.28478242,0,0,0.26431899,2088.3959,-320.70851)" />
            <path
               style="display:inline;opacity:1;fill:#000000;fill-opacity:1;stroke:#000000;stroke-width:4.24441;stroke-linecap:round;stroke-miterlimit:4;stroke-dasharray:none;stroke-dashoffset:25.8444;stroke-opacity:1;paint-order:markers stroke fill"
               d="m -6323.1871,-624.5476 c -1.0198,-1.20412 -3.3759,-6.82692 -5.3426,-12.75011 -2.0991,-6.32223 -3.2799,-9.08526 -9.4755,-22.17367 -4.1356,-8.73664 -7.0897,-14.82192 -8.8199,-18.16844 -0.8265,-1.59856 -1.5027,-3.01416 -1.5027,-3.14576 0,-0.20841 0.2115,-0.20152 1.6391,0.0534 8.3244,1.48637 50.6233,7.73151 68.9202,10.17561 18.3678,2.45357 26.3196,3.28064 34.1983,3.55698 3.0615,0.10738 3.0943,0.11231 2.8128,0.4231 -0.2412,0.26624 -0.2933,0.69681 -0.3399,2.80782 l -0.055,2.49336 -0.588,-0.0987 c -0.3233,-0.0543 -3.1555,-0.42595 -6.2937,-0.82599 -3.1382,-0.40003 -9.2499,-1.22666 -13.5815,-1.83695 -9.6458,-1.35901 -9.1752,-1.30086 -10.9038,-1.34743 -1.1472,-0.0309 -1.4505,-0.0912 -1.5747,-0.31312 -0.097,-0.17402 -0.3426,-0.27136 -0.6686,-0.26537 -0.2831,0.005 -1.3827,-0.13858 -2.4435,-0.31952 -3.0453,-0.51943 -45.5858,-7.0182 -49.4236,-7.55028 -4.7839,-0.66326 -6.462,-0.84779 -7.9677,-0.8762 -1.164,-0.022 -1.3654,0.0204 -1.9557,0.41101 -0.7623,0.50444 -1.5885,2.01099 -1.7457,3.18324 -0.1722,1.28348 0.3848,2.68802 5.4843,13.82997 4.5731,9.99185 5.3572,11.85257 6.9324,16.45078 1.4332,4.18379 3.5184,11.86887 4.0745,15.01707 0.1626,0.92035 0.1517,1.0421 -0.111,1.24835 -0.7159,0.56199 -0.809,0.56352 -1.2686,0.0208 z m 50.7658,-41.04935 c -0.1088,-0.044 -0.3258,-0.0467 -0.4821,-0.006 -0.1564,0.0408 -0.067,0.0768 0.1978,0.0801 0.2652,0.003 0.3932,-0.0301 0.2843,-0.0741 z"
               id="path18206"
               transform="matrix(0.28478242,0,0,0.26431899,2088.3959,-320.70851)" />
            <path
               style="display:inline;opacity:1;fill:#000000;fill-opacity:1;stroke:#000000;stroke-width:0.341096;stroke-linecap:round;stroke-miterlimit:4;stroke-dasharray:none;stroke-dashoffset:25.8444;stroke-opacity:1;paint-order:markers stroke fill"
               d="m -6238.5912,-666.70336 c 0,-0.35808 0.01,-0.36689 0.221,-0.32603 0.1215,0.0231 1.107,0.0631 2.1899,0.0889 1.0829,0.0258 2.2311,0.0683 2.5515,0.0944 0.5776,0.0471 0.5827,0.0495 0.5827,0.27914 v 0.23165 h -2.7726 -2.7725 z"
               id="path18543"
               transform="matrix(0.28478242,0,0,0.26431899,2088.3959,-320.70851)" />
            <g
               id="g3488"
               transform="matrix(5.5453502,0,0,5.0283644,-21.058947,-873.292)"
               style="display:inline;fill:#000000;fill-opacity:1;stroke:#000000;stroke-width:1.71953;stroke-miterlimit:4;stroke-dasharray:none;stroke-opacity:1">
              <path
                 style="display:inline;fill:#000000;fill-opacity:1;stroke:none;stroke-width:0.0563096px;stroke-linecap:butt;stroke-linejoin:miter;stroke-miterlimit:4;stroke-dasharray:none;stroke-opacity:1"
                 d="m 86.139463,96.461656 c -0.02012,-2.978949 0.06776,-5.882847 1.831784,-7.622122"
                 id="path65896"
                 sodipodi:nodetypes="cc"
                 transform="translate(0.34131066)" />
              <path
                 style="opacity:1;fill:#8ac49d;fill-opacity:1;stroke:#8ac49d;stroke-width:2.34106;stroke-linecap:butt;stroke-linejoin:miter;stroke-miterlimit:4;stroke-dasharray:none;stroke-opacity:1"
                 d="m 87.408015,87.745251 c -0.271491,-0.267402 1.636857,-3.262032 7.007232,-4.123443 2.075192,-0.304084 4.527516,0.03834 6.685373,1.312273 1.24516,0.745703 2.33489,1.704055 3.25191,2.828611 0.74096,0.908642 1.32748,1.874636 1.78214,2.832955 v 0 c 1.84629,3.791205 1.10264,6.947537 0.4856,9.413963 -0.60869,2.43304 -2.33954,5.41442 -2.76679,6.25007 -0.11882,0.23236 1.05449,10.64602 -0.44475,0.84604 -0.35224,-2.30242 2.30684,-12.333222 0.59569,-15.686902 v 0 c -0.43731,-0.833197 -0.96005,-1.669522 -1.58162,-2.443014 -0.77057,-0.95891 -1.64392,-1.760425 -2.630207,-2.368929 -1.614471,-1.01539 -3.501521,-1.397966 -5.122064,-1.273922 -4.394753,0.269258 -6.991024,2.679699 -7.262514,2.412298 z"
                 id="path20927"
                 sodipodi:nodetypes="csscssssssssccc" />
              <path
                 id="path20935"
                 style="opacity:1;fill:#000000;fill-opacity:1;stroke:#8ac49d;stroke-width:41.5748;stroke-linecap:butt;stroke-linejoin:miter;stroke-miterlimit:4;stroke-dasharray:none;stroke-opacity:1"
                 d="m 922.3457,853.69727 c -2.18322,0.13782 -14.04029,14.90503 -40.72851,34.66211 -29.3549,21.73145 -70.61568,43.98984 -134.04297,64.2207 -51.11322,13.74503 -95.63198,15.62449 -161.44141,23.95703 -24.62558,6.80851 -50.27338,17.23537 -70.80859,34.10549 -3.49262,2.9994 -6.73928,6.1776 -9.74024,9.5078 h 30.30079 c 15.43131,-11.9481 35.51998,-19.9716 55.55859,-25.99415 63.36683,-8.51809 110.22582,-11.73012 162.55469,-27.15234 64.47929,-22.04622 107.13429,-48.06922 134.8789,-72.37305 26.39717,-23.12369 35.26566,-40.04925 33.65039,-40.89844 -0.0476,-0.0345 -0.11391,-0.0352 -0.18164,-0.0352 z"
                 transform="matrix(0.05462757,0,0,0.05804351,41.758186,63.193826)" />
              <path
                 style="opacity:1;fill:#000000;fill-opacity:1;stroke:#8ac49d;stroke-width:2.34106;stroke-linecap:butt;stroke-linejoin:miter;stroke-miterlimit:4;stroke-dasharray:none;stroke-opacity:1"
                 d="m 84.903933,96.616708 c 0.293756,0.0232 -0.236136,3.371201 1.187964,7.580542 0,0 0,1e-5 0,1e-5 0.443847,1.28309 1.126581,2.70903 2.243923,3.76392 0.222759,0.21044 0.459432,0.40299 0.711031,0.57637 1.344761,0.9684 3.148249,1.22567 4.635102,1.06465 1.984435,-0.20712 3.766037,-1.03508 4.826729,-1.5535 1.137302,-0.55604 1.791788,-0.91285 1.876178,-0.82101 0.0847,0.0913 -0.405179,0.62347 -1.466882,1.36104 -1.003737,0.69715 -2.770479,1.71733 -5.046956,2.09123 -1.764689,0.28191 -3.934054,0.0251 -5.6929,-1.17973 -0.30522,-0.21661 -0.59123,-0.45238 -0.858378,-0.70568 -1.348584,-1.2786 -2.08872,-2.87764 -2.482739,-4.29501 0,0 0,0 0,0 -1.306631,-4.590386 -0.226829,-7.905985 0.06697,-7.882832 z"
                 id="path20929"
                 sodipodi:nodetypes="cc" />
              <path
                 id="path67277"
                 style="opacity:1;fill:#ffffff;fill-opacity:1;stroke:#ffffff;stroke-width:2.33681;stroke-linecap:round;stroke-miterlimit:4;stroke-dasharray:none;stroke-dashoffset:25.8444;stroke-opacity:1;paint-order:markers stroke fill"
                 d="m 95.167251,86.445922 c -0.528063,4.61e-4 -1.079332,0.03502 -1.502575,0.103503 -0.792542,0.128229 -1.885154,0.424754 -2.624363,0.71228 -0.3153,0.122641 -1.138657,0.516824 -1.829707,0.875868 -1.066057,0.553887 -1.293024,0.694613 -1.49756,0.928696 -0.496882,0.568636 -0.901716,1.365843 -1.142274,2.249299 -0.398737,1.464786 -0.523638,3.524138 -0.394771,6.515611 0.095,2.205301 0.336855,3.742471 0.847902,5.389771 0.58062,1.87157 1.303588,3.11935 2.285399,3.94424 1.418836,1.1921 3.356383,1.49088 5.647125,0.87088 1.015799,-0.27492 1.774948,-0.58202 3.458925,-1.39939 1.620548,-0.78658 1.914448,-0.84336 2.505938,-0.48442 0.22854,0.13869 0.31019,0.23435 0.44854,0.52557 0.145,0.30528 0.16387,0.39403 0.13177,0.6217 -0.0751,0.5322 -0.33589,0.90676 -1.03376,1.4851 -1.976097,1.63762 -4.51352,2.76077 -6.880839,3.04558 -0.26702,0.0321 -0.494156,0.0675 -0.504557,0.0786 -0.0105,0.0111 0.02981,0.12194 0.08941,0.24623 0.268298,0.55917 0.06554,1.24128 -0.646353,2.17481 -1.517543,1.99004 -4.146631,3.88928 -7.269843,5.25158 -2.606123,1.13675 -4.111434,1.49 -9.277509,2.1772 -1.547091,0.20579 -1.822037,0.25806 -2.267044,0.43079 -1.753256,0.68052 -2.709681,1.50114 -3.144718,2.71422 h 39.593893 v -1.08843 -5.1415 l -0.17754,0.1162 c -0.58111,0.38041 -3.06319,1.92473 -3.09339,1.92473 -0.0826,0 -1.10111,-1.3518 -1.51677,-2.01316 -0.9708,-1.54461 -1.93019,-3.94013 -2.50188,-6.24693 -0.42556,-1.71722 -0.60549,-3.02012 -0.69479,-5.03187 -0.0748,-1.68474 -0.0639,-1.81532 0.47319,-5.68827 0.6858,-4.944864 0.8194,-7.081939 0.54595,-8.732376 -0.10768,-0.649999 -0.24843,-1.017793 -0.65531,-1.713077 -1.56672,-2.677257 -3.54135,-4.23557 -6.009039,-4.741995 -0.330485,-0.06782 -0.835381,-0.101471 -1.363449,-0.10101 z m 8.304359,30.920528 c 0.39711,0.0275 0.74701,0.23545 0.98063,0.59586 0.16962,0.26171 0.19722,0.35095 0.20122,0.65106 0.006,0.47119 -0.15159,0.8038 -0.63515,1.33772 -1.11503,1.23113 -3.20609,2.13667 -5.720003,2.47716 -0.648277,0.0878 -2.920336,0.15886 -3.433747,0.10736 -2.600491,-0.26075 -4.309597,-0.92723 -4.717069,-1.83959 -0.05331,-0.11926 -0.110818,-0.39348 -0.127818,-0.60935 l -0.03094,-0.39258 0.342701,-0.35518 c 0.240989,-0.24979 0.41335,-0.37623 0.58074,-0.42603 0.278459,-0.0828 0.963215,-0.0543 2.176887,0.0905 1.01604,0.1212 3.529973,0.0915 4.643343,-0.0548 1.897406,-0.24932 2.917156,-0.52378 4.352706,-1.17141 0.38094,-0.17185 0.82019,-0.34156 0.97615,-0.37706 0.14028,-0.032 0.27798,-0.0428 0.41035,-0.0337 z" />
              <path
                 id="path20931"
                 style="opacity:1;fill:#000000;fill-opacity:1;fill-rule:nonzero;stroke:#8ac49d;stroke-width:46.7227;stroke-linecap:butt;stroke-linejoin:miter;stroke-miterlimit:4;stroke-dasharray:none;stroke-opacity:1"
                 d="m 2133.6484,-1375.3203 c -0.2907,0.1946 -0.581,0.3948 -0.873,0.5976 0.2917,-0.2 0.5846,-0.4046 0.873,-0.5976 z m -0.873,0.5976 c -7.7416,5.3106 -16.5804,13.143 -24.3887,25.5469 -6.1753,9.8099 -11.3833,21.9742 -14.9863,36.9414 -6.3516,26.3843 -7.0081,58.6763 -1.9434,94.3301 5.0306,35.4174 15.1793,70.4473 27.4785,100.6699 7.0097,17.2247 14.4819,32.333 21.8516,45.1426 8.6449,15.026 93.1822,91.30533 116.707,113.62696 h 32.9864 l -95.5371,-91.77926 c -6.5662,-7.3629 -15.5088,-17.9675 -25.8379,-33.1446 -7.8631,-11.5542 -16.2331,-25.3318 -24.5313,-41.373 -14.5783,-28.1815 -27.7863,-61.2097 -36.3027,-95.2363 -8.5401,-34.1223 -11.422,-65.5276 -8.2227,-91.4629 1.8172,-14.7307 5.4937,-26.95 10.5078,-36.9336 6.3562,-12.6547 14.4858,-20.956 22.2188,-26.3282 z"
                 transform="matrix(0.04771265,0,0,0.05261817,3.7975854,173.67317)" />
              <path
                 style="display:inline;opacity:1;fill:#000000;fill-opacity:1;stroke:#8ac49d;stroke-width:2.34106;stroke-linecap:butt;stroke-linejoin:miter;stroke-miterlimit:4;stroke-dasharray:none;stroke-opacity:1"
                 d="m 91.268713,120.16521 c 0.102977,-0.15428 0.971701,0.0918 2.46335,0.19296 0.948069,0.0548 2.010471,0.0609 3.261431,-0.0368 0,0 0,0 0,0 0.188485,-0.0166 0.380042,-0.0351 0.573329,-0.0556 1.845258,-0.19603 3.143967,-0.50945 4.241387,-0.93992 1.00742,-0.39519 1.58625,-0.77917 1.71112,-0.67141 0.11216,0.0968 -0.24702,0.70645 -1.26783,1.3466 -1.06044,0.665 -2.588913,1.19827 -4.540464,1.3826 -0.208699,0.0197 -0.414619,0.0347 -0.616909,0.0456 0,0 0,0 0,0 -1.334737,0.0847 -2.519351,-0.008 -3.505426,-0.19915 -1.607682,-0.29892 -2.443977,-0.87904 -2.319988,-1.0648 z"
                 id="path20933"
                 sodipodi:nodetypes="cc" />
            </g>
            <path
               style="opacity:1;fill:#8ac49d;fill-opacity:1;stroke:none;stroke-width:37.6373;stroke-linecap:round;stroke-miterlimit:4;stroke-dasharray:none;stroke-dashoffset:25.8444;stroke-opacity:1;paint-order:markers stroke fill"
               d="m 1799.3287,-1710.4935 c 0,-0.9711 -0.8182,-1.2599 -1.8184,-0.6418 -1.0001,0.6181 -1.8184,0.2573 -1.8184,-0.8019 0,-1.0591 -0.6137,-1.776 -1.3638,-1.5929 -2.2063,0.5383 -18.6388,-8.1851 -18.6388,-9.8946 0,-0.8599 -0.8183,-1.0576 -1.8185,-0.4395 -1.0001,0.6181 -1.8184,0.2089 -1.8184,-0.9092 0,-1.1182 -0.8183,-1.5274 -1.8184,-0.9092 -1.0001,0.6181 -1.8184,0.2089 -1.8184,-0.9093 0,-1.1181 -0.8183,-1.5273 -1.8185,-0.9092 -1.0001,0.6181 -1.8184,0.209 -1.8184,-0.9092 0,-1.1182 -0.8183,-1.5273 -1.8184,-0.9092 -1.0001,0.6181 -1.8184,0.2573 -1.8184,-0.8019 0,-1.0591 -0.6137,-1.7401 -1.3638,-1.5132 -2.1751,0.6579 -18.6245,-6.6241 -18.632,-8.2481 0,-0.8092 -0.8252,-0.9654 -1.8253,-0.3473 -1.0001,0.6181 -1.8184,0.2572 -1.8184,-0.8019 0,-1.0592 -0.6137,-1.7915 -1.3638,-1.6275 -2.8091,0.6144 -11.3652,-2.5773 -11.3652,-4.2396 0,-0.9507 -0.8183,-1.2228 -1.8184,-0.6047 -1.0001,0.6181 -1.8184,0.4314 -1.8184,-0.4149 0,-0.8464 -1.829,-1.6766 -4.0645,-1.845 -2.2355,-0.1684 -4.3511,-1.1659 -4.7014,-2.2167 -0.3503,-1.0508 -1.3852,-1.448 -2.3,-0.8827 -0.9147,0.5653 -1.6631,0.3354 -1.6631,-0.5109 0,-0.8463 -1.7675,-1.6719 -3.9278,-1.8347 -2.1603,-0.1627 -4.4106,-0.9505 -5.0007,-1.7507 -0.59,-0.8002 -2.7094,-1.7413 -4.7096,-2.0913 -2.0003,-0.35 -4.046,-1.1683 -4.5461,-1.8184 -0.5001,-0.6502 -2.5458,-1.4685 -4.546,-1.8184 -2.0003,-0.35 -4.1375,-1.4428 -4.7494,-2.4284 -0.6119,-0.9856 -1.6348,-1.7221 -2.273,-1.6367 -0.6383,0.086 -1.3651,0.095 -1.6151,0.02 -0.2501,-0.074 -2.5004,-0.5071 -5.0007,-0.9618 -2.5003,-0.4546 -4.8035,-1.5753 -5.1182,-2.4903 -0.3146,-0.915 -1.7466,-1.213 -3.1822,-0.6621 -1.4356,0.5509 -2.6101,0.096 -2.6101,-1.0114 0,-1.1071 -0.6138,-1.916 -1.3639,-1.7976 -0.7501,0.1184 -1.9775,0.016 -2.7276,-0.2273 -0.7501,-0.2435 -1.9775,-0.5646 -2.7276,-0.7137 -6.3965,-1.2714 -18.6391,-5.4288 -18.6401,-6.3297 -7e-4,-0.6202 -2.2259,-1.2567 -4.9448,-1.4146 -2.719,-0.1579 -5.2432,-1.1859 -5.6093,-2.2844 -0.3662,-1.0985 -1.3182,-1.594 -2.1156,-1.1012 -1.2467,0.7705 -17.1525,-3.9336 -25.5159,-7.5462 -1.5002,-0.6481 -3.313,-1.0578 -4.0284,-0.9106 -0.7154,0.1472 -3.5794,-0.6772 -6.3645,-1.832 -2.785,-1.1548 -5.6774,-2.2704 -6.4275,-2.4793 -0.7501,-0.2088 -1.9776,-0.5788 -2.7277,-0.8223 -0.7501,-0.2434 -1.9491,-0.3552 -2.6645,-0.2483 -0.7154,0.1069 -3.5794,-0.7467 -6.3645,-1.8967 -2.785,-1.1501 -5.6491,-1.9684 -6.3645,-1.8185 -0.7154,0.15 -3.5794,-0.6459 -6.3644,-1.7686 -2.7851,-1.1227 -7.2138,-2.3228 -9.8416,-2.6669 -2.6279,-0.3441 -7.1285,-1.5722 -10.0014,-2.729 -2.8729,-1.1568 -6.86,-2.3301 -8.8603,-2.6073 -4.9495,-0.6858 -41.1553,-9.772 -44.5513,-11.1806 -1.5002,-0.6222 -3.4275,-0.9727 -4.2829,-0.7788 -0.8553,0.1938 -2.5672,-0.4875 -3.8041,-1.514 -1.2369,-1.0265 -2.733,-1.3825 -3.3245,-0.7909 -0.5915,0.5915 -2.0708,0.4604 -3.2872,-0.2914 -1.2165,-0.7518 -4.9706,-1.6145 -8.3425,-1.9171 -3.3719,-0.3025 -7.0992,-1.1486 -8.2829,-1.8802 -1.1837,-0.7316 -4.6441,-1.5914 -7.6897,-1.9108 -3.0457,-0.3194 -6.765,-1.0804 -8.2652,-1.6913 -1.5002,-0.6108 -5.4696,-1.3934 -8.8208,-1.739 -3.3513,-0.3457 -7.1089,-1.4714 -8.3503,-2.5016 -1.2413,-1.0302 -2.7601,-1.37 -3.375,-0.755 -0.615,0.6149 -2.5854,0.4821 -4.3788,-0.2953 -1.7933,-0.7773 -4.6201,-1.2484 -6.2818,-1.0468 -1.6616,0.2016 -3.529,-0.4552 -4.1497,-1.4595 -0.6207,-1.0044 -2.2905,-1.3801 -3.7108,-0.8351 -1.4203,0.545 -3.6031,0.36 -4.8506,-0.411 -1.2476,-0.771 -3.9462,-1.5276 -5.997,-1.6813 -6.8029,-0.5099 -21.8873,-3.1428 -23.548,-4.1102 -0.8993,-0.5239 -4.9908,-1.2427 -9.0921,-1.5973 -4.1013,-0.3546 -8.6844,-1.1708 -10.1846,-1.8138 -1.5002,-0.643 -4.4907,-0.9991 -6.6454,-0.7913 -2.1548,0.2078 -4.4313,-0.4531 -5.0589,-1.4686 -0.6276,-1.0155 -2.3424,-1.3855 -3.8105,-0.8221 -1.4682,0.5634 -4.1015,0.4295 -5.8517,-0.2976 -1.7502,-0.7271 -5.2279,-1.5424 -7.7283,-1.8118 -17.9461,-1.9339 -25.7995,-2.958 -34.55,-4.5057 -5.5007,-0.9729 -15.2363,-2.2194 -21.6345,-2.77 -13.2051,-1.1365 -20.7243,-4.81 -23.8392,-11.6466 -1.1779,-2.5851 -1.9926,-5.0357 -1.8105,-5.4459 0.1821,-0.4102 -0.9869,-1.4833 -2.5977,-2.3848 -1.6109,-0.9015 -2.5072,-2.3213 -1.9918,-3.1552 0.5153,-0.8338 -0.3376,-2.0052 -1.8955,-2.603 -1.5578,-0.5978 -18.2705,-4.094 -17.7156,-4.9917 0.5548,-0.8978 -1.0299,-2.9682 -3.5216,-4.6009 -2.4918,-1.6326 -2.4934,-4.372 -3.5261,-4.616 -46.9034,-11.0855 40.5091,0.7097 58.5299,2.7023 15.2933,1.691 24.526,2.6215 37.0652,3.7353 6.8841,0.6115 14.2487,1.665 16.3658,2.3412 2.1171,0.6761 6.3041,1.4112 9.3045,1.6335 16.997,1.2591 30.7615,2.9373 32.4006,3.9503 1.9211,1.1873 9.7652,2.242 17.3336,2.3308 2.3505,0.027 5.1732,0.606 6.2727,1.2855 1.0994,0.6795 3.6769,1.3596 5.7277,1.5113 11.0276,0.8159 24.8075,3.3154 25.632,4.6495 0.5188,0.8395 2.1054,1.0805 3.5257,0.5355 1.4203,-0.545 3.568,-0.3817 4.7728,0.3629 1.2048,0.7446 5.9114,1.6736 10.459,2.0644 4.5476,0.3909 9.1998,1.4836 10.3382,2.4284 1.1384,0.9448 2.5087,1.2789 3.0451,0.7425 0.9186,-0.9186 15.4683,1.924 21.4203,4.1849 1.5002,0.5699 3.4635,0.8656 4.3628,0.657 0.8993,-0.2085 2.945,0.1654 4.5461,0.8309 1.601,0.6655 5.5877,1.4869 8.8593,1.8254 3.2717,0.3384 6.872,1.1861 8.0006,1.8837 1.1287,0.6975 4.8762,1.5217 8.3277,1.8314 3.4516,0.3097 7.2912,1.406 8.5325,2.4362 1.2414,1.0303 2.7049,1.4253 3.2524,0.8778 0.9285,-0.9286 20.7778,3.4536 26.8555,5.929 1.5002,0.611 3.546,1.2699 4.5461,1.4643 1.0001,0.1943 2.2276,0.5462 2.7276,0.7819 0.5001,0.2357 2.5458,0.6381 4.5461,0.8943 6.3428,0.8125 16.2077,3.2663 20.9118,5.2016 2.5004,1.0287 5.3644,1.9602 6.3645,2.07 5.6089,0.6159 21.0656,5.2845 21.8849,6.6102 0.529,0.8559 2.1631,1.0953 3.6313,0.5319 1.4681,-0.5634 2.6694,-0.07 2.6694,1.096 0,1.1661 0.6832,1.698 1.5183,1.1819 2.0104,-1.2425 14.8475,2.7421 14.8475,4.6086 0,0.8009 1.2274,0.9852 2.7276,0.4096 1.5002,-0.5757 2.7276,-0.093 2.7276,1.0736 0,1.1661 0.7243,1.6726 1.6096,1.1255 1.9491,-1.2046 13.402,2.5239 14.9595,4.8701 0.6119,0.9218 1.6348,1.606 2.273,1.5206 0.6383,-0.085 1.3651,-0.093 1.6152,-0.016 0.25,0.077 1.8508,0.408 3.5572,0.7366 6.9071,1.3302 22.4268,7.0438 23.4678,8.6398 0.6119,0.9381 1.6484,1.5737 2.3033,1.4125 2.7014,-0.665 12.0408,2.2101 12.0408,3.7068 0,0.8893 1.2274,1.1458 2.7276,0.5702 1.5002,-0.5757 2.7276,-0.1409 2.7276,0.9662 0,1.1072 0.6138,1.8571 1.3639,1.6666 2.8286,-0.7185 13.1835,2.5236 13.1835,4.1277 0,0.9207 0.6137,1.5771 1.3638,1.4586 0.7501,-0.1184 1.773,-0.058 2.2731,0.1352 0.5,0.1927 2.9194,0.7194 5.3763,1.1704 2.4569,0.451 4.9118,1.4131 5.4553,2.1379 0.5434,0.7249 2.6247,1.6043 4.6249,1.9543 2.0003,0.35 4.2381,1.5774 4.9729,2.7276 0.7348,1.1502 1.3485,1.4842 1.3638,0.7422 0.034,-1.667 15.0606,4.1091 16.5969,6.3799 0.6119,0.9043 1.8394,1.6102 2.7277,1.5684 3.7559,-0.1764 9.798,2.1093 9.798,3.7066 0,0.9507 0.8183,1.2228 1.8184,0.6047 1.0001,-0.6181 1.8184,-0.2572 1.8184,0.8019 0,1.0592 0.6137,1.7501 1.3638,1.5354 2.4212,-0.6929 18.6389,6.2839 18.6389,8.0184 0,0.9233 0.8183,1.173 1.8184,0.5549 1.0001,-0.6182 1.8184,-0.209 1.8184,0.9092 0,1.1182 0.8183,1.5273 1.8184,0.9092 1.0002,-0.6181 1.8185,-0.209 1.8185,0.9092 0,1.1182 0.8182,1.5273 1.8184,0.9092 1.0001,-0.6181 1.8184,-0.209 1.8184,0.9092 0,1.1182 0.8183,1.5273 1.8184,0.9092 1.0002,-0.6181 1.8184,-0.2089 1.8184,0.9092 0,1.1182 0.8183,1.5274 1.8185,0.9093 1.0001,-0.6182 1.8184,-0.209 1.8184,0.9092 0,1.1181 0.8183,1.5273 1.8184,0.9092 1.0001,-0.6181 1.8184,-0.209 1.8184,0.9092 0,1.1182 0.8183,1.5273 1.8185,0.9092 1.0001,-0.6181 1.8184,-0.209 1.8184,0.9092 0,1.1182 0.8183,1.5273 1.8184,0.9092 1.0001,-0.6181 1.8184,-0.1209 1.8184,1.105 0,1.2258 0.5329,1.6959 1.1842,1.0446 1.4135,-1.4135 22.4553,9.8459 22.4553,12.0156 0,0.8283 0.8183,1.0003 1.8184,0.3822 1.0002,-0.6181 1.8185,-0.1209 1.8185,1.105 0,1.2258 0.5239,1.7048 1.1643,1.0644 1.3983,-1.3982 11.5646,4.3272 11.5646,6.5129 0,0.8435 0.8183,1.0279 1.8184,0.4098 1.0002,-0.6181 1.8185,-0.3765 1.8185,0.537 0,0.9135 -6.1934,3.4994 -13.763,5.7466 -7.5696,2.2472 -18.8211,6.1296 -25.0033,8.6277 -12.7484,5.1513 -19.4233,6.4966 -19.4233,3.9147 z"
               id="path12161"
               sodipodi:nodetypes="sssssssssssssscsssssssssssssssssssssssssssssssssssssssssssssssssssssssssssssssssssssssssssssssssssssssssssssssssssssssssssssssssssssssssssssssssssssssssssssssssssssssssssssssssssss"
               transform="scale(0.26458333)" />
            <path
               style="opacity:1;fill:#8ac49d;fill-opacity:1;stroke:none;stroke-width:4.70467;stroke-linecap:round;stroke-miterlimit:4;stroke-dasharray:none;stroke-dashoffset:25.8444;stroke-opacity:1;paint-order:markers stroke fill"
               d="m 2215.8881,-1191.2385 c -12.0184,-45.6605 -31.3049,-96.8006 -53.7772,-142.5951 l -3.9142,-7.9766 0.6821,-1.3428 c 2.6493,-5.2156 3.974,-19.949 7.2714,-28.2746 4.8459,-12.2355 11.4788,-17.8018 16.3107,-36.122 0.7385,-2.8004 1.3789,-5.1276 1.4229,-5.1717 0.2586,-0.2586 18.3572,34.5878 25.5183,49.132 8.6686,17.606 11.3518,23.7222 14.542,33.1473 9.0869,26.846 27.8289,90.9306 35.9086,122.7824 2.5142,9.9115 3.3103,13.4617 3.9504,17.6159 0.26,1.6878 0.5215,3.3499 0.5811,3.6937 l 0.1083,0.6251 h -23.577 -23.577 l -1.4504,-5.5107 z"
               id="path12237"
               transform="scale(0.26458333)"
               sodipodi:nodetypes="cscssscsssssccccc" />
            <path
               style="opacity:1;fill:#000000;fill-opacity:1;stroke:none;stroke-width:37.6373;stroke-linecap:round;stroke-miterlimit:4;stroke-dasharray:none;stroke-dashoffset:25.8444;stroke-opacity:1;paint-order:markers stroke fill"
               d="m 2245.9108,-1034.8691 c -15.9144,-15.4079 -28.5979,-28.3003 -28.1855,-28.6497 0.4124,-0.3493 4.6366,-2.8784 9.3873,-5.6201 7.7091,-4.4492 8.6606,-5.6993 8.8528,-11.6313 0.1184,-3.6554 0,-7.4646 -0.2741,-8.4647 -0.2692,-1.0001 -0.8321,-5.5007 -1.251,-10.0013 -1.4293,-15.3559 -2.2728,-20.917 -6.0682,-40.0053 -2.0881,-10.5014 -4.0148,-21.2091 -4.2816,-23.795 -0.2668,-2.5858 -1.074,-5.6544 -1.7937,-6.8191 -0.7198,-1.1646 -0.838,-2.8792 -0.2626,-3.8103 0.5755,-0.931 0.2667,-2.1745 -0.6861,-2.7634 -0.9528,-0.5889 -1.6086,-2.7149 -1.4572,-4.7245 0.2616,-3.4725 1.3619,-3.6287 22.16,-3.1465 l 21.8847,0.5075 0.5778,6.3644 c 0.3178,3.5005 1.0208,10.456 1.5622,15.4566 1.4743,13.6171 2.6908,25.3575 3.6266,35.001 0.7795,8.0331 1.22,13.1379 3.6478,42.2716 l 1.8184,21.821 c 0.5001,6.0008 1.2248,15.6181 1.6106,21.3717 0.3857,5.7536 1.2088,13.3461 1.829,16.8722 0.6732,3.8276 0.1425,8.7015 -1.3171,12.0953 l -2.4448,5.6843 z"
               id="path12276"
               transform="scale(0.26458333)" />
            <path
               style="opacity:1;fill:#000000;fill-opacity:1;stroke:none;stroke-width:3.3267;stroke-linecap:round;stroke-miterlimit:4;stroke-dasharray:none;stroke-dashoffset:25.8444;stroke-opacity:1;paint-order:markers stroke fill"
               d="m 1125.4128,-1738.2844 c -1.5793,-0.1675 -2.9776,-0.4243 -4.0182,-0.7378 -1.5199,-0.4581 -2.0736,-1.0375 -2.3039,-2.4108 -0.6705,-3.9983 -0.2242,-9.6766 1.6461,-20.9422 1.1118,-6.6975 1.3799,-8.6475 1.5469,-11.2509 l 0.1339,-2.0895 -0.067,2.652 c -0.073,2.8659 -0.2942,5.001 -1.0506,10.1259 -1.4976,10.1472 -1.9532,14.3833 -1.9709,18.3229 -0.014,3.1963 0.219,4.4145 0.9353,4.8838 0.8858,0.5805 2.3033,0.7699 6.4119,0.8572 11.0474,0.2345 27.6157,-1.6816 50.0892,-5.7926 l 5.5451,-1.0144 0.04,-61.6462 0.04,-61.6462 -3.496,-0.092 c -1.9228,-0.051 -4.8341,-0.2383 -6.4695,-0.4168 -14.7077,-1.6058 -35.6095,-4.4309 -66.1393,-8.9394 -17.2065,-2.541 -25.8157,-3.7147 -30.6587,-4.1795 -1.0418,-0.1 -1.0849,-0.09 -1.0849,0.2489 0,0.5615 1.4571,3.7585 3.7332,8.191 5.2497,10.2232 7.9999,15.9255 7.9999,16.5876 0,0.1087 -0.8572,-1.5358 -1.9048,-3.6544 -1.0476,-2.1187 -2.9708,-5.8731 -4.2738,-8.3433 -1.303,-2.4702 -2.8988,-5.5441 -3.5463,-6.8309 -0.6475,-1.2868 -1.8341,-3.4969 -2.6369,-4.9113 -1.2119,-2.1353 -1.4108,-2.5796 -1.1722,-2.6186 0.1581,-0.026 1.4054,0.1333 2.7719,0.3536 13.0131,2.0984 40.8343,6.2764 58.3374,8.7607 29.0901,4.129 39.9774,5.3177 48.7023,5.3177 h 1.6053 v 62.0408 c 0,35.5276 -0.06,62.0407 -0.1412,62.0407 -0.078,0 -3.8929,0.6822 -8.4783,1.516 -18.3525,3.337 -28.457,4.833 -36.4645,5.3987 -2.5091,0.1773 -12.54,0.3383 -13.6618,0.2194 z"
               id="path12391"
               transform="scale(0.26458333)" />
            <path
               style="opacity:1;fill:#000000;fill-opacity:1;stroke:#000000;stroke-width:17.6011;stroke-linecap:round;stroke-miterlimit:4;stroke-dasharray:none;stroke-dashoffset:25.8444;stroke-opacity:1;paint-order:markers stroke fill"
               d="m 932.67156,-943.11068 c -44.35523,-8.09091 -77.43884,-20.56554 -100.10398,-37.74557 -15.69666,-11.89796 -42.02453,-39.35205 -48.97424,-51.06915 l -5.67305,-9.5647 0.092,-14.7984 c 0.21952,-35.3065 14.30071,-78.045 49.55975,-150.4212 21.70824,-44.5604 41.55333,-80.8753 92.41744,-169.1163 34.40705,-59.6906 46.30271,-81.6741 46.30539,-85.5735 0.001,-1.7314 6.53819,-17.3241 14.52668,-34.6505 7.98849,-17.3264 22.88085,-49.8575 33.09415,-72.2912 l 18.5696,-40.7887 7.7285,-3.8636 c 6.9324,-3.4658 9.684,-4.0048 26.7162,-5.2342 16.9043,-1.2201 35.5966,-3.919 90.9497,-13.1318 9.7877,-1.629 22.3578,-2.7156 32.1455,-2.7788 19.3094,-0.1246 25.2306,1.9987 32.0483,11.4921 6.924,9.6416 13.6656,12.6545 23.9965,10.7245 7.2987,-1.3636 13.8546,-6.9705 16.0979,-13.7679 2.3118,-7.0046 0.7494,-19.4677 -3.3951,-27.0824 -7.8492,-14.4216 -26.0074,-26.98 -45.6287,-31.5573 -8.6541,-2.0189 -10.075,-2.783 -8.2463,-4.4341 1.0902,-0.9844 26.6437,-6.6858 38.0182,-8.4826 5.2215,-0.8248 6.2533,0.4051 6.2616,7.464 0.01,4.8834 3.7912,11.4895 8.2626,14.4193 12.6001,8.2559 29.8501,1.979 38.3481,-13.9539 2.3295,-4.3676 2.8769,-7.4754 2.8803,-16.353 0,-9.7283 -0.4566,-11.8967 -4.095,-19.2873 -2.2546,-4.5796 -3.9895,-8.6999 -3.8554,-9.156 0.4085,-1.3901 -4.628,-6.4036 -9.6202,-9.5762 -2.5963,-1.65 -8.3825,-4.2988 -12.8581,-5.8863 -10.5499,-3.7419 -36.5547,-4.0117 -59.2078,-0.8095 -1.7606,0.2488 -3.501,0.5187 -5.2123,0.8095 -9.0322,1.535 -16.9882,2.7908 -17.68,2.7908 -0.8023,0 -1.2579,-22.1203 -1.2579,-61.0764 v -61.0764 h 14.144 14.144 v -20.5127 -20.5126 l -4.7976,-1.3247 c -2.6386,-0.7286 -9.0034,-2.2604 -14.144,-3.4041 l -9.3464,-2.0793 v -8.8717 -8.8717 l 31.1811,5e-4 c 36.88,5e-4 108.1394,1.9886 139.8328,3.9012 39.0489,2.3565 90.4235,8.8174 153.357,19.2862 144.626,24.0582 247.4558,57.6782 377.6861,123.484 39.5107,19.9648 99.0174,54.3351 97.207,56.1455 -0.3321,0.332 -7.4401,-0.4487 -15.7956,-1.7349 -22.6397,-3.4853 -58.6733,-3.1486 -80.7685,0.7547 -9.1936,1.6242 -18.5573,3.2234 -20.8082,3.554 -3.1987,0.4697 -6.5688,-0.7947 -15.4298,-5.7894 -65.2275,-36.7663 -125.0109,-62.0343 -227.3548,-96.0937 -64.6222,-21.5059 -151.1129,-41.9329 -242.2674,-57.2179 -50.4206,-8.4546 -126.9654,-17.5613 -153.7648,-18.2937 -12.2064,-0.3336 -12.8777,-0.2147 -13.2431,2.344 -0.2319,1.623 1.4707,4.9166 4.2788,8.2777 2.5651,3.0702 7.835,10.9705 11.7109,17.5562 3.8759,6.5857 7.8866,11.974 8.9127,11.974 4.3501,0 70.1283,9.4676 93.7778,13.4977 181.4667,30.9234 341.662,79.6464 448.9927,136.5601 l 18.2433,9.6738 -8.5997,4.5339 c -29.0087,15.2939 -52.5404,35.7156 -61.478,53.353 -4.6786,9.2329 -4.6055,19.2558 0.1935,26.5075 l 3.5055,5.2972 -3.301,4.3279 c -18.1871,23.8445 -27.4923,57.156 -29.9387,107.1763 l -0.8928,18.2568 -6.5456,1.4037 c -10.3311,2.2157 -14.9918,6.0308 -20.7373,16.9753 -10.6915,20.3658 -15.2667,68.2551 -10.2584,107.3762 3.7189,29.0493 13.9566,64.3623 25.1081,86.6057 15.7657,31.447 44.2048,61.8454 72.9129,77.936 17.5431,9.8327 41.8818,18.1308 62.9609,21.4658 l 9.2691,1.4665 -12.3322,10.9294 c -40.4377,35.838 -86.9065,61.303 -154.015,84.4006 -37.8542,13.0287 -65.5418,17.8012 -167.2166,28.823 -39.997,4.3358 -53.0142,7.2599 -77.5714,17.4254 -34.4983,14.2807 -48.6683,24.5395 -80.5794,58.33811 -6.9962,7.41007 -12.2596,12.32832 -11.6965,10.92946 9.7109,-24.12164 19.5192,-53.92087 22.545,-68.49507 3.3179,-15.9813 4.7565,-30.146 6.6219,-65.2018 1.8492,-34.7516 1.076,-49.9971 -3.3907,-66.8626 -1.873,-7.072 -3.6885,-14.0689 -4.0344,-15.5486 -0.6149,-2.6306 -0.1191,-2.7085 22.3055,-3.5001 12.614,-0.4453 29.01,-1.728 36.4356,-2.8506 17.6775,-2.6723 40.3398,-10.2783 61.0763,-20.4987 26.355,-12.9895 36.6523,-24.1069 36.6409,-39.5589 0,-6.0276 -5.7728,-39.3303 -7.0302,-40.5877 -0.2742,-0.2741 -7.7664,4.5105 -16.6494,10.6326 -8.883,6.1221 -20.3515,13.0648 -25.4855,15.4283 -27.2829,12.5596 -59.3512,17.4433 -114.0645,17.3709 l -26.4237,-0.035 -8.0748,-9.5577 c -16.0273,-18.9707 -47.5597,-43.5322 -71.0024,-55.3059 l -11.0503,-5.5497 -19.2272,18.0028 c -10.5749,9.9016 -20.2397,18.548 -21.4773,19.2142 -2.1315,1.1474 -2.2502,-2.8604 -2.2502,-75.9831 0,-48.2608 -0.461,-77.1943 -1.2298,-77.1943 -0.769,0 -1.2457,30.3851 -1.2723,81.1039 l -0.042,81.1038 4.9245,-3.9003 c 2.7085,-2.1451 12.6009,-11.0128 21.9832,-19.706 9.3822,-8.6932 17.7873,-16.3327 18.6779,-16.9767 2.6375,-1.9073 30.0309,14.4957 48.0764,28.7877 8.6962,6.8874 34.8928,32.1342 34.8928,33.6277 0,0.6148 -15.4781,1.1316 -34.3957,1.1484 -18.9176,0.017 -36.6653,0.5571 -39.4394,1.2005 -6.1579,1.4282 -10.7061,4.6693 -14.6776,10.4595 -2.5322,3.6916 -2.9293,5.624 -2.5205,12.2641 1.015,16.4894 11.6631,23.0724 49.8748,30.8346 8.8334,1.7944 16.232,3.4338 16.4414,3.6432 0.2094,0.2094 -8.7538,4.2883 -19.9181,9.0641 -65.9713,28.221 -135.2094,61.0218 -150.3728,71.2375 -12.0957,8.1489 -14.4503,12.8248 -24.8178,49.2834 -11.428,40.1881 -15.1569,50.3087 -22.7368,61.71053 -3.3713,5.07124 -12.264,15.44615 -19.7615,23.05537 -11.7896,11.96543 -15.1126,14.5455 -24.5908,19.09348 -15.4996,7.43721 -30.36855,10.33712 -56.39882,10.99947 -17.18355,0.43725 -23.8182,0.0652 -34.90698,-1.95753 z m 250.56884,-532.68772 c -0.2852,-2.2984 -0.5186,-0.4179 -0.5186,4.179 0,4.5968 0.2334,6.4773 0.5186,4.1789 0.2852,-2.2984 0.2852,-6.0595 0,-8.3579 z"
               id="path12430"
               transform="scale(0.26458333)"
               sodipodi:nodetypes="ssscssscssccsssssssssscsscscscsssscccccsccccssssscsscssscssscscssscsscsssssscssssscssssssscsscscsscssssccssssscssssssssssssssssss" />
            <path
               style="opacity:1;fill:#000000;fill-opacity:1;stroke:#000000;stroke-width:9.40933;stroke-linecap:round;stroke-miterlimit:4;stroke-dasharray:none;stroke-dashoffset:25.8444;stroke-opacity:1;paint-order:markers stroke fill"
               d="m 2302.1225,-980.03804 c -6.2508,-6.01553 -14.1014,-13.57012 -17.4457,-16.78804 l -6.0806,-5.85082 0.7675,-8.9562 0.7676,-8.9563 -3.2238,-39.0961 c -3.4854,-42.2685 -4.8971,-58.6777 -6.4627,-75.1236 -0.9353,-9.8241 -1.0686,-10.5696 -1.8909,-10.5696 -1.0087,0 -1.1018,-2.016 0.8288,17.9569 1.2947,13.3952 5.7498,66.3654 6.8248,81.1471 0.391,5.3757 1.0237,12.4335 1.406,15.6839 0.3822,3.2505 0.8134,6.9772 0.958,8.2817 0.1446,1.3046 0.01,3.6571 -0.2981,5.228 -0.6194,3.1533 -3.14,9.5515 -3.683,9.3491 -0.6346,-0.2366 -33.2468,-31.9704 -44.9775,-43.766 -11.0743,-11.1356 -11.5518,-11.6869 -10.6832,-12.3343 0.5,-0.3726 3.7913,-2.3915 7.314,-4.4863 6.7977,-4.0425 9.0927,-6.1086 9.4622,-8.5186 0.593,-3.8672 0.6833,-7.2663 0.2871,-10.8066 -0.2378,-2.1252 -0.9592,-8.7739 -1.6031,-14.7746 -1.4722,-13.7196 -1.8797,-16.3258 -5.686,-36.3685 -1.7094,-9.0012 -3.5547,-19.1275 -4.1006,-22.503 -0.546,-3.3754 -1.3838,-7.0388 -1.8618,-8.1409 -0.6641,-1.5308 -0.7981,-2.5399 -0.5679,-4.2752 0.2397,-1.8067 0.1516,-2.381 -0.4306,-2.8067 -1.565,-1.1444 -2.1886,-4.8153 -1.0763,-6.3365 0.9805,-1.3409 6.3371,-1.5778 25.2855,-1.1178 9.6117,0.2333 17.5335,0.482 17.6041,0.5525 0.1052,0.1053 2.6036,23.9053 3.6468,34.7399 0.2278,2.3661 0.4146,2.8413 1.117,2.8413 1.1386,0 1.1461,0.1421 -0.9959,-18.8892 -2.0885,-18.556 -3.19,-26.4678 -4.5329,-32.5607 -3.5574,-16.1389 -18.5385,-69.347 -30.5051,-108.3439 -5.8621,-19.1039 -10.0763,-31.3473 -13.3786,-38.8688 -3.6934,-8.4124 -19.4583,-39.9754 -28.3829,-56.8257 l -6.3806,-12.047 1.5729,-6.5918 c 10.5,-44.0031 11.0803,-80.3561 1.8615,-116.6156 -1.1327,-4.4554 -1.9962,-8.164 -1.9188,-8.2415 0.1774,-0.1774 7.9825,10.3428 15.3965,20.7524 10.7951,15.1568 20.415,30.0445 28.2001,43.6421 19.7861,34.5592 52.6874,105.0956 62.342,133.6541 8.3208,24.6129 22.8785,90.0497 29.3294,131.8356 2.1063,13.6435 2.743,21.0916 3.7311,43.6421 0.759,17.3223 1.0598,89.9369 0.4633,111.833 -0.8148,29.9027 -1.5002,39.9741 -3.4961,51.3704 -1.0608,6.0564 -6.9829,34.71614 -7.7904,37.70085 -0.3417,1.2628 -0.554,1.08783 -11.7131,-9.65109 z"
               id="path12617"
               transform="scale(0.26458333)" />
            <path
               style="opacity:1;fill:#000000;fill-opacity:1;stroke:#000000;stroke-width:18.8187;stroke-linecap:round;stroke-miterlimit:4;stroke-dasharray:none;stroke-dashoffset:25.8444;stroke-opacity:1;paint-order:markers stroke fill"
               d="m -3822.3234,-1486.5106 c 0,-10.8324 0.055,-11.1451 1.8184,-10.3624 1.0001,0.4439 4.7519,1.1047 8.3372,1.4685 l 6.5188,0.6615 -5.6096,6.3845 c -3.0853,3.5115 -6.837,7.8769 -8.3372,9.7009 l -2.7276,3.3164 z"
               id="path13030"
               transform="matrix(0.28478242,0,0,0.26431899,1377.8912,-87.926845)" />
            <path
               style="opacity:1;fill:#e0f7e8;fill-opacity:1;stroke:#e0f7e8;stroke-width:1.36439;stroke-linecap:round;stroke-miterlimit:4;stroke-dasharray:none;stroke-dashoffset:25.8444;stroke-opacity:1;paint-order:markers stroke fill"
               d="M 1011.1356,233.74231 C 990.13083,221.73425 981.15569,216.90434 964.20326,208.48591 912.07155,182.59775 851.15923,159.18178 781.13483,138.11057 721.81405,120.26021 657.78322,104.84156 590.03004,92.092479 570.38597,88.396063 527.5739,81.463369 504.43293,78.231467 l -7.64436,-1.067622 -1.25179,-1.936091 c -0.68848,-1.06485 -2.85662,-4.729164 -4.81809,-8.142919 -1.96147,-3.413756 -4.42673,-7.572576 -5.47836,-9.241822 l -1.91206,-3.034993 h 2.04507 c 6.51796,0 33.00267,2.689313 58.68868,5.95937 31.32992,3.988578 61.93715,8.721106 89.34579,13.81476 80.50543,14.961223 156.41586,34.54605 214.91105,55.44687 49.89912,17.82938 92.04642,34.7751 126.33168,50.79285 13.20176,6.16775 44.37816,21.97725 45.56896,23.10801 0.1342,0.12736 0.2065,8.06569 0.1608,17.64072 l -0.083,17.40915 z"
               id="path35980"
               transform="matrix(0.28478242,0,0,0.26431899,187.56112,-516.49696)" />
            <path
               style="opacity:1;fill:#e0f7e8;fill-opacity:1;stroke:#e0f7e8;stroke-width:0.964766;stroke-linecap:round;stroke-miterlimit:4;stroke-dasharray:none;stroke-dashoffset:25.8444;stroke-opacity:1;paint-order:markers stroke fill"
               d=""
               id="path36019"
               transform="matrix(0.28478242,0,0,0.26431899,187.56112,-516.49696)" />
            <path
               style="opacity:1;fill:#e0f7e8;fill-opacity:1;stroke:#e0f7e8;stroke-width:0.964766;stroke-linecap:round;stroke-miterlimit:4;stroke-dasharray:none;stroke-dashoffset:25.8444;stroke-opacity:1;paint-order:markers stroke fill"
               d=""
               id="path36058"
               transform="matrix(0.28478242,0,0,0.26431899,187.56112,-516.49696)" />
            <path
               style="opacity:1;fill:none;fill-opacity:1;stroke:none;stroke-width:0.964766;stroke-linecap:round;stroke-miterlimit:4;stroke-dasharray:none;stroke-dashoffset:25.8444;stroke-opacity:1;paint-order:markers stroke fill"
               d="m 208.11463,337.34852 c 0.0521,-0.0453 4.03273,-2.25814 8.84587,-4.91731 16.93832,-9.35814 32.16401,-17.78687 32.22567,-17.83969 0.0343,-0.0294 -0.52829,-0.53773 -1.25016,-1.1297 -6.33965,-5.1988 -11.80135,-11.18173 -16.00737,-17.535 -4.91778,-7.42837 -8.57048,-18.26407 -9.76228,-28.95971 -0.34265,-3.07502 -0.33862,-10.99243 0.007,-14.20554 1.49357,-13.87618 6.56837,-26.93019 16.03859,-41.25634 10.00155,-15.12994 22.94526,-28.25816 41.3247,-41.91379 8.09133,-6.01173 9.67974,-7.51525 12.35158,-11.69152 1.06632,-1.66675 1.9019,-3.06732 1.85684,-3.11238 -0.0826,-0.0826 -13.15948,-1.92635 -13.6641,-1.92651 -0.14932,-5e-5 4.79168,-3.37521 10.98,-7.50035 12.97027,-8.64601 11.71164,-7.34157 11.51492,-11.93395 -0.15349,-3.58298 -0.80616,-6.08986 -3.34363,-12.84261 -2.92135,-7.77434 -3.24735,-9.10412 -3.25989,-13.29721 -0.008,-2.62627 0.0851,-3.75396 0.40473,-4.90878 l 0.41493,-1.49923 -3.9156,-7.024621 C 283.96412,77.865506 279.0332,70.235954 264.24426,49.552004 c -3.57545,-5.000661 -7.37882,-10.370689 -8.45192,-11.933395 -9.02406,-13.14123 -11.23661,-19.953239 -8.69101,-26.757921 0.7914,-2.1155127 1.47033,-3.2192316 2.99373,-4.8668005 4.64459,-5.02315396 12.26714,-6.84390413 22.21343,-5.30598539 7.20748,1.11443649 18.55796,4.34373959 33.49563,9.52977589 13.72606,4.76539 33.38097,9.705175 65.15378,16.374814 5.12567,1.075965 10.64913,2.305587 12.27434,2.732493 4.17956,1.097873 16.70257,4.115785 25.00331,6.025533 5.90133,1.357714 25.47236,5.677632 25.72205,5.677632 0.0423,0 0.0768,-7.223509 0.0768,-16.052244 V 8.9236598 l 34.4932,0.1244928 c 18.97126,0.068471 38.38007,0.2308755 43.1307,0.3608988 4.75063,0.1300234 12.57553,0.3445731 17.38866,0.4767774 59.77829,1.6419532 84.60273,3.2113782 120.69778,7.6306292 36.43529,4.46091 90.08624,13.245063 128.48289,21.03622 l 1.30699,0.265203 v 4.371612 4.37161 l -2.10255,-0.43336 C 750.5431,41.585556 703.30633,33.533055 671.11144,29.003109 636.97183,24.199537 612.62843,21.822964 583.59987,20.459623 544.62563,18.629177 502.69358,17.618236 465.68656,17.616846 l -23.46902,-8.81e-4 v 8.960398 8.9604 l 0.73874,0.152164 c 2.52363,0.519807 17.79837,4.374591 21.25281,5.363424 l 4.14827,1.187446 V 62.65948 83.079163 h -13.06991 -13.06991 l 0.002,48.358667 c 0.002,53.3328 0.27797,73.37664 1.0202,74.11887 0.15757,0.15758 3.10032,-0.30821 13.44626,-2.12831 15.82525,-2.78405 22.52224,-3.39831 37.01573,-3.39512 11.28424,0.002 13.82321,0.16333 19.96064,1.26454 5.83886,1.04765 14.36053,4.80619 19.297,8.51107 3.58457,2.69026 7.45308,6.94047 7.45308,8.18846 0,0.73281 0.93124,3.27942 2.61312,7.14606 2.89513,6.65588 3.33985,7.79498 3.89015,9.96429 1.2731,5.01876 1.25632,18.37902 -0.0293,23.31486 -1.64656,6.32156 -7.33004,14.09211 -13.1296,17.951 -10.19446,6.78317 -22.16945,5.0551 -28.24894,-4.07649 -2.36002,-3.54485 -3.23561,-6.34256 -3.51765,-11.23983 -0.1044,-1.81274 -0.31515,-3.67705 -0.46833,-4.14293 -0.5756,-1.75055 -1.9373,-2.33676 -4.6332,-1.99465 -3.79632,0.48175 -16.61259,3.26643 -26.14455,5.68064 -9.78907,2.47933 -10.69257,2.84208 -10.5298,4.22776 0.10217,0.86978 1.31408,1.43842 5.52914,2.59443 5.30204,1.45411 7.07846,1.99872 9.77402,2.99645 15.27602,5.65429 28.39134,16.42592 34.86401,28.6339 1.87207,3.53087 3.25837,8.0476 4.03529,13.14753 0.52832,3.46802 0.53145,9.83473 0.006,12.37793 -0.94254,4.56269 -3.30121,8.53542 -6.84107,11.52241 l -1.57646,1.33027 h -11.2476 -11.2476 l -2.06427,-2.10408 c -1.13533,-1.15724 -2.93018,-3.33082 -3.98855,-4.83018 -2.6769,-3.7923 -4.37642,-5.8222 -6.0022,-7.16904 -1.79906,-1.49036 -5.41792,-3.2605 -7.87104,-3.85003 -7.48133,-1.79794 -22.45383,-1.69979 -38.18687,0.25028 -3.8446,0.47654 -4.88253,0.65197 -29.43571,4.9753 -35.38562,6.23071 -48.62282,8.17148 -65.12224,9.54787 -10.43555,0.87057 -14.54273,1.47751 -17.69658,2.61517 l -1.56551,0.56471 h -51.77859 c -28.47865,0 -51.7364,-0.0371 -51.68431,-0.0824 z m 127.18521,-63.68128 c 10.98496,-0.89091 21.44856,-2.24268 22.8101,-2.94675 0.3657,-0.18912 1.09934,-0.34384 1.63031,-0.34384 0.53097,0 8.07966,-1.02002 16.77486,-2.26673 27.47669,-3.93957 31.74452,-4.29121 56.83763,-4.68301 8.1909,-0.1279 9.47032,-0.19439 9.71605,-0.50482 0.25267,-0.31922 0.63675,-0.32743 3.58732,-0.0767 1.8174,0.1544 3.80152,0.33963 4.40917,0.4116 1.09742,0.12997 1.1059,0.12592 1.2664,-0.60476 0.52043,-2.36952 2.08675,-4.67669 4.26226,-6.2782 2.03198,-1.49586 7.22969,-3.02424 21.53744,-6.33309 14.03865,-3.24663 19.88206,-4.16311 22.69575,-3.55969 3.43502,0.73669 6.31856,3.21856 7.82385,6.73407 0.75265,1.75775 1.10081,3.66928 1.2834,7.04638 0.20146,3.72577 0.49,4.78007 1.91701,7.0045 3.49557,5.44888 11.14647,6.23169 17.81053,1.82229 3.89249,-2.57555 8.2448,-8.3449 9.48807,-12.57728 0.84487,-2.87604 0.99998,-14.59566 0.24522,-18.52518 -0.35448,-1.84549 -0.59083,-2.47012 -3.16301,-8.35962 -1.05271,-2.41039 -2.24543,-5.35127 -2.65049,-6.5353 -0.65117,-1.90342 -0.89721,-2.31936 -2.12405,-3.59088 -2.31988,-2.40432 -4.71662,-4.0445 -8.88765,-6.08214 -4.57084,-2.23295 -7.10044,-3.11932 -10.60331,-3.71537 -10.19387,-1.7346 -26.88413,-1.64295 -41.67726,0.22886 -3.49301,0.44198 -5.70953,0.80433 -18.53207,3.02957 -7.60057,1.319 -8.68535,1.42025 -10.27272,0.95879 -2.54843,-0.74085 -4.66259,-2.7621 -5.61169,-5.36508 -1.35073,-3.70452 -1.4196,-7.02179 -1.53967,-74.16207 l -0.1068,-59.723799 h 13.08764 c 13.76584,0 17.50874,-0.294823 7.00729,-0.55195 -3.3442,-0.08188 -7.97265,-0.246681 -10.28545,-0.366217 -2.31281,-0.119539 -4.99519,-0.217567 -5.96086,-0.217845 -1.69366,-4.54e-4 -1.76744,-0.02306 -2.0855,-0.638157 -0.53385,-1.032348 -1.28348,-1.220522 -5.70546,-1.432207 C 424.15132,71.169 417.06412,70.473331 406.0764,69.086391 390.7307,67.149356 350.81276,61.386594 333.56682,58.61853 c -3.75114,-0.602077 -6.84635,-0.990831 -7.35286,-0.923506 -1.28096,0.170263 -1.96655,0.912225 -1.96655,2.128256 0,0.76662 0.35267,1.690274 1.58356,4.147378 2.01645,4.025203 8.92525,18.442108 11.84177,24.71073 3.06844,6.595138 4.43181,9.898654 6.22453,15.082332 2.7776,8.03147 4.90802,12.92692 6.12181,14.06722 l 0.53117,0.49901 -0.99069,1.97947 c -0.56113,1.1212 -1.10716,2.62008 -1.25934,3.45694 -0.18925,1.04074 -0.30684,8.33069 -0.39782,24.66235 l -0.12916,23.18488 -1.38313,1.93208 c -0.76072,1.06264 -2.33163,3.56865 -3.49092,5.56891 -5.49426,9.47999 -12.55684,19.04728 -19.11362,25.89219 -1.49622,1.56197 -2.7204,2.9246 -2.7204,3.02806 0,0.10347 -1.3553,1.39707 -3.01177,2.87468 -6.10325,5.44427 -12.58595,12.12049 -17.02161,17.52978 -5.23653,6.38593 -10.21909,14.11691 -12.79414,19.85146 -2.60272,5.79618 -3.54158,11.91362 -2.22431,14.49326 1.46349,2.86599 7.30597,6.00318 15.21845,8.17176 4.69734,1.2874 9.51586,2.10985 16.42383,2.80335 3.29006,0.33029 13.06668,0.2794 17.64422,-0.0919 z M 460.39829,51.19995 c -0.002,-0.371024 -0.0568,-0.427307 -0.19769,-0.205005 -0.24344,0.384151 -0.99022,-0.349785 -1.64167,-1.613418 -0.47999,-0.93105 -0.45131,-0.957087 0.69278,-0.628969 0.42844,0.122877 0.81858,0.183836 0.86695,0.135461 0.0484,-0.04838 -0.45256,-0.246401 -1.11319,-0.440056 -0.66061,-0.193657 -1.22437,-0.328855 -1.25278,-0.300442 -0.15168,0.151672 0.87114,2.003028 1.5062,2.726335 0.84622,0.96378 1.14431,1.049096 1.1394,0.326094 z"
               id="path36097"
               transform="matrix(0.28478242,0,0,0.26431899,187.56112,-516.49696)" />
            <path
               style="opacity:1;fill:#e0f7e8;fill-opacity:1;stroke:#e0f7e8;stroke-width:7.71813;stroke-linecap:round;stroke-miterlimit:4;stroke-dasharray:none;stroke-dashoffset:25.8444;stroke-opacity:1;paint-order:markers stroke fill"
               d="m 1383.5941,969.67363 c -63.3757,-64.10553 -68.8452,-70.72339 -81.3002,-98.37102 -16.7416,-37.16286 -29.5314,-79.40004 -36.9769,-122.11267 -4.6391,-26.61272 -4.6232,-90.78493 0.027,-110.92376 4.2264,-18.30176 10.6623,-34.84284 19.457,-50.00661 6.4864,-11.18391 7.0589,-13.48265 10.6429,-42.73292 8.521,-69.54448 9.4705,-113.73005 2.9694,-138.20008 -8.1242,-30.57989 -37.7999,-72.22008 -69.3522,-97.31344 -17.5743,-13.97673 -33.0708,-22.32675 -56.4623,-30.4238 l -19.7195,-6.826 -33.6408,0.12448 c -31.5035,0.11658 -34.9695,0.47683 -54.5527,5.67018 -11.5015,3.05013 -26.6399,7.81718 -33.6408,10.59346 -17.0613,6.76579 -54.50347,25.53064 -64.11469,32.13227 -4.25897,2.92534 -8.55499,4.81733 -9.54672,4.20441 -3.68386,-2.27676 -1.86647,-14.63587 3.35557,-22.81943 7.85032,-12.30239 28.82995,-30.96863 46.85604,-41.68927 27.3441,-16.26242 25.4398,-14.7509 21.8714,-17.36017 -2.7079,-1.98008 -1.1348,-2.99066 11.9591,-7.68297 8.2925,-2.97165 16.3046,-5.79336 17.8048,-6.27047 1.5002,-0.47711 5.2205,0.16939 8.2672,1.43666 4.6377,1.929 8.7825,1.74255 25.4579,-1.14524 23.1048,-4.00117 50.2294,-4.49547 76.9649,-1.40254 16.7299,1.93541 19.0972,1.857 20.9628,-0.69439 1.8915,-2.58669 3.5622,-2.38627 16.5996,1.99126 64.7233,21.73204 122.3905,77.98305 152.9351,149.17931 4.4954,10.4784 6.8629,18.98723 7.2429,26.03106 0.3104,5.75538 1.8227,17.09726 3.3606,25.20419 4.0959,21.59222 3.6259,56.40434 -1.1297,83.66484 -3.6178,20.73863 -4.0155,24.71152 -3.1168,31.14108 0.1747,1.25016 -0.1852,5.13704 -0.7999,8.6375 l -1.1175,6.36448 2.0288,-5.95662 2.0288,-5.95663 8.0706,16.86716 c 17.7596,37.11672 24.2574,53.59272 32.9935,83.65924 11.8594,40.81587 29.7011,110.21431 28.9299,112.52797 -0.3346,1.00369 -8.7635,1.96478 -18.9778,2.16392 l -18.376,0.35825 -3.2313,-12.72896 c -8.1892,-32.25897 -25.3236,-81.45564 -41.7388,-119.84146 -5.9157,-13.83357 -8.1599,-21.25535 -7.4228,-24.5487 0.581,-2.59625 -5.9153,9.10522 -14.4362,26.00328 -8.5209,16.89803 -17.1143,33.34775 -19.0964,36.55492 -3.2975,5.3355 -3.4426,7.12923 -1.7068,21.1013 8.076,65.00373 37.8391,139.82781 75.0157,188.58838 4.3369,5.6883 8.3484,11.5698 8.9143,13.07 1.3631,3.61328 52.3933,58.18951 54.4087,58.18951 0.8615,0 1.5663,1.03903 1.5663,2.30894 0,3.26285 33.1309,35.87792 36.4453,35.87792 1.5049,0 9.2441,6.54632 17.1982,14.54735 l 14.462,14.5474 h -45.5749 -45.5749 z"
               id="path36136"
               transform="matrix(0.28478242,0,0,0.26431899,187.56112,-516.49696)" />
            <path
               style="opacity:1;fill:#e0f7e8;fill-opacity:1;stroke:#e0f7e8;stroke-width:7.71813;stroke-linecap:round;stroke-miterlimit:4;stroke-dasharray:none;stroke-dashoffset:25.8444;stroke-opacity:1;paint-order:markers stroke fill"
               d="m 1113.2264,981.02351 c -50.1114,-4.74193 -83.4152,-18.85496 -89.3773,-37.8751 -3.5134,-11.20842 6.1775,-26.33386 18.3482,-28.63767 3.1331,-0.59308 18.2715,0.33839 33.6408,2.06994 63.1009,7.10913 131.2167,-1.23414 179.5318,-21.99026 20.1401,-8.65215 24.0017,-9.31179 35.0806,-5.99248 12.4083,3.71762 17.5287,17.4706 11.6992,31.42271 -7.6233,18.24501 -43.7493,41.19608 -81.5324,51.79804 -28.3862,7.96517 -76.7151,12.1076 -107.3909,9.20482 z"
               id="path36175"
               transform="matrix(0.28478242,0,0,0.26431899,187.56112,-516.49696)" />
            <path
               style="opacity:1;fill:#e0f7e8;fill-opacity:1;stroke:#e0f7e8;stroke-width:7.71813;stroke-linecap:round;stroke-miterlimit:4;stroke-dasharray:none;stroke-dashoffset:25.8444;stroke-opacity:1;paint-order:markers stroke fill"
               d="m 577.06651,999.23132 c 4.26619,-1.00856 9.69507,-5.38503 18.18422,-14.65918 6.65625,-7.27176 13.12487,-14.65724 14.3747,-16.4122 10.14896,-14.25065 55.69928,-41.05478 81.375,-47.8852 6.00079,-1.59637 36.27752,-6.1701 67.28162,-10.16385 83.99366,-10.81952 106.17972,-15.59775 147.2922,-31.72248 56.73273,-22.25115 93.74835,-44.88407 132.93485,-81.28203 l 17.9942,-16.71367 1.5702,8.54591 c 1.3966,7.60074 1.0516,9.32976 -3.1199,15.63327 -19.7524,29.84796 -65.25009,64.59137 -117.89634,90.0293 -55.90472,27.01237 -82.05506,33.62097 -195.14101,49.31513 -23.83493,3.30783 -38.96772,6.40187 -48.79454,9.97649 -26.08668,9.48933 -47.64134,23.7366 -59.75374,39.49622 l -5.88139,7.65237 -28.25101,-0.1861 c -18.15105,-0.1196 -26.07666,-0.7002 -22.16906,-1.62398 z"
               id="path36214"
               transform="matrix(0.28478242,0,0,0.26431899,187.56112,-516.49696)" />
            <path
               style="opacity:1;fill:#e0f7e8;fill-opacity:1;stroke:#e0f7e8;stroke-width:7.71813;stroke-linecap:round;stroke-miterlimit:4;stroke-dasharray:none;stroke-dashoffset:25.8444;stroke-opacity:1;paint-order:markers stroke fill"
               d="m 1043.2569,768.99381 c -43.40113,-7.55987 -76.39628,-26.27926 -101.20454,-57.41704 -21.35184,-26.79953 -32.3936,-51.33344 -41.99664,-93.31323 -9.66983,-42.27176 -7.84864,-105.46034 3.72562,-129.26538 3.94814,-8.12024 10.00609,-13.48076 15.23466,-13.48076 0.79799,0 2.00969,13.63356 2.69267,30.29681 4.69811,114.62386 36.26463,187.84657 92.77243,215.19791 19.1621,9.27497 34.9987,12.64958 59.5509,12.68966 34.1846,0.0558 62.3317,-7.63717 113.6228,-31.05456 15.1257,-6.9058 28.5835,-12.556 29.906,-12.556 4.4591,0 -10.0068,12.97115 -27.5051,24.66297 -28.4192,18.98883 -61.3294,32.65817 -91.6467,38.06563 -18.4149,3.2845 -33.5652,8.95696 -38.2689,14.32826 -3.5468,4.05026 -3.9648,4.09595 -16.8832,1.84573 z"
               id="path36253"
               transform="matrix(0.28478242,0,0,0.26431899,187.56112,-516.49696)" />
            <path
               style="opacity:1;fill:#e0f7e8;fill-opacity:1;stroke:#e0f7e8;stroke-width:5.45754;stroke-linecap:round;stroke-miterlimit:4;stroke-dasharray:none;stroke-dashoffset:25.8444;stroke-opacity:1;paint-order:markers stroke fill"
               d="m 1021.5829,222.39242 v -17.41275 l 6.1077,3.53561 c 30.1179,17.43478 29.379,16.91768 25.9955,18.1924 -1.7447,0.65734 -7.2226,2.6567 -12.173,4.44303 -11.8709,4.28357 -16.0727,6.26388 -16.0727,7.57504 0,0.59369 -0.868,1.07943 -1.9288,1.07943 -1.6194,0 -1.9287,-2.79196 -1.9287,-17.41276 z"
               id="path36635"
               transform="matrix(0.28478242,0,0,0.26431899,187.56112,-516.49696)" />
          </g>
        </g>
      </g>
    </g>
  </g>
</svg>
