<?xml version="1.0" encoding="UTF-8" standalone="no"?>
<!-- Created with Inkscape (http://www.inkscape.org/) -->

<svg
   width="59.55014mm"
   height="21.932861mm"
   viewBox="0 0 59.55014 21.932861"
   version="1.1"
   id="svg5"
   sodipodi:docname="tbhintergrundweiß.svg"
   inkscape:version="1.1.1 (3bf5ae0d25, 2021-09-20)"
   xmlns:inkscape="http://www.inkscape.org/namespaces/inkscape"
   xmlns:sodipodi="http://sodipodi.sourceforge.net/DTD/sodipodi-0.dtd"
   xmlns="http://www.w3.org/2000/svg"
   xmlns:svg="http://www.w3.org/2000/svg">
  <sodipodi:namedview
     id="namedview7"
     pagecolor="#ffffff"
     bordercolor="#666666"
     borderopacity="1.0"
     inkscape:pageshadow="2"
     inkscape:pageopacity="0.0"
     inkscape:pagecheckerboard="0"
     inkscape:document-units="mm"
     showgrid="false"
     fit-margin-top="0"
     fit-margin-left="0"
     fit-margin-right="0"
     fit-margin-bottom="0"
     inkscape:zoom="2.1997092"
     inkscape:cx="223.66593"
     inkscape:cy="127.28955"
     inkscape:window-width="2560"
     inkscape:window-height="1371"
     inkscape:window-x="0"
     inkscape:window-y="0"
     inkscape:window-maximized="1"
     inkscape:current-layer="g22889" />
  <defs
     id="defs2">
    <rect
       x="544.71478"
       y="298.0625"
       width="588.94562"
       height="161.02605"
       id="rect11118" />
  </defs>
  <g
     inkscape:label="Ebene 1"
     inkscape:groupmode="layer"
     id="layer1"
     transform="translate(-104.26617,-132.94079)">
    <g
       id="g22898"
       transform="matrix(0.94664953,0,0,0.94648721,-216.48242,58.774882)">
      <g
         id="g22889"
         style="stroke-width:0.634126;stroke-miterlimit:4;stroke-dasharray:none">
        <path
           style="fill:#90bb9f;fill-opacity:1;stroke:#000000;stroke-width:7.89833;stroke-miterlimit:4;stroke-dasharray:none;stroke-opacity:1"
           d="m 798.54198,231.52501 c 4.7632,-31.37439 14.15198,-32.56497 15.61823,-23.41404 -40.80711,39.44788 47.51709,29.80374 80.47415,30.88525 127.02434,3.92332 325.42894,-8.22779 214.80714,-0.97744 -0.2976,0.0195 -0.5975,0.0392 -0.8996,0.0589 -150.96662,9.88671 -147.98065,11.64917 -157.07229,13.21119 -86.23096,1.44579 -111.98363,51.60237 -152.92763,-19.7639 z M 1403.275,54.533474 c -25.6026,-65.572331 -153.4764,-28.131544 -217.3676,-24.841198 -22.5093,1.026946 -76.1719,5.086366 -78.1045,5.908373 -1.8462,0.785301 -28.3566,2.941171 -52.9591,4.306729 -9.2784,0.514993 -88.97552,5.730376 -104.29717,6.825209 -7.10697,0.507842 -25.58972,1.754949 -41.07276,2.771357 -15.48305,1.016398 -46.84141,3.090203 -69.68525,4.608455 -83.99165,-8.849178 -81.10264,55.477311 -66.15205,107.748951 23.63589,64.99712 32.2487,67.14662 -6.05769,15.93631 -3.59085,-6.34551 -22.35157,-39.0646 -41.69047,-72.70909 C 661.78159,20.677473 747.12,13.997471 826.25197,14.498672 c 57.19396,4.099103 111.25752,7.669451 120.14123,7.934105 12.68673,0.377949 24.66738,-0.133748 55.8405,-2.384966 21.8286,-1.576386 48.6182,-3.484426 59.5324,-4.240091 10.9143,-0.755665 25.659,-1.792232 32.7659,-2.303484 14.5885,-1.049444 100.797,-7.046007 113.527,-7.8968056 4.5688,-0.3053487 10.5912,-0.7238302 13.3833,-0.9299591 2.792,-0.206128 25.6358,-1.8293233 50.764,-3.6071007 25.1283,-1.77777647 51.5025,-3.6554465 58.6095,-4.1725996 98.9447,-12.108002 115.5038,-21.745672 129.3807,62.7627 9.3959,57.343729 18.5661,122.190849 2.3691,154.666669 16.1442,5.89361 -53.6726,-141.002222 -59.2906,-159.793666 z"
           id="path12738"
           sodipodi:nodetypes="cccscccccsssscscccsssssssccccc"
           transform="matrix(0.08025353,0,0,0.08025353,282.69233,79.567976)" />
        <path
           style="fill:#083314;fill-opacity:1;stroke:#000000;stroke-width:7.90154;stroke-miterlimit:4;stroke-dasharray:none;stroke-opacity:1"
           d="m 792.82738,201.81069 c 22.55138,49.98934 269.65822,27.04954 393.86322,19.45223 72.7999,-4.45298 113.3077,-10.69839 63.2,-9.2417 -149.4424,-5.44035 -429.79301,68.27273 -457.06322,-10.21053 z m 675.03552,11.81314 c -6.3764,-14.27673 -62.3696,-156.478026 -61.838,-157.044627 66.5606,-7.320684 68.4899,33.357123 68.0894,82.043207 -1.2252,11.50304 3.319,76.14682 -2.7665,76.84739 -1.9141,0.22035 -2.7629,-0.22922 -3.4849,-1.84597 z M 744.8091,84.411375 C 681.23857,-49.696479 830.79355,15.042703 932.54845,22.287265 1242.6288,56.986727 759.72385,21.952201 778.41022,110.8616 c 8.28197,104.05484 -20.65607,5.98882 -33.60112,-26.450225 z"
           id="path12740"
           sodipodi:nodetypes="csccccccccccc"
           transform="matrix(0.08025353,0,0,0.08025353,282.69233,79.567976)" />
        <path
           id="rect3800"
           style="fill:#ffffff;fill-opacity:1;stroke:#000000;stroke-width:15.7967;stroke-linecap:round;stroke-miterlimit:4;stroke-dasharray:none;stroke-dashoffset:25.8444;stroke-opacity:1;paint-order:markers stroke fill"
           d="m 1006.4959,38.066042 c 12.828,-0.834832 25.6672,-1.505311 38.486,-2.471757 27.328,-2.060318 54.603,-4.783987 81.9116,-7.091717 30.239,-2.555362 60.5639,-4.181287 90.7323,-7.47944 14.7422,-1.61169 29.3627,-4.216953 44.0846,-6.011827 19.4363,-2.369659 38.8284,-6.6988233 58.4041,-6.2794818 13.5609,0.2904946 27.2066,2.3061408 40.2356,6.0786438 9.6835,2.803835 19.6627,6.031368 27.6925,12.15911 8.8791,6.776107 15.5823,16.352234 21.1626,26.073896 7.2265,12.589911 10.0343,27.284351 15.3905,40.792898 7.7688,19.593423 16.5981,38.749033 24.2835,58.375983 7.0355,17.96751 13.2621,36.24722 19.9734,54.34064 2.1225,5.72214 6.0494,11.04852 6.4182,17.14719 0.4789,7.92229 -0.642,16.96549 -5.5924,23.13238 -5.2716,6.56695 -14.4935,9.03258 -22.64,10.98852 -13.6176,3.26958 -28.0109,1.60646 -41.9857,0.79858 -15.6188,-0.90293 -31.0265,-4.08681 -46.5173,-6.29442 -18.0635,-2.57423 -36.0021,-6.09499 -54.1357,-8.10524 -13.9291,-1.54415 -27.9281,-2.5039 -41.9312,-3.03226 -24.438,-0.92205 -48.9222,-1.02871 -73.3648,-0.23729 -26.8684,0.86996 -53.5984,4.52126 -80.464,5.47739 -27.6529,0.98416 -55.3439,-0.21035 -83.0099,0.26402 -21.1758,0.36309 -42.33743,2.63703 -63.50605,1.97619 -14.04864,-0.43855 -27.9495,-3.18799 -41.98521,-3.93787 -19.22348,-1.02706 -38.50407,-0.19549 -57.74621,-0.76408 -21.33725,-0.6305 -43.12948,1.71328 -63.97311,-2.93522 -4.46569,-0.99591 -8.84909,-2.75665 -12.69251,-5.25846 -3.46555,-2.25584 -6.40973,-5.32853 -9.00032,-8.56687 -2.77248,-3.46572 -5.00032,-7.39135 -6.8503,-11.43552 -2.84626,-6.22206 -5.12102,-12.78352 -6.43254,-19.50772 -3.4803,-17.84336 -2.67096,-36.2741 -3.64443,-54.4334 -0.45109,-8.4151 -0.68656,-16.84057 -1.01758,-25.26135 -0.21361,-5.43449 -2.19627,-11.10169 -0.625,-16.30408 2.25958,-7.481328 7.81895,-13.865367 13.70452,-18.952866 6.68045,-5.7746 15.25356,-8.99142 23.4523,-12.205748 15.28985,-5.994412 31.43268,-9.632855 47.4919,-13.003603 22.00135,-4.61797 44.38756,-7.204753 66.70706,-9.843101 25.84015,-3.054518 51.80779,-4.913894 77.74824,-6.923869 6.40662,-0.496405 12.82314,-0.850961 19.23534,-1.268251 z"
           sodipodi:nodetypes="aaaaaaaaaaaaaaaaaaaaaaaaaaaaaaaaaaaaaaa"
           transform="matrix(0.08025353,0,0,0.08025353,282.69233,79.567976)" />
        <g
           id="g83420-9-4"
           transform="translate(53.106516,90.725806)"
           style="fill:#b34848;fill-opacity:1;stroke-width:0.634126;stroke-miterlimit:4;stroke-dasharray:none">
          <text
             xml:space="preserve"
             transform="matrix(0.21106793,0,0,0.21106793,177.83024,-67.055113)"
             id="text11116"
             style="font-style:normal;font-weight:normal;font-size:40px;line-height:1.25;font-family:sans-serif;white-space:pre;shape-inside:url(#rect11118);fill:#000000;fill-opacity:1;stroke:none;stroke-width:3.00437;stroke-miterlimit:4;stroke-dasharray:none"><tspan
               x="544.71484"
               y="333.45312"
               id="tspan10033"><tspan
                 style="font-family:'Indie Flower';-inkscape-font-specification:'Indie Flower, Normal'"
                 id="tspan10031">Termin buchen</tspan></tspan></text>
        </g>
      </g>
    </g>
  </g>
</svg>
