<?xml version="1.0" encoding="UTF-8" standalone="no"?>
<!-- Created with Inkscape (http://www.inkscape.org/) -->

<svg
   width="12.863727mm"
   height="7.8587356mm"
   viewBox="0 0 12.863726 7.8587356"
   version="1.1"
   id="svg5"
   inkscape:version="1.1.1 (3bf5ae0d25, 2021-09-20)"
   sodipodi:docname="Telefon.svg"
   xmlns:inkscape="http://www.inkscape.org/namespaces/inkscape"
   xmlns:sodipodi="http://sodipodi.sourceforge.net/DTD/sodipodi-0.dtd"
   xmlns="http://www.w3.org/2000/svg"
   xmlns:svg="http://www.w3.org/2000/svg">
  <sodipodi:namedview
     id="namedview7"
     pagecolor="#ffffff"
     bordercolor="#666666"
     borderopacity="1.0"
     inkscape:pageshadow="2"
     inkscape:pageopacity="0.0"
     inkscape:pagecheckerboard="0"
     inkscape:document-units="mm"
     showgrid="false"
     fit-margin-top="0"
     fit-margin-left="0"
     fit-margin-right="5"
     fit-margin-bottom="0"
     inkscape:zoom="6.221717"
     inkscape:cx="49.664747"
     inkscape:cy="-10.929459"
     inkscape:window-width="2560"
     inkscape:window-height="1371"
     inkscape:window-x="0"
     inkscape:window-y="0"
     inkscape:window-maximized="1"
     inkscape:current-layer="g141907" />
  <defs
     id="defs2" />
  <g
     inkscape:label="Ebene 1"
     inkscape:groupmode="layer"
     id="layer1"
     transform="translate(-108.33618,-158.34898)">
    <g
       id="g141907"
       transform="matrix(0.26793777,0,0,0.26793777,107.98096,157.99167)">
      <path
         d="M 13.216,8.064 C 12.834,3.67 8.25,1.514 8.056,1.426 7.874,1.34 7.67,1.314 7.474,1.348 2.182,2.226 1.386,5.306 1.354,5.434 1.31,5.614 1.318,5.8 1.374,5.974 c 6.312,19.584 19.43,23.214 23.742,24.408 0.332,0.092 0.606,0.166 0.814,0.234 0.1,0.034 0.204,0.048 0.308,0.048 0.142,0 0.284,-0.03 0.414,-0.09 0.132,-0.06 3.248,-1.528 4.01,-6.316 0.034,-0.208 0,-0.424 -0.096,-0.612 -0.068,-0.132 -1.698,-3.234 -6.218,-4.33 -0.316,-0.082 -0.64,0.002 -0.884,0.21 -1.426,1.218 -3.396,2.516 -4.246,2.65 -5.698,-2.786 -8.88,-8.132 -9,-9.146 -0.07,-0.57 1.236,-2.572 2.738,-4.2 0.19,-0.206 0.286,-0.486 0.26,-0.766 z"
         id="path141905" />
    </g>
  </g>
</svg>
