<?xml version="1.0" encoding="UTF-8" standalone="no"?>
<!-- Created with Inkscape (http://www.inkscape.org/) -->

<svg
   width="298.38187mm"
   height="8.7957125mm"
   viewBox="0 0 298.38187 8.7957125"
   version="1.1"
   id="svg5"
   inkscape:version="1.1.1 (3bf5ae0d25, 2021-09-20)"
   sodipodi:docname="welle.svg"
   xmlns:inkscape="http://www.inkscape.org/namespaces/inkscape"
   xmlns:sodipodi="http://sodipodi.sourceforge.net/DTD/sodipodi-0.dtd"
   xmlns="http://www.w3.org/2000/svg"
   xmlns:svg="http://www.w3.org/2000/svg">
  <sodipodi:namedview
     id="namedview7"
     pagecolor="#ffffff"
     bordercolor="#666666"
     borderopacity="1.0"
     inkscape:pageshadow="2"
     inkscape:pageopacity="0.0"
     inkscape:pagecheckerboard="0"
     inkscape:document-units="mm"
     showgrid="false"
     fit-margin-top="0"
     fit-margin-left="0"
     fit-margin-right="0"
     fit-margin-bottom="0"
     inkscape:zoom="0.77771465"
     inkscape:cx="448.75071"
     inkscape:cy="-61.719295"
     inkscape:window-width="2560"
     inkscape:window-height="1371"
     inkscape:window-x="0"
     inkscape:window-y="0"
     inkscape:window-maximized="1"
     inkscape:current-layer="layer1" />
  <defs
     id="defs2" />
  <g
     inkscape:label="Ebene 1"
     inkscape:groupmode="layer"
     id="layer1"
     transform="translate(23.654844,-164.68461)">
    <path
       id="path35613"
       style="fill:#083314;fill-opacity:1;stroke:none;stroke-width:0.120624px;stroke-linecap:butt;stroke-linejoin:miter;stroke-opacity:1"
       d="m 243.97601,173.48019 c 14.85604,-0.01 30.751,-1.14834 30.751,-1.14834 v -7.64724 H -23.654844 v 7.64724 h 9.018826 c 8.867813,0.50458 22.970729,1.17615 34.679913,1.13452 10.965851,-0.039 23.668891,-0.65984 31.867408,-1.13452 h 15.65862 c 7.115705,0.49086 18.478586,1.13798 28.915416,1.13452 10.381681,-0.004 21.637421,-0.64627 28.699701,-1.13452 h 14.88652 c 7.22354,0.45739 18.34449,1.05125 28.53843,1.13452 11.74667,0.096 25.77939,-0.60918 34.45021,-1.13452 h 14.1969 c 5.62882,0.45263 14.51621,1.03921 23.76689,1.13452 0.97617,0.01 1.9616,0.0145 2.95202,0.0139 z" />
  </g>
</svg>
